<svg xmlns="http://www.w3.org/2000/svg" viewBox="0 0 320 50"><title>overlay</title><g id="Layer_2" data-name="Layer 2"><g id="rect"><rect width="320" height="50" fill="none"/></g><g id="CTA"><g id="Rounded_Rectangle_1" data-name="Rounded Rectangle 1"><rect x="251" y="17" width="61" height="15" rx="4" fill="#fff"/></g><g id="EXPLORE_" data-name="EXPLORE  &gt;"><path d="M257.11,27.08h3.09v.74h-3.91v-5.9h3.78v.72h-3v1.77h2.79v.71h-2.79Z" fill="#19191d"/><path d="M264.31,24.12l1.4-2.2h1l-1.88,2.79,2.14,3.11h-1l-1.62-2.49-1.58,2.49h-1l2.11-3.13-1.9-2.77h1Z" fill="#19191d"/><path d="M268.6,21.92h1.8a3.85,3.85,0,0,1,.86.09,2.07,2.07,0,0,1,.67.3,1.31,1.31,0,0,1,.42.51,1.89,1.89,0,0,1,0,1.5,1.39,1.39,0,0,1-.45.51,1.83,1.83,0,0,1-.68.3,3.38,3.38,0,0,1-.86.1h-.93v2.59h-.82Zm.82,2.61h.88a2.38,2.38,0,0,0,.55-.06,1.34,1.34,0,0,0,.44-.16.89.89,0,0,0,.28-.3,1.06,1.06,0,0,0,0-.9.89.89,0,0,0-.29-.29,1.28,1.28,0,0,0-.43-.16,3,3,0,0,0-.54,0h-.89Z" fill="#19191d"/><path d="M275.08,27.08h2.63v.74h-3.45v-5.9h.82Z" fill="#19191d"/><path d="M285.06,24.86a3.35,3.35,0,0,1-.23,1.25,3,3,0,0,1-.66,1,3,3,0,0,1-1,.64,3.51,3.51,0,0,1-2.5,0,2.87,2.87,0,0,1-1-.64,2.8,2.8,0,0,1-.65-1,3.17,3.17,0,0,1-.24-1.25,3.22,3.22,0,0,1,.24-1.26,2.76,2.76,0,0,1,.65-1,2.85,2.85,0,0,1,1-.63,3.66,3.66,0,0,1,2.5,0,3,3,0,0,1,1,.63,2.92,2.92,0,0,1,.66,1A3.4,3.4,0,0,1,285.06,24.86Zm-.89,0A2.49,2.49,0,0,0,284,24a2.16,2.16,0,0,0-.45-.76,2.26,2.26,0,0,0-.7-.51,2.34,2.34,0,0,0-.93-.19,2.26,2.26,0,0,0-.92.19,2.15,2.15,0,0,0-.7.51,2.51,2.51,0,0,0-.45.76,2.71,2.71,0,0,0-.15.91,2.83,2.83,0,0,0,.15.93,2.46,2.46,0,0,0,.45.75,2.19,2.19,0,0,0,.7.5,2.13,2.13,0,0,0,.92.19,2.1,2.1,0,0,0,.92-.19,2,2,0,0,0,.71-.5,2.12,2.12,0,0,0,.45-.75A2.6,2.6,0,0,0,284.17,24.86Z" fill="#19191d"/><path d="M287.84,27.82H287v-5.9h1.89a3.59,3.59,0,0,1,.81.09,1.83,1.83,0,0,1,.67.28,1.28,1.28,0,0,1,.45.5,1.5,1.5,0,0,1,.17.76,1.42,1.42,0,0,1-.4,1.05,1.84,1.84,0,0,1-1,.51l1.65,2.71h-1l-1.5-2.63h-.89Zm0-3.32h1a3.12,3.12,0,0,0,.55-.05,1.37,1.37,0,0,0,.43-.16.84.84,0,0,0,.3-.29.88.88,0,0,0,.11-.45.84.84,0,0,0-.11-.44.81.81,0,0,0-.29-.29,1.31,1.31,0,0,0-.42-.16,2.78,2.78,0,0,0-.51,0h-1Z" fill="#19191d"/><path d="M293.79,27.08h3.09v.74H293v-5.9h3.78v.72h-3v1.77h2.79v.71h-2.79Z" fill="#19191d"/><path d="M304,21.52l3.52,2.58v.67L304,27.35v-1l2.65-2-2.65-2Z" fill="#19191d"/></g></g><g id="Layer_9" data-name="Layer 9"><rect x="10.97" y="25.98" width="13.11" height="13.11" fill="#f48120"/><path d="M23,38.45a.37.37,0,1,1,.37.37A.37.37,0,0,1,23,38.45Zm.37.31a.31.31,0,1,0-.3-.31A.3.3,0,0,0,23.41,38.76Zm-.08-.1h-.06v-.42h.16c.1,0,.15,0,.15.12a.1.1,0,0,1-.11.11l.12.19h-.07l-.11-.18h-.08Zm.08-.24c.06,0,.1,0,.1-.07s0-.06-.09-.06h-.09v.13Z" fill="#fff"/><path d="M13.88,36.36l-.34.34-.23-.23.34-.34-.88-.88c-.14-.14-.16-.17-.34-.07a.15.15,0,0,1-.18,0,.19.19,0,0,1,0-.27l1.09-1.09s.15-.13.26,0a.14.14,0,0,1,0,.19c-.09.18-.06.19.08.34l2,2c.14.14.16.17.34.07a.17.17,0,0,1,.19,0c.11.12,0,.25,0,.27l-1.1,1.09s-.15.13-.26,0a.16.16,0,0,1,0-.19c.09-.18.07-.19-.08-.34ZM11,36.19l.93-.93s.15-.13.26,0a.14.14,0,0,1,0,.19c-.09.18-.06.19.08.34l2,2c.14.14.16.17.34.07a.17.17,0,0,1,.19,0c.11.11,0,.25,0,.27l-.94.93h-.44c.09-.18.07-.2-.08-.34l-2-2c-.15-.14-.17-.17-.34-.07h0Z" fill="#fff"/><path d="M14.92,32.58a.35.35,0,0,0,.08.47l2,2a.39.39,0,0,0,.48.08l.22.22a1.9,1.9,0,0,1-2.7-.3,1.92,1.92,0,0,1-.31-2.71ZM17.65,35a.36.36,0,0,0-.08-.48l-2-2a.38.38,0,0,0-.48-.09l-.22-.22a1.9,1.9,0,0,1,2.7.3,1.92,1.92,0,0,1,.31,2.71Z" fill="#fff"/><path d="M21.92,30.79a.16.16,0,0,0-.19,0c-.18.09-.2.07-.34-.08l-2-2c-.14-.15-.17-.17-.08-.34a.14.14,0,0,0,0-.19c-.11-.11-.24,0-.26,0l-1,1,.84,1.54h0L17.21,30l-1,1c-.05,0-.17.16-.05.28s.21,0,.26,0,.13,0,.22,0a1.22,1.22,0,0,1,.24.1l3.2,1.59.11-.11-1.56-2.9,1.79,1.8c.15.14.17.16.08.34a.16.16,0,0,0,0,.19c.11.11.25,0,.26,0l1.1-1.1S22,30.9,21.92,30.79Z" fill="#fff"/><path d="M18.9,32.83l-.67-.66-.85-.42h0l1.3,1.31c.42.54,0,.64.19.81s.27,0,.32-.09l.44-.44c0-.05.2-.2.08-.32S19.44,33.26,18.9,32.83Z" fill="#fff"/><path d="M19.43,27.73l1-1,2.89,2.9-1,1s-.16.13-.27,0a.16.16,0,0,1,0-.19c.1-.18.07-.2-.07-.34l-2-2c-.15-.14-.17-.17-.34-.08a.15.15,0,0,1-.19,0C19.3,27.88,19.42,27.75,19.43,27.73ZM21.79,26l.48.48s.09.1,0,.22-.12,0-.2,0a1.06,1.06,0,0,0-1.19.08l-.23-.22.56-.56Zm2.29,2.89-.56.56-.23-.22a1.12,1.12,0,0,0,.1-1.22c0-.08-.07-.17,0-.24a.16.16,0,0,1,.24,0l.45.45Zm-2.16-1a.59.59,0,0,0-.07-.61c-.05-.08-.09-.17,0-.25s.24,0,.27.07l.84.84s.19.15.07.27-.17,0-.25,0a.59.59,0,0,0-.61-.07Z" fill="#fff"/><path d="M16.79,36.88a1.16,1.16,0,0,1,1.63,1.63l-.12-.12c.11-.15,0-.28-.09-.37l-.93-.92c-.08-.09-.21-.2-.36-.09Z" fill="#fff"/><path d="M17.59,39.09s0,0,0-.05,0-.11-.06-.14l-1.14-1.14s-.09-.1-.14-.07-.11.07-.16,0,0-.12,0-.16L16.7,37l1.62,1.63-.47.48Z" fill="#fff"/><path d="M17.61,36.07l.57-.57,1.63,1.63-.58.57s-.08.08-.14,0a.07.07,0,0,1,0-.1c.06-.1,0-.11,0-.19l-1.14-1.14c-.08-.08-.09-.1-.19-.05a.09.09,0,0,1-.11,0C17.53,36.16,17.6,36.08,17.61,36.07Zm.67-.67.48-.48.44.44s.06,0,0,.12-.07,0-.11,0a.61.61,0,0,0-.68.05Zm1.5,1.5a.62.62,0,0,0,0-.68s0-.1,0-.14a.09.09,0,0,1,.14,0l.44.44-.5.5ZM19,36.13a.34.34,0,0,0,0-.35.11.11,0,0,1,0-.14c.07-.06.14,0,.16,0l.47.47s.1.09,0,.15-.09,0-.14,0a.35.35,0,0,0-.34,0Z" fill="#fff"/><path d="M19.6,34.08a1.13,1.13,0,0,1,.51-.35.63.63,0,0,1,.65.19.66.66,0,0,1,.2.65,1.26,1.26,0,0,1-.35.51L20.48,35c.11-.16,0-.25-.08-.36l-.33-.33c-.1-.09-.21-.16-.34-.07Zm-.38.87c-.09-.08-.1-.09-.2,0a.08.08,0,0,1-.1,0,.1.1,0,0,1,0-.15l.58-.57,1.38,1.38c.08.08.09.09.19,0a.09.09,0,0,1,.11,0c.06.07,0,.14,0,.15l-.61.62a.08.08,0,0,1-.13,0,.08.08,0,0,1,0-.1c.05-.1,0-.1-.05-.18Z" fill="#fff"/><path d="M21,32.89a.2.2,0,0,0,.05.26l1.12,1.13a.22.22,0,0,0,.27,0l.13.12a1.23,1.23,0,0,1-1.69-1.69Zm1.54,1.34a.2.2,0,0,0-.05-.27l-1.12-1.13a.21.21,0,0,0-.27,0L21,32.66a1.09,1.09,0,0,1,1.53.17,1.07,1.07,0,0,1,.17,1.52Z" fill="#fff"/><path d="M24.08,32.86l-.52.52s-.09.07-.15,0a.09.09,0,0,1,0-.11c.05-.1,0-.11,0-.19L22,31.71l.53-.53,1.39,1.38c.08.08.09.1.19,0Zm-.66-1.59a.09.09,0,0,1,0,.14c-.06.06-.13,0-.18,0a.68.68,0,0,0-.5-.17l-.13-.13.31-.31Zm-1.86.85.31-.31.13.12a.71.71,0,0,0,.18.51c0,.05.08.12,0,.18a.09.09,0,0,1-.13,0Z" fill="#fff"/><path d="M12.54,30.94l.5-.5,1.3,1.3c.08.08.09.09.18,0a.11.11,0,0,1,.1,0,.1.1,0,0,1,0,.14l-.58.58s-.08.07-.14,0,0-.06,0-.1,0-.1,0-.18Zm1.37-.41a.1.1,0,0,1,0,.13c-.06.06-.12,0-.18,0a.65.65,0,0,0-.47-.17l-.12-.12.3-.29Zm-1.76.8.3-.29.12.11a.67.67,0,0,0,.16.48c0,.05.09.11,0,.17a.09.09,0,0,1-.13,0Z" fill="#fff"/><path d="M15.41,30.68c.07.08.08.09.18,0a.08.08,0,0,1,.1,0c.06.06,0,.13,0,.14l-.58.58a.09.09,0,0,1-.13,0,.08.08,0,0,1,0-.1c0-.09,0-.1,0-.18l-1.07-1.07c-.07-.08-.08-.09-.18,0a.08.08,0,0,1-.1,0c-.06-.06,0-.13,0-.14l.57-.58s.08-.07.14,0a.08.08,0,0,1,0,.1c0,.09,0,.1,0,.18Zm-.22-.76L15,30.1,14.89,30l.18-.18-.46-.46c-.08-.08-.09-.09-.18,0a.11.11,0,0,1-.1,0,.1.1,0,0,1,0-.14l.58-.58s.08-.07.14,0a.11.11,0,0,1,0,.1c-.05.09,0,.1,0,.18l1.07,1.07c.07.07.08.09.18,0a.08.08,0,0,1,.1,0c.06.06,0,.13,0,.14l-.58.58s-.08.07-.14,0a.08.08,0,0,1,0-.1c0-.1,0-.11,0-.18Z" fill="#fff"/><path d="M15.22,28.27l.54-.54,1.53,1.53-.54.54s-.08.07-.14,0a.08.08,0,0,1,0-.1c0-.1,0-.11,0-.18l-1.07-1.07c-.08-.08-.09-.09-.18,0a.11.11,0,0,1-.1,0C15.15,28.35,15.21,28.28,15.22,28.27Zm.63-.63.46-.46.41.41a.08.08,0,0,1,0,.12.09.09,0,0,1-.11,0,.56.56,0,0,0-.63,0Zm1.41,1.41a.59.59,0,0,0,0-.65s0-.09,0-.12a.08.08,0,0,1,.13,0l.41.4-.47.48Zm-.73-.73a.29.29,0,0,0,0-.32c0-.05-.05-.09,0-.14s.13,0,.15,0l.44.44s.1.08,0,.14-.09,0-.14,0a.29.29,0,0,0-.32,0Z" fill="#fff"/><path d="M11.29,23.48h1.09v.27h-.77v.32h.71v.25h-.71v.35h.79v.27H11.29Z" fill="#fff"/><path d="M12.81,24.39l-.34-.5h.33l.18.27.19-.27h.32l-.35.49.39.56H13.2L13,24.61l-.22.33h-.33Z" fill="#fff"/><path d="M14.32,24.26a.19.19,0,0,0-.21-.18c-.19,0-.25.19-.25.34s.06.33.24.33a.22.22,0,0,0,.23-.21h.28a.47.47,0,0,1-.51.43.51.51,0,0,1-.53-.54.52.52,0,0,1,.54-.57.45.45,0,0,1,.5.4Z" fill="#fff"/><path d="M14.74,23.48H15v1.46h-.29Z" fill="#fff"/><path d="M16.21,24.94h-.27V24.8h0a.36.36,0,0,1-.32.17c-.31,0-.39-.17-.39-.43v-.65h.29v.59c0,.18.05.26.19.26s.22-.08.22-.3v-.55h.29Z" fill="#fff"/><path d="M16.62,24.6c0,.13.11.18.22.18s.19,0,.19-.14-.12-.11-.33-.16-.33-.1-.33-.28.23-.34.46-.34.44.08.46.34H17c0-.12-.1-.15-.2-.15s-.16,0-.16.1.16.12.33.16.33.1.33.3-.24.36-.48.36-.49-.09-.5-.37Z" fill="#fff"/><path d="M17.75,23.72h-.29v-.24h.29Zm-.29.17h.29v1.05h-.29Z" fill="#fff"/><path d="M18.52,24.94H18.2l-.36-1.05h.3l.22.72h0l.22-.72h.29Z" fill="#fff"/><path d="M19.2,24.49c0,.18.1.26.26.26a.26.26,0,0,0,.23-.13h.25a.46.46,0,0,1-.49.35.51.51,0,0,1-.54-.55.53.53,0,1,1,1.05.07Zm.47-.19c0-.14-.09-.22-.23-.22a.23.23,0,0,0-.24.22Z" fill="#fff"/><path d="M20.1,23.48h.29v1.46H20.1Z" fill="#fff"/><path d="M21.1,25.08a.33.33,0,0,1-.36.24h-.18v-.24h.17a.14.14,0,0,0,.1-.2l-.37-1h.31l.24.72h0l.23-.72h.3Z" fill="#fff"/><path d="M22.11,24.21c0-.27.26-.35.5-.35s.47.05.47.3v.55a.63.63,0,0,0,0,.23h-.29a.3.3,0,0,1,0-.1.47.47,0,0,1-.36.13c-.2,0-.36-.1-.36-.31s.18-.3.36-.32.35,0,.35-.14-.09-.15-.19-.15a.18.18,0,0,0-.2.16Zm.68.22a.76.76,0,0,1-.25.06c-.09,0-.17.05-.17.15s.09.14.18.14a.22.22,0,0,0,.24-.24Z" fill="#fff"/><path d="M23.63,23.89h.21v.19h-.21v.53c0,.09,0,.12.12.12h.09V25h-.17c-.18,0-.33,0-.33-.25v-.63h-.18v-.19h.18v-.32h.29Z" fill="#fff"/></g><g id="Layer_6" data-name="Layer 6"><path d="M177.37,10.89a.64.64,0,0,1,0,.36,1.46,1.46,0,0,1-.62.29,9.51,9.51,0,0,0-1.66.58c-.35.23-.89.54-1,.65s-.24.16-.27.29a2.92,2.92,0,0,0,.55,1.31,5.25,5.25,0,0,1,.59.21c.14.08.21.31.07.31h-1.27c-.19,0-.43-.49-1.27-1-.18-.06-.27.09-.33.16a.61.61,0,0,0-.13.27c0,.11.33.13.48.19a.37.37,0,0,1,.17.18.11.11,0,0,1-.1.16h-1c-.1,0-.16,0-.26-.24a2.22,2.22,0,0,1-.11-.25c-.12-.33,0-.64.07-1-.08-.1-.2-.08-.36-.07a1.49,1.49,0,0,0-.66.15c-.13.1,0,.33.06.46s.16.44.36.47a.69.69,0,0,1,.46.24.14.14,0,0,1,0,.07c0,.12,0,.16-.16.15h-1.1c-.13,0-.52-.58-1.11-.92a.93.93,0,0,0-.53.27c-.07.07-.14.14-.08.21s.13.05.25.08a.34.34,0,0,1,.25.2s0,.16-.05.16h-1.34a.14.14,0,0,1-.12-.07,2,2,0,0,1,.08-.77c.07-.27.26-.67.29-.81a7.11,7.11,0,0,0-.31-1c-.08-.25-.25-.82-.12-1a2.68,2.68,0,0,1,1.6-1.64,3.14,3.14,0,0,1,1.26,0,11.34,11.34,0,0,0,1.24.12,8.62,8.62,0,0,0,2.11-.14,13.37,13.37,0,0,1,1.58.3c.14,0,.19-.2.33-.11s.28.27.46.18a.11.11,0,0,1,.13,0,2.12,2.12,0,0,0,.26.26c.1.07.54.13.68.35S177.14,10.77,177.37,10.89Z" fill="#231f20"/><path d="M176,14.41c0-.06-.06-.07-.12-.07h-.1v.16h.09C175.89,14.5,176,14.49,176,14.41Zm-.1-.14q.18,0,.18.15c0,.09-.06.13-.14.14l.15.22H176l-.13-.22h-.09v.22h-.08v-.51Z" fill="#231f20"/><path d="M175.82,14.16a.37.37,0,1,0,.36.37A.36.36,0,0,0,175.82,14.16Zm-.45.37a.45.45,0,1,1,.45.44A.45.45,0,0,1,175.37,14.53Z" fill="#231f20"/><path d="M166.85,14.89H165a.53.53,0,0,1-.2-.16,2.6,2.6,0,0,1-.52-1.72c0-.63-.45-1.65-1.32-1.65h-.67v3.53h-1.78V6.33h1.78V7.61a2.4,2.4,0,0,1,.52-.68,2.44,2.44,0,0,1,.64-.5,3.52,3.52,0,0,1,1.18.1A2.59,2.59,0,0,1,166.31,9,2.74,2.74,0,0,1,165.24,11s-.1.08-.05.14a3.44,3.44,0,0,1,.46.75c.28.69.15,1.57.56,2.2A2.42,2.42,0,0,0,166.85,14.89Zm-2.92-5.15A.74.74,0,0,0,164.6,9a.68.68,0,0,0-.67-.74h-1.68V9.74Z" fill="#231f20"/><path d="M160.09,6.33v8.56h-1.83V11.38H156s0,0,0,0v3.51h-1.82V6.33H156V9.7h2.27V6.33Z" fill="#231f20"/><path d="M156,11.38s0,0,0,0Z" fill="#231f20"/><path d="M153.79,6.33V8.1h-3.26V9.71h2.71v1.67h-2.71v1.91h3.26v1.6h-5V6.33h1.74V7.71a2.39,2.39,0,0,1,.49-.79,1.92,1.92,0,0,1,.69-.59Z" fill="#231f20"/><path d="M147.32,6.86a2.61,2.61,0,0,1,1,2.64,2.68,2.68,0,0,1-.53,1.1v.06a2.88,2.88,0,0,1,.46.84,2.59,2.59,0,0,1-2.51,3.39h-3.2V6.33h1.8V7.71a2.3,2.3,0,0,1,.43-.75,2.26,2.26,0,0,1,.61-.54A2.68,2.68,0,0,1,147.32,6.86Zm-1.42,6.38a.83.83,0,0,0,.83-.93.81.81,0,0,0-.83-.91h-1.52v1.84Zm.78-4.34a.76.76,0,0,0-.81-.79h-1.49V9.69h1.49A.77.77,0,0,0,146.68,8.9Z" fill="#231f20"/><path d="M108.22,27.61a4.36,4.36,0,0,1,4.4-4.57,3.92,3.92,0,0,1,3.07,1.39l-.33.29a3.52,3.52,0,0,0-2.74-1.28,3.93,3.93,0,0,0-3.94,4.17,3.94,3.94,0,0,0,3.94,4.16,3.52,3.52,0,0,0,2.74-1.28l.35.28a3.93,3.93,0,0,1-3.09,1.4A4.36,4.36,0,0,1,108.22,27.61Z" fill="#231f20"/><path d="M122.29,23c2.55,0,4.19,2,4.19,4.57s-1.64,4.56-4.19,4.56-4.19-2-4.19-4.56S119.72,23,122.29,23Zm0,.4c-2.29,0-3.73,1.75-3.73,4.17s1.44,4.16,3.73,4.16S126,30,126,27.61,124.55,23.44,122.29,23.44Z" fill="#231f20"/><path d="M129.56,23.19H130v8.43h4.43V32h-4.85Z" fill="#231f20"/><path d="M140.58,23c2.55,0,4.19,2,4.19,4.57s-1.64,4.56-4.19,4.56-4.2-2-4.2-4.56S138,23,140.58,23Zm0,.4c-2.29,0-3.74,1.75-3.74,4.17s1.45,4.16,3.74,4.16,3.73-1.77,3.73-4.16S142.84,23.44,140.58,23.44Z" fill="#231f20"/><path d="M150.39,28.2h-2.12V32h-.42V23.19h3a2.51,2.51,0,1,1,0,5L153.62,32h-.55Zm.5-4.61h-2.62v4.22h2.62a2.11,2.11,0,1,0,0-4.22Z" fill="#231f20"/><path d="M159.89,24.55h-2.67V23.19h6.89v1.36h-2.67V32h-1.55Z" fill="#231f20"/><path d="M169.56,28.72H168V32h-1.55V23.19h3.87A2.68,2.68,0,0,1,173.24,26a2.48,2.48,0,0,1-2.09,2.6L173.3,32h-1.78Zm.58-4.17H168v2.81h2.11a1.41,1.41,0,1,0,0-2.81Z" fill="#231f20"/><path d="M175.84,23.19h6v1.36h-4.5v2.29h4.4V28.2h-4.4v2.45h4.5V32h-6Z" fill="#231f20"/><path d="M186.07,25.58V32h-1.54V23.19h1.58l4.52,6.26V23.19h1.54V32h-1.49Z" fill="#231f20"/><path d="M195.1,23.19h3.29a4.41,4.41,0,1,1,0,8.82H195.1Zm3.29,7.46a2.9,2.9,0,0,0,3-3,2.86,2.86,0,0,0-3-3.06h-1.74v6.1Z" fill="#231f20"/><path d="M205.64,29.58a3.81,3.81,0,0,0,2.8,1.22c1.26,0,1.77-.63,1.77-1.21,0-.79-.94-1-2-1.31-1.45-.35-3.14-.78-3.14-2.64,0-1.46,1.29-2.58,3.22-2.58a4.56,4.56,0,0,1,3.3,1.23l-.88,1.15a3.6,3.6,0,0,0-2.56-1c-.91,0-1.49.44-1.49,1.1s.9.91,1.94,1.18c1.46.37,3.19.82,3.19,2.74,0,1.47-1,2.72-3.41,2.72a4.74,4.74,0,0,1-3.59-1.4Z" fill="#231f20"/><path d="M143.91,43.29c1.64-1.21,2.13-1.63,2.13-2.12s-.32-.53-.66-.53a1.45,1.45,0,0,0-1.07.47l-.49-.57a2,2,0,0,1,1.55-.65,1.36,1.36,0,0,1,1.53,1.28c0,.68-.56,1.28-1.64,2h1.67V44h-3Z" fill="#231f20"/><path d="M155.61,39.89c1.15,0,1.66,1,1.66,2.07S156.76,44,155.61,44,154,43,154,42,154.46,39.89,155.61,39.89Zm0,.75c-.58,0-.79.58-.79,1.32s.21,1.32.79,1.32.79-.58.79-1.32S156.18,40.64,155.61,40.64Z" fill="#231f20"/><path d="M164.27,43.29c1.64-1.21,2.12-1.63,2.12-2.12s-.32-.53-.65-.53a1.48,1.48,0,0,0-1.08.47l-.48-.57a2,2,0,0,1,1.54-.65c.86,0,1.54.48,1.54,1.28s-.57,1.28-1.64,2h1.67V44h-3Z" fill="#231f20"/><path d="M175.33,41.05l-.67.68-.49-.51L175.43,40h.75v4h-.85Z" fill="#231f20"/></g></g></svg>