<svg xmlns="http://www.w3.org/2000/svg" viewBox="0 0 320 50"><title>overlay</title><g id="Layer_2" data-name="Layer 2"><g id="rect"><rect width="320" height="50" fill="none"/></g><g id="Layer_8" data-name="Layer 8"><g id="Layer_2_Image" data-name="Layer 2 Image"><path d="M174.78,17h.07v-.21h.09l.13.21h.08l-.13-.21a.13.13,0,0,0,.1-.13c0-.1-.05-.14-.16-.14h-.18Zm.15-.27h-.08v-.15h.1s.1,0,.1.08,0,.07-.12.07Z"/><path d="M174.94,16.4h0a.4.4,0,1,0,.41.38A.39.39,0,0,0,174.91,16.4Zm.32.4a.33.33,0,1,1-.33-.33A.32.32,0,0,1,175.26,16.8Z"/><path d="M176,13.51a.62.62,0,0,1,0,.33,1.11,1.11,0,0,1-.58.27,8.05,8.05,0,0,0-1.52.54c-.31.2-.83.49-1,.6s-.22.16-.25.27a2.55,2.55,0,0,0,.52,1.2c.13.05.42.11.55.18s.2.29.07.29h-1.18c-.18,0-.4-.45-1.18-.89-.15-.07-.24.09-.29.16s-.13.17-.13.24.31.11.45.18a.28.28,0,0,1,.15.15.11.11,0,0,1,0,.14.1.1,0,0,1-.07,0h-1c-.09,0-.15,0-.24-.22a1.06,1.06,0,0,1-.09-.25,1.8,1.8,0,0,1,.06-.89c-.08-.09-.17-.09-.33-.07a1.52,1.52,0,0,0-.63.14c-.11.09,0,.31.07.42s.16.4.34.45a.58.58,0,0,1,.42.22.06.06,0,0,1,0,.07c0,.11,0,.15-.15.13h-1c-.13,0-.47-.53-1-.85a.92.92,0,0,0-.49.25c-.07.07-.13.13-.07.2s.14,0,.23.06A.26.26,0,0,1,168,17s.05.16,0,.16H166.7a.12.12,0,0,1-.11-.07,2.12,2.12,0,0,1,.06-.71c.07-.25.25-.63.27-.76a5.3,5.3,0,0,0-.29-1c-.06-.23-.22-.76-.11-1A2.52,2.52,0,0,1,168,12.21a2.88,2.88,0,0,1,1.17,0,8.48,8.48,0,0,0,1.13.11,8,8,0,0,0,2-.13,10.61,10.61,0,0,1,1.47.29c.13,0,.18-.18.29-.11s.25.24.42.15.09,0,.11,0a1.88,1.88,0,0,0,.25.24c.09.07.49.12.62.34S175.8,13.39,176,13.51Z"/><path d="M166.31,17.19h-1.74a.4.4,0,0,1-.18-.16,2.42,2.42,0,0,1-.49-1.58c0-.59-.42-1.52-1.23-1.52h-.62v3.26h-1.66V9.29H162v1.18a2.36,2.36,0,0,1,.5-.63,2.65,2.65,0,0,1,.58-.47,3.91,3.91,0,0,1,1.08.09,2.41,2.41,0,0,1,1.58,2.26,2.45,2.45,0,0,1-1,1.89c-.05,0-.09.07-.05.14a3.07,3.07,0,0,1,.43.69c.26.65.13,1.45.51,2A2.88,2.88,0,0,0,166.31,17.19Zm-2.68-4.75a.69.69,0,0,0,.63-.72.65.65,0,0,0-.6-.68h-1.59v1.4Z"/><path d="M160.08,9.29v7.9h-1.69V14h-2.1s0,0,0,0v3.24h-1.68V9.29h1.68v3.1h2.1V9.29Z"/><path d="M154.26,9.29v1.63h-3v1.49h2.5V14h-2.5v1.77h3v1.47h-4.62V9.29h1.6v1.27a2.12,2.12,0,0,1,.45-.73,2,2,0,0,1,.63-.56Z"/><path d="M148.3,9.78a2.36,2.36,0,0,1,.47,3.44v.06a2.83,2.83,0,0,1,.42.76,2.4,2.4,0,0,1-1.55,3,2.87,2.87,0,0,1-.77.11l-2.94,0V9.29h1.65v1.27a2.52,2.52,0,0,1,1-1.2A2.74,2.74,0,0,1,148.3,9.78ZM147,15.67a.75.75,0,0,0,.76-.85A.75.75,0,0,0,147,14h-1.41v1.7Zm.72-4a.7.7,0,0,0-.76-.72h-1.37v1.43h1.37a.71.71,0,0,0,.76-.71Z"/></g><g id="Layer_10" data-name="Layer 10"><path d="M112.16,28.49a4,4,0,0,1,4.07-4.21,3.61,3.61,0,0,1,2.83,1.28l-.31.27a3.25,3.25,0,0,0-2.52-1.19,3.63,3.63,0,0,0-3.64,3.85,3.63,3.63,0,0,0,3.64,3.85,3.24,3.24,0,0,0,2.52-1.18l.32.25a3.62,3.62,0,0,1-2.84,1.3A4,4,0,0,1,112.16,28.49Z"/><path d="M125.16,24.28A3.9,3.9,0,0,1,129,28.49a3.88,3.88,0,1,1-7.74,0A3.89,3.89,0,0,1,125.16,24.28Zm0,.36c-2.12,0-3.45,1.62-3.45,3.85s1.33,3.85,3.45,3.85,3.44-1.64,3.44-3.85S127.25,24.64,125.16,24.64Z"/><path d="M131.88,24.41h.38v7.78h4.1v.37h-4.48Z"/><path d="M142.05,24.28a3.9,3.9,0,0,1,3.87,4.21,3.9,3.9,0,0,1-3.87,4.22c-2.35,0-3.86-1.86-3.86-4.22S139.68,24.28,142.05,24.28Zm0,.36c-2.11,0-3.44,1.62-3.44,3.85s1.33,3.85,3.44,3.85,3.45-1.64,3.45-3.85S144.15,24.64,142.05,24.64Z"/><path d="M151.11,29h-1.94v3.52h-.38V24.41h2.8a2.32,2.32,0,1,1,0,4.64l2.52,3.52h-.5Zm.46-4.25h-2.4v3.89h2.42a1.95,1.95,0,1,0,0-3.89Z"/><path d="M159.9,25.68h-2.46V24.42h6.36v1.26h-2.47v6.89H159.9Z"/><path d="M168.83,29.52h-1.41v3H166V24.41h3.58A2.47,2.47,0,0,1,172.23,27a2.29,2.29,0,0,1-1.94,2.4l2,3.2h-1.65Zm.54-3.85h-1.93v2.59h1.93a1.3,1.3,0,0,0,.14-2.59Z"/><path d="M174.64,24.41h5.58v1.27h-4.16V27.8h4.07v1.25h-4.07v2.26h4.16v1.26h-5.58Z"/><path d="M184.09,26.62v5.94h-1.43V24.41h1.47l4.16,5.78V24.41h1.43v8.15h-1.38Z"/><path d="M192.44,24.41h3a4.08,4.08,0,1,1,0,8.15h-3Zm3,6.89a2.67,2.67,0,0,0,2.8-2.55,1.13,1.13,0,0,0,0-.26,2.64,2.64,0,0,0-2.8-2.82h-1.6V31.3Z"/><path d="M202.17,30.32a3.52,3.52,0,0,0,2.58,1.13c1.16,0,1.64-.58,1.64-1.11,0-.74-.87-1-1.86-1.21-1.33-.33-2.89-.72-2.89-2.44,0-1.35,1.18-2.39,3-2.39a4.28,4.28,0,0,1,3.06,1.14l-.82,1.06a3.33,3.33,0,0,0-2.36-.93c-.84,0-1.38.39-1.38,1s.83.85,1.8,1.09c1.34.35,2.94.77,2.94,2.53,0,1.36-1,2.52-3.15,2.52a4.4,4.4,0,0,1-3.31-1.3Z"/><path d="M145.14,40.27c1.52-1.12,2-1.5,2-2s-.3-.48-.61-.48a1.31,1.31,0,0,0-1,.43l-.45-.53a1.85,1.85,0,0,1,1.43-.6,1.27,1.27,0,0,1,1.42,1.18c0,.63-.52,1.19-1.52,1.89h1.55v.69h-2.79Z"/><path d="M156,37.13c1.05,0,1.54.95,1.54,1.93S157,41,156,41s-1.55-1-1.55-1.93S154.88,37.13,156,37.13Zm0,.7c-.54,0-.74.53-.74,1.21s.2,1.22.74,1.22.72-.54.72-1.22S156.47,37.83,156,37.83Z"/><path d="M163.94,40.27c1.52-1.12,2-1.5,2-2s-.3-.48-.61-.48a1.28,1.28,0,0,0-1,.43l-.44-.53a1.85,1.85,0,0,1,1.43-.6,1.27,1.27,0,0,1,1.42,1.18c0,.63-.53,1.19-1.52,1.89h1.54v.69H164Z"/><path d="M174.16,38.2l-.63.63-.45-.47,1.16-1.16h.69v3.71h-.77Z"/></g><g id="Layer_13" data-name="Layer 13"><rect x="11.3" y="26.69" width="12.3" height="12.3" fill="#f48120"/><path d="M22.62,38.39a.36.36,0,1,1,.71,0,.36.36,0,0,1-.71,0Zm.36.29a.3.3,0,1,0,0-.59.31.31,0,0,0-.3.29h0a.29.29,0,0,0,.27.29Zm-.08-.09h-.06v-.4H23c.1,0,.15,0,.15.11a.11.11,0,0,1-.1.11h0l.11.18h-.06L23,38.41H22.9Zm.08-.23c.05,0,.09,0,.09-.06s0-.06-.08-.06H22.9v.12Z" fill="#fff"/><path d="M14,36.42l-.32.32-.21-.21.32-.32L13,35.39c-.13-.13-.15-.16-.31-.07a.15.15,0,0,1-.18,0c-.11-.11,0-.23,0-.25l1-1s.15-.13.25,0a.14.14,0,0,1,0,.17c-.09.17-.06.19.07.32l1.91,1.91c.13.13.15.16.32.07a.14.14,0,0,1,.17,0c.11.1,0,.23,0,.25l-1,1s-.14.13-.25,0a.15.15,0,0,1,0-.18c.09-.16.06-.18-.07-.31Zm-2.74-.15.88-.87s.14-.13.25,0a.15.15,0,0,1,0,.18c-.09.16-.07.18.07.31l1.9,1.91c.13.13.15.16.32.07a.15.15,0,0,1,.18,0c.1.1,0,.23,0,.25L14,39h-.41c.08-.17.06-.19-.08-.32l-1.9-1.9c-.13-.14-.15-.17-.32-.08h0Z" fill="#fff"/><path d="M15,32.88a.34.34,0,0,0,.07.46L17,35.21a.33.33,0,0,0,.46.08l.21.21a1.77,1.77,0,0,1-2.54-.29,1.79,1.79,0,0,1-.28-2.53Zm2.56,2.24a.35.35,0,0,0-.07-.46l-1.89-1.88a.33.33,0,0,0-.45-.07L15,32.5a1.77,1.77,0,0,1,2.53.28,1.81,1.81,0,0,1,.29,2.54Z" fill="#fff"/><path d="M21.58,31.2a.15.15,0,0,0-.18,0c-.17.09-.18.06-.32-.07l-1.9-1.9c-.14-.14-.16-.16-.08-.32a.15.15,0,0,0,0-.18c-.1-.1-.23,0-.24,0l-1,1,.78,1.45h0l-1.5-.73-.91.91c0,.05-.15.16,0,.27s.19,0,.24,0,.12,0,.21,0a.85.85,0,0,1,.22.09l3,1.49L20,33l-1.47-2.73L20.23,32c.13.14.16.16.07.32a.15.15,0,0,0,0,.18c.11.1.23,0,.25,0l1-1S21.68,31.31,21.58,31.2Z" fill="#fff"/><path d="M18.74,33.12l-.61-.62-.81-.4h0l1.23,1.23c.39.51,0,.6.17.75S19,34,19,34l.41-.41c0-.05.2-.19.08-.3S19.25,33.51,18.74,33.12Z" fill="#fff"/><path d="M19.24,28.33l1-.95,2.71,2.73-1,1s-.14.13-.24,0a.15.15,0,0,1,0-.18c.08-.16.06-.18-.08-.32l-1.9-1.9c-.13-.13-.15-.16-.32-.07a.12.12,0,0,1-.17,0C19.11,28.49,19.23,28.35,19.24,28.33Zm2.21-1.64.46.45a.15.15,0,0,1,0,.2c-.09.11-.12.05-.19,0a1,1,0,0,0-1.12.08l-.21-.21.47-.54Zm2.15,2.74-.52.52-.21-.21A1,1,0,0,0,23,28.6c0-.08-.06-.16,0-.23a.14.14,0,0,1,.2,0l0,0,.42.42Zm-2-1a.55.55,0,0,0-.06-.58c-.05-.07-.09-.16,0-.23s.23,0,.25.07l.79.78s.18.14.06.25-.15,0-.24,0a.54.54,0,0,0-.57-.07Z" fill="#fff"/><path d="M16.76,36.92a1,1,0,0,1,1.42.1,1,1,0,0,1,.15,1.37l0,.06-.12-.12c.1-.14,0-.26-.08-.34l-.88-.87c-.07-.08-.2-.19-.34-.08Z" fill="#fff"/><path d="M17.52,39v-.05s0-.1-.07-.13l-1.07-1.07s-.08-.09-.13-.06-.1.06-.15,0,0-.12,0-.15l.52-.53,1.53,1.53-.46.46Z" fill="#fff"/><path d="M17.53,36.16l.54-.54,1.53,1.53-.56.54s-.08.07-.14,0a.09.09,0,0,1,0-.1c.05-.09,0-.1,0-.18l-1.08-1.07c-.07-.08-.08-.09-.17,0a.09.09,0,0,1-.1,0C17.46,36.25,17.52,36.17,17.53,36.16Zm.63-.63.45-.46.42.42a.08.08,0,0,1,0,.11c-.05.06-.07,0-.11,0a.56.56,0,0,0-.63,0Zm1.41,1.41a.61.61,0,0,0,.05-.65s0-.09,0-.12a.07.07,0,0,1,.11,0l0,0,.41.41L19.7,37Zm-.73-.73a.31.31,0,0,0,0-.32s0-.09,0-.14.12,0,.14,0l.45.46s.1.08,0,.14-.09,0-.13,0a.3.3,0,0,0-.33,0Z" fill="#fff"/><path d="M19.4,34.28a1.1,1.1,0,0,1,.48-.32.67.67,0,0,1,.79.53.57.57,0,0,1,0,.26,1,1,0,0,1-.33.46l-.11-.12c.1-.14,0-.24-.08-.34l-.31-.3c-.09-.1-.19-.16-.32-.07Zm-.36.83c-.08-.08-.09-.09-.18,0a.07.07,0,0,1-.1,0,.09.09,0,0,1,0-.13h0l.54-.54,1.3,1.29c.08.08.09.1.18,0a.07.07,0,0,1,.1,0c.06.06,0,.13,0,.14l-.58.57a.07.07,0,0,1-.12,0h0a.07.07,0,0,1,0-.09c.06-.1,0-.1-.05-.17Z" fill="#fff"/><path d="M20.7,33.17a.18.18,0,0,0,0,.25l1.05,1.06a.21.21,0,0,0,.26,0l.11.12a1.15,1.15,0,0,1-1.58-1.59Zm1.44,1.26a.21.21,0,0,0,0-.26L21,33.12a.19.19,0,0,0-.25,0L20.67,33a1.15,1.15,0,0,1,1.59,1.58Z" fill="#fff"/><path d="M23.6,33.14l-.49.49s-.08.07-.14,0a.09.09,0,0,1,0-.1c.05-.09,0-.1,0-.18l-1.3-1.3.5-.49,1.3,1.29c.08.08.08.09.18,0ZM23,31.65a.09.09,0,0,1,0,.12h0c-.06.06-.12,0-.17,0a.71.71,0,0,0-.46-.17l-.12-.12.3-.29Zm-1.75.8.29-.29.12.11a.71.71,0,0,0,.17.46c0,.05.07.11,0,.17a.09.09,0,0,1-.12,0h0Z" fill="#fff"/><path d="M12.77,31.35l.46-.46,1.22,1.22c.07.07.08.08.17,0a.07.07,0,0,1,.09,0c.06.05,0,.12,0,.13l-.54.54s-.08.07-.13,0a.07.07,0,0,1,0-.09c0-.09,0-.1,0-.17ZM14.06,31a.09.09,0,0,1,0,.12c-.06.05-.12,0-.16,0a.64.64,0,0,0-.46-.15l-.11-.11.28-.28Zm-1.65.75.28-.28.11.11A.59.59,0,0,0,13,32s.07.11,0,.16a.08.08,0,0,1-.12,0h0Z" fill="#fff"/><path d="M15.46,31.1c.08.07.08.08.17,0a.07.07,0,0,1,.1,0c0,.05,0,.12,0,.13l-.55.54a.08.08,0,0,1-.12,0h0a.06.06,0,0,1,0-.09c0-.09,0-.1-.05-.17l-1-1c-.07-.07-.08-.08-.17,0a.07.07,0,0,1-.09,0c-.06-.06,0-.13,0-.14l.54-.54a.09.09,0,0,1,.13,0,.08.08,0,0,1,0,.09c-.05.09,0,.1,0,.17Zm-.2-.72-.17.17L15,30.44l.17-.17-.46-.45c-.07-.07-.08-.08-.17,0a.07.07,0,0,1-.09,0c-.06-.05,0-.12,0-.13l.54-.54a.09.09,0,0,1,.13,0,.07.07,0,0,1,0,.09c0,.09,0,.1,0,.17l1,1c.07.07.08.09.17,0a.07.07,0,0,1,.09,0c.06.06,0,.12,0,.13l-.54.55a.09.09,0,0,1-.12,0h0a.09.09,0,0,1,0-.1c0-.09,0-.1,0-.16Z" fill="#fff"/><path d="M15.29,28.83l.51-.5,1.43,1.43-.51.51a.09.09,0,0,1-.13,0,.09.09,0,0,1,0-.1c.05-.08,0-.1,0-.17l-1-1c-.07-.07-.08-.09-.17,0a.09.09,0,0,1-.1,0C15.22,28.91,15.28,28.84,15.29,28.83Zm.59-.59.43-.43.39.39a.09.09,0,0,1,0,.11c0,.05-.07,0-.1,0a.53.53,0,0,0-.6,0Zm1.32,1.33a.55.55,0,0,0,.05-.61s0-.08,0-.12a.08.08,0,0,1,.11,0h0l.39.38-.46.46Zm-.68-.69a.27.27,0,0,0,0-.3s0-.09,0-.13a.1.1,0,0,1,.14,0l.41.42s.1.07,0,.13-.08,0-.13,0a.27.27,0,0,0-.3,0Z" fill="#fff"/><path d="M11.6,24.35h1.05v.25h-.72v.29h.66v.24h-.66v.34h.72v.25H11.6Z" fill="#fff"/><path d="M13,25.2l-.32-.46H13l.17.26.17-.26h.3l-.32.46.37.53H13.4l-.21-.32-.21.32h-.31Z" fill="#fff"/><path d="M14.44,25.07a.18.18,0,0,0-.19-.17h0c-.17,0-.23.18-.23.32s.06.32.23.32a.23.23,0,0,0,.22-.2h.26a.46.46,0,0,1-.46.4.48.48,0,0,1-.5-.46v-.05a.5.5,0,0,1,.44-.53h.07a.43.43,0,0,1,.46.37Z" fill="#fff"/><path d="M14.84,24.35h.28v1.37h-.28Z" fill="#fff"/><path d="M16.22,25.72H16v-.14h0a.35.35,0,0,1-.3.16c-.29,0-.36-.16-.36-.41v-.6h.27v.57c0,.17,0,.25.17.25s.22-.08.22-.29v-.52h.27Z" fill="#fff"/><path d="M16.6,25.39c0,.12.1.17.21.17s.18,0,.18-.13-.11-.11-.31-.15-.31-.09-.31-.26.21-.32.43-.32a.41.41,0,0,1,.46.31H17c0-.1-.09-.13-.19-.13s-.15,0-.15.09.15.11.31.15.31.09.31.28-.22.34-.45.34-.46-.08-.46-.35Z" fill="#fff"/><path d="M17.67,24.57H17.4v-.22h.27Zm-.27.16h.27v1H17.4Z" fill="#fff"/><path d="M18.39,25.72h-.3l-.35-1H18l.21.67h0l.21-.67h.27Z" fill="#fff"/><path d="M19,25.3a.22.22,0,0,0,.25.25.2.2,0,0,0,.21-.13h.24a.47.47,0,0,1-.46.34.49.49,0,0,1-.51-.46v-.06a.5.5,0,0,1,1-.06.49.49,0,0,1,0,.12Zm.46-.17c0-.14-.09-.21-.22-.21a.21.21,0,0,0-.23.2h.45Z" fill="#fff"/><path d="M19.87,24.35h.27v1.37h-.27Z" fill="#fff"/><path d="M20.81,25.84a.32.32,0,0,1-.34.23H20.3v-.23a.43.43,0,0,0,.16,0,.12.12,0,0,0,.11-.14s0,0,0,0l-.35-.91h.29l.23.67h0l.22-.67h.28Z" fill="#fff"/><path d="M21.78,25c0-.25.24-.33.45-.33s.46,0,.46.28v.52a.56.56,0,0,0,0,.22h-.27a.17.17,0,0,1,0-.1.44.44,0,0,1-.34.12.3.3,0,0,1-.34-.25v0c0-.23.17-.28.34-.3s.32,0,.32-.14-.08-.13-.17-.13-.17,0-.18.15Zm.63.2a.65.65,0,0,1-.23.06.14.14,0,0,0-.16.14c0,.1.08.13.17.13a.2.2,0,0,0,.22-.18v-.15Z" fill="#fff"/><path d="M23.18,24.73h.2v.18h-.2v.49c0,.09,0,.11.12.11h.08v.21a.43.43,0,0,1-.16,0c-.17,0-.31,0-.31-.24V24.9h-.17v-.18h.17v-.3h.27Z" fill="#fff"/></g></g><g id="CTA"><g id="Rounded_Rectangle_1" data-name="Rounded Rectangle 1"><rect x="251" y="17" width="61" height="15" rx="4" fill="#fff"/></g><g id="EXPLORE_" data-name="EXPLORE  &gt;"><path d="M257.11,27.08h3.09v.74h-3.91v-5.9h3.78v.72h-3v1.77h2.79v.71h-2.79Z" fill="#19191d"/><path d="M264.31,24.12l1.4-2.2h1l-1.88,2.79,2.14,3.11h-1l-1.62-2.49-1.58,2.49h-1l2.11-3.13-1.9-2.77h1Z" fill="#19191d"/><path d="M268.6,21.92h1.8a3.85,3.85,0,0,1,.86.09,2.07,2.07,0,0,1,.67.3,1.31,1.31,0,0,1,.42.51,1.89,1.89,0,0,1,0,1.5,1.39,1.39,0,0,1-.45.51,1.83,1.83,0,0,1-.68.3,3.38,3.38,0,0,1-.86.1h-.93v2.59h-.82Zm.82,2.61h.88a2.38,2.38,0,0,0,.55-.06,1.34,1.34,0,0,0,.44-.16.89.89,0,0,0,.28-.3,1.06,1.06,0,0,0,0-.9.89.89,0,0,0-.29-.29,1.28,1.28,0,0,0-.43-.16,3,3,0,0,0-.54,0h-.89Z" fill="#19191d"/><path d="M275.08,27.08h2.63v.74h-3.45v-5.9h.82Z" fill="#19191d"/><path d="M285.06,24.86a3.35,3.35,0,0,1-.23,1.25,3,3,0,0,1-.66,1,3,3,0,0,1-1,.64,3.51,3.51,0,0,1-2.5,0,2.87,2.87,0,0,1-1-.64,2.8,2.8,0,0,1-.65-1,3.17,3.17,0,0,1-.24-1.25,3.22,3.22,0,0,1,.24-1.26,2.76,2.76,0,0,1,.65-1,2.85,2.85,0,0,1,1-.63,3.66,3.66,0,0,1,2.5,0,3,3,0,0,1,1,.63,2.92,2.92,0,0,1,.66,1A3.4,3.4,0,0,1,285.06,24.86Zm-.89,0A2.49,2.49,0,0,0,284,24a2.16,2.16,0,0,0-.45-.76,2.26,2.26,0,0,0-.7-.51,2.34,2.34,0,0,0-.93-.19,2.26,2.26,0,0,0-.92.19,2.15,2.15,0,0,0-.7.51,2.51,2.51,0,0,0-.45.76,2.71,2.71,0,0,0-.15.91,2.83,2.83,0,0,0,.15.93,2.46,2.46,0,0,0,.45.75,2.19,2.19,0,0,0,.7.5,2.13,2.13,0,0,0,.92.19,2.1,2.1,0,0,0,.92-.19,2,2,0,0,0,.71-.5,2.12,2.12,0,0,0,.45-.75A2.6,2.6,0,0,0,284.17,24.86Z" fill="#19191d"/><path d="M287.84,27.82H287v-5.9h1.89a3.59,3.59,0,0,1,.81.09,1.83,1.83,0,0,1,.67.28,1.28,1.28,0,0,1,.45.5,1.5,1.5,0,0,1,.17.76,1.42,1.42,0,0,1-.4,1.05,1.84,1.84,0,0,1-1,.51l1.65,2.71h-1l-1.5-2.63h-.89Zm0-3.32h1a3.12,3.12,0,0,0,.55-.05,1.37,1.37,0,0,0,.43-.16.84.84,0,0,0,.3-.29.88.88,0,0,0,.11-.45.84.84,0,0,0-.11-.44.81.81,0,0,0-.29-.29,1.31,1.31,0,0,0-.42-.16,2.78,2.78,0,0,0-.51,0h-1Z" fill="#19191d"/><path d="M293.79,27.08h3.09v.74H293v-5.9h3.78v.72h-3v1.77h2.79v.71h-2.79Z" fill="#19191d"/><path d="M304,21.52l3.52,2.58v.67L304,27.35v-1l2.65-2-2.65-2Z" fill="#19191d"/></g></g></g></svg>