<svg xmlns="http://www.w3.org/2000/svg" viewBox="0 0 320 50"><title>overlay</title><g id="Layer_2" data-name="Layer 2"><g id="rect"><rect width="320" height="50" fill="none"/></g><g id="Layer_8" data-name="Layer 8"><path d="M176.52,11.79a.59.59,0,0,1,0,.32,1.25,1.25,0,0,1-.57.27,9,9,0,0,0-1.52.53c-.33.22-.83.5-1,.61s-.22.14-.25.27a2.76,2.76,0,0,0,.5,1.2,4,4,0,0,1,.55.19c.13.08.19.29.07.29H173.2c-.17,0-.4-.46-1.18-.89-.15-.05-.24.09-.29.15a.5.5,0,0,0-.13.25c0,.1.31.12.44.17a.33.33,0,0,1,.16.17.1.1,0,0,1-.09.15h-1c-.09,0-.15,0-.25-.22,0-.06-.06-.14-.09-.24a1.92,1.92,0,0,1,.06-.89c-.08-.1-.19-.08-.33-.07a1.4,1.4,0,0,0-.61.14c-.12.09,0,.3,0,.42s.16.4.34.43a.63.63,0,0,1,.42.22.14.14,0,0,1,0,.06q0,.16-.15.15h-1c-.12,0-.47-.53-1-.85a.94.94,0,0,0-.49.24c-.07.08-.13.14-.07.2s.12,0,.23.08a.3.3,0,0,1,.23.18s0,.15,0,.15H167.2a.12.12,0,0,1-.11-.07,1.91,1.91,0,0,1,.07-.71c.07-.24.25-.62.27-.74a6.12,6.12,0,0,0-.29-1c-.07-.23-.22-.75-.11-1a2.54,2.54,0,0,1,1.47-1.52,3.06,3.06,0,0,1,1.17,0c.32,0,.75.1,1.14.11a7.68,7.68,0,0,0,1.93-.13,11.42,11.42,0,0,1,1.46.28c.13,0,.17-.18.3-.1s.25.24.43.16a.09.09,0,0,1,.11,0,2.71,2.71,0,0,0,.24.24c.1.06.5.12.63.33S176.31,11.67,176.52,11.79Z" fill="#231f20"/><path d="M175.1,15.1c.06,0,.11,0,.11-.07s-.05-.07-.1-.07H175v.14Zm-.16.27V14.9h.18c.11,0,.17,0,.17.13a.12.12,0,0,1-.12.13l.13.21h-.08l-.12-.21H175v.21Z" fill="#231f20"/><path d="M175.51,15.13a.41.41,0,0,1-.82,0,.41.41,0,0,1,.82,0Zm-.08,0a.34.34,0,0,0-.33-.34.33.33,0,0,0-.33.34.32.32,0,0,0,.33.34A.33.33,0,0,0,175.43,15.13Z" fill="#231f20"/><path d="M166.85,15.46h-1.74a.42.42,0,0,1-.18-.14,2.44,2.44,0,0,1-.47-1.58c0-.58-.43-1.52-1.22-1.52h-.62v3.24H161V7.59h1.64V8.77a2.57,2.57,0,0,1,.48-.62,2,2,0,0,1,.59-.46,3.49,3.49,0,0,1,1.08.08A2.4,2.4,0,0,1,166.35,10a2.5,2.5,0,0,1-1,1.89s-.1.08-.06.13a2.66,2.66,0,0,1,.42.7c.27.63.15,1.43.53,2A2,2,0,0,0,166.85,15.46Zm-2.68-4.73a.67.67,0,0,0,.61-.72.61.61,0,0,0-.61-.68h-1.55v1.4Z" fill="#231f20"/><path d="M160.64,7.59v7.87H159V12.24h-2.09s0,0,0,0v3.22h-1.68V7.59h1.68V10.7H159V7.59Z" fill="#231f20"/><path d="M156.87,12.24s0,0,0,0Z" fill="#231f20"/><path d="M154.84,7.59V9.22h-3V10.7h2.5v1.54h-2.5V14h3v1.47h-4.61V7.59h1.6V8.87a2.34,2.34,0,0,1,.45-.73,1.68,1.68,0,0,1,.63-.55Z" fill="#231f20"/><path d="M148.9,8.08a2.41,2.41,0,0,1,.95,2.43,2.38,2.38,0,0,1-.49,1v.06a2.8,2.8,0,0,1,.43.77,2.38,2.38,0,0,1-2.31,3.11h-2.94V7.59h1.65V8.87a2.19,2.19,0,0,1,.4-.69,2,2,0,0,1,.56-.5A2.51,2.51,0,0,1,148.9,8.08ZM147.59,14a.76.76,0,0,0,.76-.86.74.74,0,0,0-.76-.83h-1.4V14Zm.71-4a.68.68,0,0,0-.74-.71h-1.37v1.44h1.37A.7.7,0,0,0,148.3,10Z" fill="#231f20"/><path d="M112.19,27.16a4,4,0,0,1,4-4.2,3.61,3.61,0,0,1,2.82,1.28l-.31.27a3.23,3.23,0,0,0-2.51-1.18,3.61,3.61,0,0,0-3.63,3.83A3.62,3.62,0,0,0,116.24,31a3.23,3.23,0,0,0,2.51-1.18l.32.25a3.59,3.59,0,0,1-2.83,1.29A4,4,0,0,1,112.19,27.16Z" fill="#231f20"/><path d="M125.12,23a3.89,3.89,0,0,1,3.86,4.2,3.88,3.88,0,0,1-3.86,4.19c-2.36,0-3.85-1.84-3.85-4.19S122.76,23,125.12,23Zm0,.37c-2.1,0-3.43,1.6-3.43,3.83S123,31,125.12,31s3.43-1.63,3.43-3.83S127.2,23.33,125.12,23.33Z" fill="#231f20"/><path d="M131.81,23.1h.39v7.74h4.07v.37h-4.46Z" fill="#231f20"/><path d="M141.94,23a3.89,3.89,0,0,1,3.85,4.2,3.87,3.87,0,1,1-7.71,0A3.88,3.88,0,0,1,141.94,23Zm0,.37c-2.11,0-3.43,1.6-3.43,3.83S139.83,31,141.94,31s3.43-1.63,3.43-3.83S144,23.33,141.94,23.33Z" fill="#231f20"/><path d="M151,27.71h-2v3.5h-.39V23.1h2.8a2.31,2.31,0,1,1,0,4.61l2.5,3.5h-.49Zm.46-4.25H149v3.88h2.41a1.94,1.94,0,1,0,0-3.88Z" fill="#231f20"/><path d="M159.7,24.35h-2.46V23.1h6.34v1.25h-2.46v6.86H159.7Z" fill="#231f20"/><path d="M168.58,28.18h-1.41v3h-1.42V23.1h3.56A2.46,2.46,0,0,1,172,25.64,2.28,2.28,0,0,1,170,28l2,3.19h-1.65Zm.54-3.83h-2v2.58h2a1.29,1.29,0,1,0,0-2.58Z" fill="#231f20"/><path d="M174.36,23.1h5.56v1.25h-4.14v2.1h4.05v1.26h-4.05V30h4.14v1.25h-5.56Z" fill="#231f20"/><path d="M183.77,25.3v5.91h-1.42V23.1h1.46L188,28.85V23.1h1.43v8.11H188Z" fill="#231f20"/><path d="M192.07,23.1h3a4.06,4.06,0,1,1,0,8.11h-3Zm3,6.86a2.67,2.67,0,0,0,2.78-2.8,2.63,2.63,0,0,0-2.78-2.81h-1.6V30Z" fill="#231f20"/><path d="M201.76,29a3.5,3.5,0,0,0,2.57,1.12c1.16,0,1.63-.57,1.63-1.11,0-.73-.87-.95-1.85-1.2-1.33-.33-2.88-.72-2.88-2.43,0-1.34,1.18-2.38,3-2.38a4.21,4.21,0,0,1,3,1.14l-.81,1.05a3.33,3.33,0,0,0-2.35-.92c-.84,0-1.37.4-1.37,1s.82.84,1.78,1.08c1.34.34,2.93.75,2.93,2.52,0,1.35-.94,2.5-3.13,2.5a4.33,4.33,0,0,1-3.3-1.29Z" fill="#231f20"/><path d="M144.62,41.57c1.51-1.11,1.95-1.49,1.95-2s-.29-.48-.6-.48a1.32,1.32,0,0,0-1,.43l-.45-.52a1.88,1.88,0,0,1,1.43-.61,1.26,1.26,0,0,1,1.41,1.18c0,.63-.52,1.18-1.51,1.88h1.54v.69h-2.78Z" fill="#231f20"/><path d="M155.38,38.44c1.05,0,1.52,1,1.52,1.91s-.47,1.91-1.52,1.91-1.53-1-1.53-1.91S154.32,38.44,155.38,38.44Zm0,.7c-.54,0-.73.53-.73,1.21s.19,1.21.73,1.21.72-.53.72-1.21S155.9,39.14,155.38,39.14Z" fill="#231f20"/><path d="M163.33,41.57c1.52-1.11,2-1.49,2-2s-.29-.48-.6-.48a1.32,1.32,0,0,0-1,.43l-.45-.52a1.87,1.87,0,0,1,1.42-.61,1.26,1.26,0,0,1,1.42,1.18c0,.63-.52,1.18-1.52,1.88h1.54v.69h-2.78Z" fill="#231f20"/><path d="M173.5,39.51l-.61.63-.45-.47,1.16-1.17h.69v3.69h-.79Z" fill="#231f20"/></g></g></svg>