<svg xmlns="http://www.w3.org/2000/svg" viewBox="0 0 160 600"><title>footer</title><g id="Layer_2" data-name="Layer 2"><g id="Layer_2-2" data-name="Layer 2"><g id="rect"><rect width="160" height="600" fill="none"/></g><g id="Layer_13" data-name="Layer 13"><rect x="133.48" y="570.48" width="18.27" height="18.27" fill="#f48120"/><path d="M150.31,587.86a.52.52,0,1,1,.52.52A.52.52,0,0,1,150.31,587.86Zm.52.43a.44.44,0,0,0,.45-.42.45.45,0,0,0-.43-.45.43.43,0,0,0-.44.42v0a.41.41,0,0,0,.39.43Zm-.11-.14h-.09v-.59h.22c.15,0,.22.05.22.17a.17.17,0,0,1-.15.17h0l.17.25H151l-.16-.25h-.1Zm.11-.33c.07,0,.14,0,.14-.09s-.07-.09-.13-.09h-.12v.18Z" fill="#fff"/><path d="M137.52,584.94l-.47.48-.31-.32.47-.47L136,583.4c-.19-.19-.22-.23-.47-.11a.19.19,0,0,1-.26,0c-.16-.15,0-.34,0-.36l1.52-1.52s.21-.19.37,0a.21.21,0,0,1,0,.26c-.13.25-.1.28.11.48l2.82,2.82c.2.2.23.24.48.11a.21.21,0,0,1,.26,0c.16.16,0,.35,0,.37L139.29,587s-.21.19-.37,0a.21.21,0,0,1,0-.26c.13-.24.09-.27-.1-.47Zm-4.06-.23,1.3-1.29s.21-.19.36,0a.21.21,0,0,1,0,.26c-.13.25-.09.28.11.47l2.83,2.83c.2.2.22.24.47.11a.23.23,0,0,1,.27,0c.15.16,0,.35,0,.37l-1.28,1.29h-.61c.13-.25.09-.28-.11-.47L134,585.45c-.2-.2-.22-.24-.47-.11h0Z" fill="#fff"/><path d="M139,579.67a.5.5,0,0,0,.11.68l2.79,2.79a.52.52,0,0,0,.68.12l.31.31a2.63,2.63,0,0,1-3.77-.43c-1.07-1.1-1.46-2.52-.42-3.76ZM142.8,583a.52.52,0,0,0-.11-.68l-2.8-2.79a.5.5,0,0,0-.68-.11l-.31-.31a2.64,2.64,0,0,1,3.77.42c1.05,1.11,1.46,2.53.42,3.77Z" fill="#fff"/><path d="M148.75,577.19a.2.2,0,0,0-.27,0c-.24.13-.27.09-.47-.11l-2.83-2.83c-.19-.2-.24-.23-.11-.47a.23.23,0,0,0,0-.27c-.15-.15-.34,0-.36,0l-1.43,1.43,1.17,2.15h0L142.22,576l-1.36,1.35c-.06.07-.22.23-.05.4s.28,0,.35-.06.19-.05.31,0a1.4,1.4,0,0,1,.34.13l4.46,2.22.15-.16-2.18-4.07,2.51,2.51c.19.2.23.23.11.47a.19.19,0,0,0,0,.26c.15.16.33,0,.36,0l1.52-1.51S148.9,577.34,148.75,577.19Z" fill="#fff"/><path d="M144.53,580l-.91-.92-1.19-.59h0l1.82,1.82c.59.76,0,.89.26,1.12s.38-.06.44-.12l.61-.61c.06-.07.29-.28.12-.44S145.29,580.62,144.53,580Z" fill="#fff"/><path d="M145.28,572.92l1.42-1.42,4,4.07L149.31,577s-.21.18-.37,0a.21.21,0,0,1,0-.26c.13-.25.1-.27-.1-.48L146,573.43c-.2-.2-.22-.24-.48-.11a.19.19,0,0,1-.26,0C145.09,573.16,145.26,572.94,145.28,572.92Zm3.28-2.44.68.67a.23.23,0,0,1,0,.3c-.13.17-.17.07-.28,0a1.46,1.46,0,0,0-1.66.11l-.32-.31.71-.8Zm3.2,4.06-.78.78-.31-.31a1.55,1.55,0,0,0,.12-1.69c0-.13-.09-.24,0-.34a.21.21,0,0,1,.3,0l0,0,.63.62Zm-3-1.45a.82.82,0,0,0-.09-.85c-.07-.12-.13-.24,0-.35s.33.05.37.1l1.17,1.16s.27.21.1.38-.23.06-.36,0a.76.76,0,0,0-.84-.1Z" fill="#fff"/><path d="M141.59,585.68c.51-.52,1.29-.6,2.11.15a1.45,1.45,0,0,1,.23,2l-.07.08-.18-.18c.16-.21,0-.39-.12-.5l-1.29-1.3c-.12-.11-.3-.28-.51-.11Z" fill="#fff"/><path d="M142.71,588.75v-.07c0-.07,0-.15-.09-.19L141,586.9s-.12-.14-.2-.1-.15.09-.22,0,0-.16,0-.22l.78-.78,2.27,2.27-.67.68Z" fill="#fff"/><path d="M142.74,584.55l.79-.8,2.28,2.27-.83.8s-.12.1-.21,0a.12.12,0,0,1,0-.14c.07-.15,0-.16-.06-.28l-1.6-1.58c-.1-.12-.12-.14-.26-.06a.14.14,0,0,1-.15,0C142.63,584.68,142.72,584.56,142.74,584.55Zm.93-.94.68-.68.62.62a.14.14,0,0,1,0,.16c-.07.09-.11,0-.17,0a.83.83,0,0,0-.93.07Zm2.09,2.1a.88.88,0,0,0,.08-1c0-.06-.05-.12,0-.18a.12.12,0,0,1,.16,0l0,0,.61.61-.68.68Zm-1.08-1.09a.43.43,0,0,0-.05-.47.17.17,0,0,1,0-.21c.07-.06.19,0,.21.06l.68.68s.15.12.06.21-.13,0-.2,0a.46.46,0,0,0-.48-.06Z" fill="#fff"/><path d="M145.52,581.76a1.75,1.75,0,0,1,.71-.49,1,1,0,0,1,1.18.8,1.21,1.21,0,0,1,0,.38,1.59,1.59,0,0,1-.49.68l-.18-.18c.15-.21,0-.34-.11-.49l-.47-.45c-.13-.15-.28-.24-.47-.11ZM145,583c-.12-.11-.13-.13-.27-.06a.12.12,0,0,1-.14,0,.14.14,0,0,1,0-.2h0l.79-.8,1.94,1.92c.11.12.13.14.26.06a.14.14,0,0,1,.15,0c.09.09,0,.2,0,.21l-.86.86a.13.13,0,0,1-.18,0h0a.1.1,0,0,1,0-.14c.07-.15,0-.15-.08-.26Z" fill="#fff"/><path d="M147.44,580.1a.27.27,0,0,0,.07.37l1.56,1.58a.3.3,0,0,0,.38.06l.17.17a1.7,1.7,0,0,1-2.36-.52,1.73,1.73,0,0,1,0-1.83Zm2.15,1.87a.29.29,0,0,0-.07-.37L148,580a.29.29,0,0,0-.38-.06l-.17-.18a1.71,1.71,0,0,1,2.36.52,1.74,1.74,0,0,1,0,1.84Z" fill="#fff"/><path d="M151.76,580.06l-.73.73s-.12.1-.21,0a.14.14,0,0,1,0-.15c.08-.13.06-.15-.06-.26l-1.93-1.93.74-.74,1.94,1.92c.1.12.12.14.26.06Zm-.92-2.21a.13.13,0,0,1,0,.18h0c-.08.09-.17,0-.25,0a1,1,0,0,0-.68-.25l-.17-.17.44-.44ZM148.25,579l.43-.44.18.17a1,1,0,0,0,.25.68c0,.08.11.17,0,.25a.13.13,0,0,1-.18,0h0Z" fill="#fff"/><path d="M135.67,577.4l.68-.68,1.82,1.81c.1.11.11.13.25.06a.11.11,0,0,1,.13,0c.08.08,0,.18,0,.19l-.8.81s-.12.1-.2,0a.12.12,0,0,1,0-.14c.07-.13,0-.14-.05-.25Zm1.91-.58a.15.15,0,0,1,0,.18c-.08.08-.17,0-.24,0a1,1,0,0,0-.68-.23l-.17-.16.42-.41Zm-2.44,1.11.4-.4.17.16a.9.9,0,0,0,.23.68c.06.07.12.16,0,.24a.11.11,0,0,1-.17,0h0Z" fill="#fff"/><path d="M139.66,577c.11.1.13.12.26.06a.1.1,0,0,1,.14,0c.08.08,0,.18,0,.19l-.81.81a.14.14,0,0,1-.18,0h0a.12.12,0,0,1,0-.14c.07-.13.05-.15-.06-.25l-1.49-1.5c-.11-.1-.12-.12-.25-.05a.12.12,0,0,1-.14,0c-.08-.08,0-.18,0-.2l.8-.8a.14.14,0,0,1,.2,0,.11.11,0,0,1,0,.13c-.08.14-.05.15,0,.25Zm-.29-1.06-.25.25-.17-.16.25-.26-.68-.67c-.11-.11-.12-.13-.25-.06a.1.1,0,0,1-.14,0c-.09-.08,0-.18,0-.19l.8-.81s.11-.1.19,0a.11.11,0,0,1,0,.13c-.07.14-.05.15.06.26l1.49,1.49c.11.11.12.13.25.06a.1.1,0,0,1,.14,0c.08.08,0,.18,0,.19l-.81.81a.13.13,0,0,1-.18,0h0a.1.1,0,0,1,0-.13c.07-.14.05-.15-.06-.26Z" fill="#fff"/><path d="M139.41,573.66l.75-.75,2.13,2.14-.75.75s-.11.1-.19,0a.1.1,0,0,1,0-.14c.06-.13,0-.15-.07-.26l-1.49-1.49c-.1-.11-.12-.13-.25-.06a.1.1,0,0,1-.14,0C139.31,573.78,139.39,573.68,139.41,573.66Zm.88-.88.63-.63.58.58a.12.12,0,0,1,0,.15c-.06.08-.09,0-.15,0a.79.79,0,0,0-.88.06Zm2,2a.8.8,0,0,0,.07-.9c0-.06,0-.12,0-.17a.12.12,0,0,1,.16,0l0,0,.57.57-.67.67Zm-1-1a.43.43,0,0,0-.06-.46c0-.06-.06-.12,0-.18s.18,0,.21,0l.61.62s.14.11.05.2-.12,0-.18,0a.43.43,0,0,0-.46-.06Z" fill="#fff"/><path d="M133.93,567h1.56v.37h-1.08v.44h1v.35h-1v.5h1.08V569h-1.56Z" fill="#fff"/><path d="M136.05,568.26l-.48-.68H136l.26.38.26-.38H137l-.48.68.55.79h-.47l-.3-.47-.31.47h-.46Z" fill="#fff"/><path d="M138.15,568.08a.27.27,0,0,0-.29-.25h0c-.26,0-.35.25-.35.47s.09.47.34.47a.32.32,0,0,0,.32-.3h.39a.67.67,0,0,1-.68.6.71.71,0,0,1-.74-.68v-.08a.74.74,0,0,1,.66-.79h.1a.63.63,0,0,1,.67.56Z" fill="#fff"/><path d="M138.74,567h.41v2h-.41Z" fill="#fff"/><path d="M140.79,569h-.38v-.2h0a.54.54,0,0,1-.45.24c-.43,0-.54-.24-.54-.61v-.9h.41v.86c0,.24.07.36.26.36s.31-.12.31-.42v-.77h.4Z" fill="#fff"/><path d="M141.36,568.55c0,.18.15.25.31.25s.27,0,.27-.19-.17-.16-.47-.22-.46-.14-.46-.39.32-.48.64-.48.62.11.68.47H142c0-.16-.14-.2-.28-.2s-.22,0-.22.14.22.16.45.22.47.14.47.41-.33.51-.68.51-.68-.12-.68-.52Z" fill="#fff"/><path d="M143,567.33h-.4V567h.4Zm-.4.23h.4V569h-.4Z" fill="#fff"/><path d="M144,569h-.45l-.51-1.47h.43l.31,1h0l.31-1h.4Z" fill="#fff"/><path d="M145,568.42a.33.33,0,0,0,.36.37.35.35,0,0,0,.32-.19H146a.68.68,0,0,1-.68.49.72.72,0,0,1-.76-.68.28.28,0,0,1,0-.09.74.74,0,1,1,1.47-.08,1.09,1.09,0,0,1,0,.18Zm.68-.26c0-.2-.13-.31-.33-.31a.32.32,0,0,0-.34.29v0Z" fill="#fff"/><path d="M146.21,567h.41v2h-.41Z" fill="#fff"/><path d="M147.61,569.22a.48.48,0,0,1-.51.34h-.25v-.34h.24a.19.19,0,0,0,.16-.21l0-.06-.52-1.35h.43l.33,1h0l.33-1h.41Z" fill="#fff"/><path d="M149.05,568c0-.38.36-.5.67-.5s.68.06.68.42v.77a.7.7,0,0,0,0,.32H150v-.14a.65.65,0,0,1-.5.18.44.44,0,0,1-.5-.37v-.07c0-.33.25-.41.5-.44s.48,0,.48-.2-.12-.2-.26-.2a.24.24,0,0,0-.27.23Zm.93.29a1,1,0,0,1-.34.09.21.21,0,0,0-.24.21c0,.15.12.19.26.19a.29.29,0,0,0,.32-.26v-.23Z" fill="#fff"/><path d="M151.13,567.56h.29v.27h-.29v.73c0,.13,0,.17.17.17h.12V569h-.23c-.25,0-.46-.06-.46-.35v-.87h-.25v-.27h.25v-.45h.4Z" fill="#fff"/></g><g id="CTA"><g id="Rounded_Rectangle_1" data-name="Rounded Rectangle 1"><rect x="6.25" y="568.91" width="118.5" height="18.84" rx="2.43" fill="#fff"/></g><g id="EXPLORE_THE_PALETTE_" data-name="EXPLORE THE PALETTE "><path d="M10.8,580.23h2.84v.66H10v-5.44h3.49v.67H10.8v1.62h2.56v.67H10.8Z" fill="#19191d"/><path d="M17.78,577.49l1.29-2H20L18.22,578l2,2.86h-1l-1.49-2.29-1.45,2.29h-.94L17.29,578l-1.74-2.56h.92Z" fill="#19191d"/><path d="M22.07,575.47h1.66a3.11,3.11,0,0,1,.8.08,2.1,2.1,0,0,1,.61.27,1.35,1.35,0,0,1,.39.47,1.69,1.69,0,0,1,0,1.37,1.27,1.27,0,0,1-.42.47,1.76,1.76,0,0,1-.66.28,3,3,0,0,1-.79.08h-.82v2.39h-.76Zm.76,2.4h.8a2.84,2.84,0,0,0,.51,0,1.21,1.21,0,0,0,.41-.16.62.62,0,0,0,.26-.27.75.75,0,0,0,.09-.41.8.8,0,0,0-.09-.41,1,1,0,0,0-.26-.27,1.12,1.12,0,0,0-.4-.14,2.07,2.07,0,0,0-.5,0h-.82Z" fill="#19191d"/><path d="M28.39,580.23h2.42v.66H27.62v-5.44h.77Z" fill="#19191d"/><path d="M37.91,578.17a3.07,3.07,0,0,1-.22,1.16,2.77,2.77,0,0,1-.6.91,2.6,2.6,0,0,1-.91.59,3.25,3.25,0,0,1-2.3,0,2.91,2.91,0,0,1-.91-.59,2.77,2.77,0,0,1-.6-.91,3.28,3.28,0,0,1,0-2.31,2.5,2.5,0,0,1,.6-.9,2.6,2.6,0,0,1,.91-.59,3.37,3.37,0,0,1,2.3,0A2.7,2.7,0,0,1,37.69,577,3,3,0,0,1,37.91,578.17Zm-.82,0a2.44,2.44,0,0,0-.15-.84,2.11,2.11,0,0,0-.41-.69,2.15,2.15,0,0,0-2.37-.47,1.71,1.71,0,0,0-.66.47,2.11,2.11,0,0,0-.41.69,2.22,2.22,0,0,0-.14.84,2.28,2.28,0,0,0,.14.86,2,2,0,0,0,.41.66,1.88,1.88,0,0,0,.66.46,2,2,0,0,0,.84.18,2.11,2.11,0,0,0,.86-.18,1.88,1.88,0,0,0,.66-.46,2.15,2.15,0,0,0,.41-.66A2.48,2.48,0,0,0,37.09,578.17Z" fill="#19191d"/><path d="M40.82,580.9h-.76v-5.43H41.8a3.19,3.19,0,0,1,.75.08,1.51,1.51,0,0,1,.61.26,1.17,1.17,0,0,1,.42.46,1.41,1.41,0,0,1,.16.7,1.34,1.34,0,0,1-.37,1,1.78,1.78,0,0,1-.95.47l1.52,2.49H43l-1.38-2.41h-.82Zm0-3.06h.87a2.07,2.07,0,0,0,.5,0,1.38,1.38,0,0,0,.4-.15.73.73,0,0,0,.28-.27.89.89,0,0,0,0-.82.87.87,0,0,0-.27-.27,1.07,1.07,0,0,0-.38-.13,1.88,1.88,0,0,0-.47,0h-.93Z" fill="#19191d"/><path d="M46.62,580.23h2.84v.66H45.88v-5.44h3.49v.67H46.62v1.62h2.56v.67H46.62Z" fill="#19191d"/><path d="M56.47,580.9h-.76v-4.76H54v-.67h4.25v.67H56.47Z" fill="#19191d"/><path d="M60.05,575.47h.76v2.27h2.74v-2.27h.77v5.43h-.77v-2.49H60.81v2.49h-.76Z" fill="#19191d"/><path d="M67.51,580.23h2.84v.66h-3.6v-5.44h3.49v.67H67.51v1.62h2.56v.67H67.51Z" fill="#19191d"/><path d="M75.43,575.47h1.63a3.06,3.06,0,0,1,.8.08,2.29,2.29,0,0,1,.62.27,1.47,1.47,0,0,1,.39.47,1.69,1.69,0,0,1,0,1.37,1.33,1.33,0,0,1-.41.47,2.07,2.07,0,0,1-.67.28,2.87,2.87,0,0,1-.78.08h-.86v2.39h-.76Zm.77,2.4H77a2.94,2.94,0,0,0,.51,0,1.16,1.16,0,0,0,.4-.16.62.62,0,0,0,.26-.27.86.86,0,0,0,.1-.41.8.8,0,0,0-.1-.41.84.84,0,0,0-.26-.27,1.12,1.12,0,0,0-.4-.14,2,2,0,0,0-.49,0H76.2Z" fill="#19191d"/><path d="M80.79,580.9h-.85l2.36-5.43H83l2.33,5.43h-.86l-.55-1.32H81.3Zm.81-2h2l-1-2.55Z" fill="#19191d"/><path d="M87.9,580.23h2.4v.66H87.12v-5.44h.76Z" fill="#19191d"/><path d="M93,580.23h2.83v.66H92.19v-5.44h3.48v.67H93v1.62h2.56v.67H93Z" fill="#19191d"/><path d="M99.89,580.9h-.76v-4.76H97.39v-.67h4.24v.67H99.89Z" fill="#19191d"/><path d="M105.67,580.9h-.77v-4.76h-1.74v-.67h4.25v.67h-1.74Z" fill="#19191d"/><path d="M110,580.23h2.84v.66h-3.6v-5.44h3.48v.67H110v1.62h2.56v.67H110Z" fill="#19191d"/><path d="M117.76,575.1l3.24,2.38v.61l-3.24,2.38v-.87l2.45-1.82-2.45-1.8Z" fill="#19191d"/></g></g></g></g></svg>