<svg xmlns="http://www.w3.org/2000/svg" viewBox="0 0 300 600"><title>overlay</title><g id="Layer_2" data-name="Layer 2"><g id="rect"><rect width="300" height="600" fill="none"/></g><g id="Layer_2_Image" data-name="Layer 2 Image"><path d="M225.22,272.56h.36V271.5h.47l.69,1.06h.41l-.7-1.08a.66.66,0,0,0,.54-.66c0-.47-.28-.71-.83-.71h-.94Zm.77-1.39h-.41v-.73h.55c.19,0,.5.05.5.38S226.39,271.17,226,271.17Z"/><path d="M226.08,269.32h-.15a2,2,0,1,0,.15,0Zm1.59,2a1.66,1.66,0,1,1-3.32,0,1.66,1.66,0,1,1,3.32,0Z"/><path d="M231.57,254.59a3,3,0,0,1,.22,1.7,5.76,5.76,0,0,1-2.95,1.36c-.91.23-6.14,1.71-7.73,2.73s-4.2,2.5-4.88,3.07-1.14.8-1.25,1.36c-.12,1.25,1.93,5.91,2.61,6.14s2.16.57,2.84.91,1,1.48.34,1.48h-6c-.91,0-2.05-2.28-6-4.55-.8-.34-1.25.45-1.48.8s-.68.9-.68,1.25c0,.56,1.59.56,2.27.9a1.38,1.38,0,0,1,.79.8.51.51,0,0,1-.45.8h-4.89c-.45,0-.79,0-1.25-1.14a7.45,7.45,0,0,1-.45-1.25c-.57-1.59.11-2.95.34-4.55-.45-.45-.91-.45-1.7-.34a8,8,0,0,0-3.19.69c-.56.45,0,1.59.35,2.15s.79,2.05,1.7,2.28a3.15,3.15,0,0,1,2.16,1.13.43.43,0,0,1,.11.34c0,.57-.23.8-.79.69h-5.23c-.68,0-2.39-2.73-5.23-4.32a4.39,4.39,0,0,0-2.5,1.25c-.34.34-.68.68-.34,1s.68.23,1.14.34a1.37,1.37,0,0,1,1.13.91c0,.23.23.8-.22.8h-6.25a.62.62,0,0,1-.57-.35,9.76,9.76,0,0,1,.34-3.63c.34-1.25,1.25-3.18,1.36-3.86s-1.13-3.75-1.47-4.89-1.14-3.86-.57-4.89c.79-1.93,3-6.47,7.5-7.72a14.68,14.68,0,0,1,5.91,0,46.79,46.79,0,0,0,5.79.56,40.39,40.39,0,0,0,9.89-.68,55,55,0,0,1,7.5,1.48c.68,0,.91-.91,1.48-.57s1.25,1.25,2.15.8c.12-.12.46-.23.57-.12a13.39,13.39,0,0,0,1.25,1.25c.46.34,2.5.57,3.18,1.71C229.18,253.79,230.43,254,231.57,254.59Z"/><path d="M182.14,273.34h-8.87a2.1,2.1,0,0,1-.91-.8,12.39,12.39,0,0,1-2.5-8.07c0-3-2.16-7.72-6.25-7.72h-3.18v16.59H152V233.11h8.41v6a12.67,12.67,0,0,1,2.5-3.18,12,12,0,0,1,3-2.39,17.1,17.1,0,0,1,5.45.46,12.23,12.23,0,0,1,8.07,11.48c0,3.18-2,7.84-5,9.65-.23.12-.46.35-.23.69a16.19,16.19,0,0,1,2.16,3.52c1.36,3.29.68,7.39,2.61,10.34A14.68,14.68,0,0,0,182.14,273.34ZM168.5,249.13a3.47,3.47,0,0,0,3.18-3.63A3.28,3.28,0,0,0,168.5,242h-7.95v7.16Z"/><path d="M150.43,233.11v40.23H141.8V256.86H131.11c.12-.23-.22,0,0,0v16.48h-8.52V233.11h8.52V248.9H141.8V233.11Z"/><path d="M131.11,256.86c-.11,0,.12-.11,0,0Z"/><path d="M120.77,233.11v8.3H105.43V249h12.73v7.84H105.43v9h15.34v7.5H97.25V233.11h8.18v6.48a10.17,10.17,0,0,1,2.28-3.75,10.78,10.78,0,0,1,3.18-2.84Z"/><path d="M90.43,235.61A12.19,12.19,0,0,1,95.32,248a11.94,11.94,0,0,1-2.5,5.11v.34A14.41,14.41,0,0,1,95,257.31a12.2,12.2,0,0,1-11.82,15.91c-3.86,0-15,.12-15,.12V233.11h8.41v6.48a13.22,13.22,0,0,1,4.89-6.14C85.09,233.45,87.71,233.68,90.43,235.61Zm-6.7,30s3.86.11,3.86-4.32S83.73,257,83.73,257H76.57v8.64Zm3.64-20.34c0-3.86-3.87-3.64-3.87-3.64H76.57v7.27H83.5C83.62,248.9,87.37,249,87.37,245.27Z"/></g><g id="INTRODUCING"><g id="Layer_10" data-name="Layer 10"><path d="M26.29,297.26c0-6.47,4.67-10.9,10.51-10.9a9.38,9.38,0,0,1,7.33,3.32l-.79.7a8.38,8.38,0,0,0-6.54-3.07c-5.27,0-9.41,4-9.41,9.95s4.14,9.95,9.41,9.95a8.4,8.4,0,0,0,6.54-3.06l.82.66a9.34,9.34,0,0,1-7.36,3.35C31,308.16,26.29,303.74,26.29,297.26Z"/><path d="M59.9,286.36c6.1,0,10,4.81,10,10.9s-3.91,10.9-10,10.9-10-4.8-10-10.9S53.77,286.36,59.9,286.36Zm0,.95c-5.47,0-8.91,4.17-8.91,9.95s3.44,9.95,8.91,9.95,8.91-4.23,8.91-9.95S65.3,287.31,59.9,287.31Z"/><path d="M77.27,286.71h1v20.12H88.87v.95H77.27Z"/><path d="M103.59,286.36c6.1,0,10,4.81,10,10.9s-3.91,10.9-10,10.9-10-4.8-10-10.9S97.46,286.36,103.59,286.36Zm0,.95c-5.46,0-8.91,4.17-8.91,9.95s3.45,9.95,8.91,9.95,8.91-4.23,8.91-9.95S109,287.31,103.59,287.31Z"/><path d="M127,298.68h-5v9.1h-1V286.71h7.26c3.41,0,6.23,2.12,6.23,6s-2.82,6-6.23,6l6.51,9.1h-1.3Zm1.2-11H122v10.08h6.25a5,5,0,1,0,0-10.08Z"/><path d="M149.75,290h-6.38v-3.26h16.45V290h-6.38v17.81h-3.69Z"/><path d="M172.84,299.92h-3.66v7.86h-3.7V286.71h9.26c4.17,0,6.88,2.72,6.88,6.6a5.92,5.92,0,0,1-5,6.2l5.15,8.27h-4.26Zm1.39-9.95h-5v6.69h5a3.35,3.35,0,1,0,0-6.69Z"/><path d="M187.85,286.71h14.43V290H191.54v5.46h10.52v3.25H191.54v5.85h10.74v3.25H187.85Z"/><path d="M212.3,292.43v15.35h-3.7V286.71h3.8l10.77,14.94V286.71h3.69v21.07h-3.57Z"/><path d="M233.88,286.71h7.83c6.57,0,11,4.36,11,10.55s-4.46,10.52-11,10.52h-7.83Zm7.83,17.82a6.93,6.93,0,0,0,7.24-7.27c0-4.07-2.53-7.29-7.24-7.29h-4.14v14.56Z"/><path d="M259.06,302a9.08,9.08,0,0,0,6.66,2.91c3,0,4.24-1.49,4.24-2.88,0-1.89-2.25-2.46-4.81-3.13-3.44-.85-7.48-1.86-7.48-6.31,0-3.48,3.06-6.16,7.67-6.16a11,11,0,0,1,7.9,2.93l-2.12,2.75a8.56,8.56,0,0,0-6.09-2.4c-2.18,0-3.57,1-3.57,2.62s2.15,2.18,4.64,2.81c3.48.89,7.61,2,7.61,6.54,0,3.51-2.46,6.51-8.15,6.51a11.29,11.29,0,0,1-8.56-3.35Z"/><path d="M111.56,327.72c3.93-2.89,5.08-3.89,5.08-5.07,0-.83-.77-1.25-1.57-1.25a3.39,3.39,0,0,0-2.56,1.11l-1.17-1.36a4.92,4.92,0,0,1,3.7-1.56c2,0,3.67,1.15,3.67,3.06,0,1.64-1.35,3.07-3.93,4.88h4v1.8h-7.22Z"/><path d="M139.52,319.59c2.73,0,4,2.47,4,5s-1.24,5-4,5-4-2.49-4-5S136.77,319.59,139.52,319.59Zm0,1.81c-1.38,0-1.9,1.37-1.9,3.14s.52,3.15,1.9,3.15,1.88-1.38,1.88-3.15S140.88,321.4,139.52,321.4Z"/><path d="M160.19,327.72c3.93-2.89,5.09-3.89,5.09-5.07,0-.83-.77-1.25-1.57-1.25a3.43,3.43,0,0,0-2.57,1.11L160,321.15a4.91,4.91,0,0,1,3.7-1.56c2,0,3.67,1.15,3.67,3.06,0,1.64-1.36,3.07-3.93,4.88h4v1.8h-7.23Z"/><path d="M186.62,322.36,185,324l-1.17-1.22,3-3h1.79v9.6h-2Z"/></g><g id="INTRODUCING-2" data-name="INTRODUCING"><path d="M99,211.12h1.47v8.21H99Z"/><path d="M104.4,211.12h1.93l3.82,6.15h0v-6.15h1.46v8.21h-1.85l-3.9-6.34h0v6.34H104.4Z"/><path d="M117.24,212.39h-2.52v-1.27h6.49v1.27H118.7v6.94h-1.46Z"/><path d="M124.3,211.12h2.85a5.29,5.29,0,0,1,1.13.12,3,3,0,0,1,1,.4,2.07,2.07,0,0,1,.68.73,2.21,2.21,0,0,1,.26,1.1,2.1,2.1,0,0,1-.51,1.46,2.53,2.53,0,0,1-1.37.76l2.19,3.64h-1.76l-1.9-3.48h-1.07v3.48H124.3Zm2.65,3.54a4.46,4.46,0,0,0,.63,0,1.84,1.84,0,0,0,.56-.17,1.06,1.06,0,0,0,.58-1,.94.94,0,0,0-.15-.55,1.07,1.07,0,0,0-.39-.34,1.68,1.68,0,0,0-.52-.18,3.86,3.86,0,0,0-.58,0h-1.32v2.31Z"/><path d="M133.25,215.2a4.59,4.59,0,0,1,.33-1.78,3.88,3.88,0,0,1,.91-1.35,4.12,4.12,0,0,1,1.39-.86,5,5,0,0,1,1.76-.3,5.16,5.16,0,0,1,1.78.3,4.17,4.17,0,0,1,1.4.86,3.9,3.9,0,0,1,.92,1.35,4.91,4.91,0,0,1,0,3.54,4.18,4.18,0,0,1-.92,1.37,4.24,4.24,0,0,1-1.4.89,4.94,4.94,0,0,1-1.78.32,4.83,4.83,0,0,1-1.76-.32,4,4,0,0,1-2.3-2.26A4.56,4.56,0,0,1,133.25,215.2Zm1.58,0a3.34,3.34,0,0,0,.21,1.21,2.74,2.74,0,0,0,.58,1,2.67,2.67,0,0,0,.89.63,2.83,2.83,0,0,0,1.14.23,2.88,2.88,0,0,0,1.15-.23,2.61,2.61,0,0,0,.9-.63,2.9,2.9,0,0,0,.58-1,3.57,3.57,0,0,0,.2-1.21,3.48,3.48,0,0,0-.2-1.18,3,3,0,0,0-.57-1,2.64,2.64,0,0,0-.9-.64,2.73,2.73,0,0,0-1.16-.23,2.69,2.69,0,0,0-1.15.23,2.6,2.6,0,0,0-.89.64,2.68,2.68,0,0,0-.57,1A3.25,3.25,0,0,0,134.83,215.2Z"/><path d="M145.62,211.12h2.91a6.41,6.41,0,0,1,1.61.21,4.18,4.18,0,0,1,1.46.69,3.54,3.54,0,0,1,1.06,1.26,4.19,4.19,0,0,1,.4,1.94,4,4,0,0,1-.4,1.86,3.79,3.79,0,0,1-1.06,1.28,4.45,4.45,0,0,1-1.46.73,5.66,5.66,0,0,1-1.61.24h-2.91Zm2.68,6.93a4.84,4.84,0,0,0,1.13-.13,3.08,3.08,0,0,0,1-.45,2.47,2.47,0,0,0,.75-.87,2.94,2.94,0,0,0,.29-1.38,3.13,3.13,0,0,0-.29-1.43,2.39,2.39,0,0,0-.75-.87,2.69,2.69,0,0,0-1-.43,5.43,5.43,0,0,0-1.13-.12h-1.22v5.68Z"/><path d="M163.13,216.31a3.34,3.34,0,0,1-.25,1.34,3.09,3.09,0,0,1-.7,1,3,3,0,0,1-1,.64,3.76,3.76,0,0,1-1.31.23,3.68,3.68,0,0,1-1.31-.23,2.94,2.94,0,0,1-1.75-1.66,3.34,3.34,0,0,1-.25-1.34v-5.19H158v5.14a2.88,2.88,0,0,0,.09.71,1.86,1.86,0,0,0,.31.63,1.5,1.5,0,0,0,.57.45,1.94,1.94,0,0,0,.88.18,1.9,1.9,0,0,0,.87-.18,1.43,1.43,0,0,0,.57-.45,1.69,1.69,0,0,0,.31-.63,2.88,2.88,0,0,0,.09-.71v-5.14h1.46Z"/><path d="M172.91,213a1.94,1.94,0,0,0-.85-.64,2.93,2.93,0,0,0-1-.2,2.76,2.76,0,0,0-1.16.23,2.64,2.64,0,0,0-.9.64,2.86,2.86,0,0,0-.58,1,3.48,3.48,0,0,0-.2,1.18,3.69,3.69,0,0,0,.2,1.23,2.86,2.86,0,0,0,.56,1,2.6,2.6,0,0,0,.87.62,3,3,0,0,0,1.15.22,2.58,2.58,0,0,0,1.17-.26,2.46,2.46,0,0,0,.83-.69l1.17.82a3.7,3.7,0,0,1-1.33,1.06,4.3,4.3,0,0,1-1.85.38,4.84,4.84,0,0,1-1.77-.32,4,4,0,0,1-1.38-.89,4.16,4.16,0,0,1-.91-1.37,4.75,4.75,0,0,1-.32-1.76,4.42,4.42,0,0,1,.34-1.78,4,4,0,0,1,.94-1.35,4.21,4.21,0,0,1,1.41-.86,5,5,0,0,1,1.76-.3,4.74,4.74,0,0,1,.82.08,3.93,3.93,0,0,1,.83.23,3.49,3.49,0,0,1,.74.39,2.38,2.38,0,0,1,.59.55Z"/><path d="M177.22,211.12h1.46v8.21h-1.46Z"/><path d="M182.65,211.12h1.94l3.81,6.15h0v-6.15h1.46v8.21H188L184.14,213h0v6.34h-1.46Z"/><path d="M201,218.9a6.4,6.4,0,0,1-1.38.47,8,8,0,0,1-1.72.17,5,5,0,0,1-1.82-.32,4.23,4.23,0,0,1-1.42-.89,4.18,4.18,0,0,1-.92-1.37,4.56,4.56,0,0,1-.33-1.76,4.42,4.42,0,0,1,.34-1.78,4,4,0,0,1,.94-1.35,4.21,4.21,0,0,1,1.41-.86,5,5,0,0,1,1.76-.3,5.5,5.5,0,0,1,1.81.28,3.67,3.67,0,0,1,1.31.75L200,213a2.56,2.56,0,0,0-.88-.59,3.09,3.09,0,0,0-1.22-.24,2.79,2.79,0,0,0-1.18.23,2.64,2.64,0,0,0-.9.64,2.68,2.68,0,0,0-.57,1,3.25,3.25,0,0,0-.21,1.18,3.34,3.34,0,0,0,.21,1.21,2.6,2.6,0,0,0,.58,1,2.56,2.56,0,0,0,.91.63,3.17,3.17,0,0,0,1.23.23,4.27,4.27,0,0,0,1.63-.29v-2.09h-1.73v-1.21H201Z"/></g><g id="_21_COLORS_TO_ELEVATE_YOUR_COMFORT_ZONE" data-name="21 COLORS TO ELEVATE YOUR COMFORT ZONE"><path d="M73.75,363.33H68.4v-1.08L71.67,359a4.71,4.71,0,0,0,.63-.8,1.67,1.67,0,0,0,.27-.94,1.37,1.37,0,0,0-.12-.58,1.29,1.29,0,0,0-.31-.45,1.36,1.36,0,0,0-.46-.28,1.56,1.56,0,0,0-.57-.1,1.39,1.39,0,0,0-1,.4,1.84,1.84,0,0,0-.51,1l-1.11-.19a2.51,2.51,0,0,1,.3-.86,2.49,2.49,0,0,1,1.38-1.16,2.88,2.88,0,0,1,1-.16,3.19,3.19,0,0,1,1,.15,2.64,2.64,0,0,1,.83.44,2.06,2.06,0,0,1,.57.73,2.21,2.21,0,0,1,.22,1,2.43,2.43,0,0,1-.11.73,2.82,2.82,0,0,1-.28.64,3.8,3.8,0,0,1-.42.57l-.51.54-2.67,2.6h4Z"/><path d="M80.24,363.33H79.12v-6.84l-1.55,1.3-.66-.78,2.33-1.89h1Z"/><path d="M96.94,362.05a3.71,3.71,0,0,1-1.27,1.08,4,4,0,0,1-1.86.41,4.68,4.68,0,0,1-1.74-.32,4.11,4.11,0,0,1-1.37-.89,4.29,4.29,0,0,1-.9-1.37,4.7,4.7,0,0,1-.32-1.75,4.51,4.51,0,0,1,.33-1.75,3.94,3.94,0,0,1,.92-1.36,4.12,4.12,0,0,1,1.38-.88,4.76,4.76,0,0,1,1.74-.31,5,5,0,0,1,.85.08,4.55,4.55,0,0,1,.82.24,3.83,3.83,0,0,1,.72.4,2.7,2.7,0,0,1,.56.56l-.91.69a2.19,2.19,0,0,0-.85-.69,2.66,2.66,0,0,0-1.19-.27,3.13,3.13,0,0,0-1.29.26,2.91,2.91,0,0,0-1,.71,3.27,3.27,0,0,0-.63,1.05,3.81,3.81,0,0,0-.22,1.27,3.66,3.66,0,0,0,.22,1.3,3.05,3.05,0,0,0,.61,1.05,2.79,2.79,0,0,0,1,.7,3.11,3.11,0,0,0,1.28.26,2.77,2.77,0,0,0,1.26-.28,2.53,2.53,0,0,0,.94-.81Z"/><path d="M107.85,359.21a4.51,4.51,0,0,1-.33,1.75,4,4,0,0,1-2.29,2.26,4.89,4.89,0,0,1-3.48,0,4.21,4.21,0,0,1-1.37-.89,4,4,0,0,1-.9-1.37,4.81,4.81,0,0,1,0-3.5,3.76,3.76,0,0,1,.9-1.36,4.18,4.18,0,0,1,1.37-.88,5,5,0,0,1,3.48,0,4.12,4.12,0,0,1,1.38.88,3.92,3.92,0,0,1,.91,1.36A4.51,4.51,0,0,1,107.85,359.21Zm-1.24,0a3.57,3.57,0,0,0-.22-1.27,3.27,3.27,0,0,0-.63-1.05,2.91,2.91,0,0,0-1-.71,3.31,3.31,0,0,0-2.57,0,2.81,2.81,0,0,0-1,.71,3.43,3.43,0,0,0-.62,1.05,3.81,3.81,0,0,0-.22,1.27,3.88,3.88,0,0,0,.22,1.29,3.27,3.27,0,0,0,.63,1.05,2.84,2.84,0,0,0,1,.7,3.11,3.11,0,0,0,1.28.26,3.2,3.2,0,0,0,1.29-.26,2.88,2.88,0,0,0,1-.7,3.27,3.27,0,0,0,.63-1.05A3.64,3.64,0,0,0,106.61,359.21Z"/><path d="M112.24,362.31h3.67v1H111.1v-8.21h1.14Z"/><path d="M126.64,359.21a4.51,4.51,0,0,1-.33,1.75,4,4,0,0,1-2.29,2.26,4.86,4.86,0,0,1-3.47,0,4,4,0,0,1-2.28-2.26,4.81,4.81,0,0,1,0-3.5,3.9,3.9,0,0,1,.9-1.36,4.12,4.12,0,0,1,1.38-.88,5,5,0,0,1,3.47,0,4.12,4.12,0,0,1,1.38.88,3.92,3.92,0,0,1,.91,1.36A4.51,4.51,0,0,1,126.64,359.21Zm-1.24,0a3.57,3.57,0,0,0-.22-1.27,3.1,3.1,0,0,0-.63-1.05,2.81,2.81,0,0,0-1-.71,3.31,3.31,0,0,0-2.57,0,2.77,2.77,0,0,0-1,.71,3.27,3.27,0,0,0-.63,1.05,3.81,3.81,0,0,0-.22,1.27,3.88,3.88,0,0,0,.22,1.29,3.27,3.27,0,0,0,.63,1.05,2.88,2.88,0,0,0,1,.7,3,3,0,0,0,1.27.26,3.2,3.2,0,0,0,1.29-.26,2.79,2.79,0,0,0,1-.7,3.1,3.1,0,0,0,.63-1.05A3.64,3.64,0,0,0,125.4,359.21Z"/><path d="M131,363.33h-1.15v-8.21h2.63a5.15,5.15,0,0,1,1.13.12,2.77,2.77,0,0,1,.93.39,1.85,1.85,0,0,1,.63.7,2.16,2.16,0,0,1,.23,1.06,2,2,0,0,1-.55,1.46,2.59,2.59,0,0,1-1.44.71l2.3,3.77h-1.4l-2.08-3.65H131Zm0-4.62h1.32a3.54,3.54,0,0,0,.75-.07,1.84,1.84,0,0,0,.61-.22,1.15,1.15,0,0,0,.41-.41,1.16,1.16,0,0,0,.15-.62,1.11,1.11,0,0,0-.55-1,1.66,1.66,0,0,0-.58-.21,3.29,3.29,0,0,0-.71-.07H131Z"/><path d="M142.73,356.64a1.71,1.71,0,0,0-.66-.55,2,2,0,0,0-.94-.22,2.16,2.16,0,0,0-.56.08,1.55,1.55,0,0,0-.52.24,1.4,1.4,0,0,0-.38.42,1.24,1.24,0,0,0-.14.6,1.08,1.08,0,0,0,.13.56,1.19,1.19,0,0,0,.36.38,2.39,2.39,0,0,0,.53.27l.66.22.85.29a3.39,3.39,0,0,1,.77.43,2,2,0,0,1,.79,1.68,2.39,2.39,0,0,1-.24,1.11,2,2,0,0,1-.63.78,2.69,2.69,0,0,1-.91.46,3.77,3.77,0,0,1-1.06.15,3.86,3.86,0,0,1-1.5-.3,3,3,0,0,1-1.2-.9l.89-.75a2.12,2.12,0,0,0,.78.7,2.24,2.24,0,0,0,1.05.26,1.89,1.89,0,0,0,.58-.08,1.62,1.62,0,0,0,.53-.25,1.38,1.38,0,0,0,.39-.44,1.22,1.22,0,0,0,.15-.63,1.1,1.1,0,0,0-.16-.62,1.21,1.21,0,0,0-.42-.42,2.55,2.55,0,0,0-.62-.3l-.75-.25a7.08,7.08,0,0,1-.77-.28,2.68,2.68,0,0,1-.69-.43,2.14,2.14,0,0,1-.49-.65,2.21,2.21,0,0,1-.18-.95,2,2,0,0,1,.25-1.05,2.08,2.08,0,0,1,.65-.73,2.59,2.59,0,0,1,.9-.43,4,4,0,0,1,1-.13,3.52,3.52,0,0,1,1.34.26,2.47,2.47,0,0,1,1,.68Z"/><path d="M154.27,363.33h-1.15v-7.2h-2.63v-1h6.41v1h-2.63Z"/><path d="M167.63,359.21a4.51,4.51,0,0,1-.33,1.75,4.32,4.32,0,0,1-.91,1.37,4.15,4.15,0,0,1-1.38.89,4.76,4.76,0,0,1-1.74.32,4.68,4.68,0,0,1-1.74-.32,4.11,4.11,0,0,1-1.37-.89,4.16,4.16,0,0,1-.91-1.37,4.95,4.95,0,0,1,0-3.5,3.92,3.92,0,0,1,.91-1.36,4.08,4.08,0,0,1,1.37-.88,4.68,4.68,0,0,1,1.74-.31,4.76,4.76,0,0,1,1.74.31,4.12,4.12,0,0,1,1.38.88,4.06,4.06,0,0,1,.91,1.36A4.51,4.51,0,0,1,167.63,359.21Zm-1.24,0a3.81,3.81,0,0,0-.22-1.27,3.27,3.27,0,0,0-.63-1.05,2.91,2.91,0,0,0-1-.71,3.31,3.31,0,0,0-2.57,0,2.81,2.81,0,0,0-1,.71,3.24,3.24,0,0,0-.62,1.05,3.57,3.57,0,0,0-.22,1.27,3.64,3.64,0,0,0,.22,1.29,3.27,3.27,0,0,0,.63,1.05,2.84,2.84,0,0,0,1,.7,3.11,3.11,0,0,0,1.28.26,3.2,3.2,0,0,0,1.29-.26,2.88,2.88,0,0,0,1-.7,3.27,3.27,0,0,0,.63-1.05A3.88,3.88,0,0,0,166.39,359.21Z"/><path d="M176.49,362.31h4.29v1h-5.44v-8.21h5.27v1h-4.12v2.46h3.87v1h-3.87Z"/><path d="M185,362.31h3.67v1h-4.81v-8.21H185Z"/><path d="M192.63,362.31h4.29v1h-5.44v-8.21h5.27v1h-4.12v2.46h3.87v1h-3.87Z"/><path d="M203.05,361.85h0l2.47-6.73h1.24l-3.23,8.21h-1.06l-3.2-8.21h1.27Z"/><path d="M209.15,363.33h-1.28l3.56-8.21h1l3.53,8.21h-1.3l-.84-2H210Zm1.22-3h3.08l-1.53-3.85Z"/><path d="M220.76,363.33h-1.14v-7.2H217v-1h6.42v1h-2.64Z"/><path d="M227.31,362.31h4.29v1h-5.43v-8.21h5.26v1h-4.12v2.46h3.88v1h-3.88Z"/><path d="M76.62,378.75H75.46V375.2l-3.07-4.66H73.8l2.27,3.71,2.29-3.71h1.33l-3.07,4.66Z"/><path d="M90.09,374.63a4.37,4.37,0,0,1-.34,1.75,4.1,4.1,0,0,1-2.29,2.26,4.86,4.86,0,0,1-3.47,0,4.12,4.12,0,0,1-2.28-2.26,5,5,0,0,1,0-3.51,3.88,3.88,0,0,1,.91-1.35,4,4,0,0,1,1.37-.88,5,5,0,0,1,3.47,0,3.93,3.93,0,0,1,1.38.88,3.88,3.88,0,0,1,.91,1.35A4.38,4.38,0,0,1,90.09,374.63Zm-1.25,0a3.57,3.57,0,0,0-.22-1.27,3.07,3.07,0,0,0-.62-1.05,2.91,2.91,0,0,0-1-.71,3.33,3.33,0,0,0-2.58,0,2.87,2.87,0,0,0-1,.71,3.24,3.24,0,0,0-.62,1.05,3.57,3.57,0,0,0-.22,1.27,3.64,3.64,0,0,0,.22,1.29,3.24,3.24,0,0,0,.62,1.05,3.13,3.13,0,0,0,1,.7,3.06,3.06,0,0,0,1.27.25,3.13,3.13,0,0,0,1.29-.25,3,3,0,0,0,1-.7,3.07,3.07,0,0,0,.62-1.05A3.64,3.64,0,0,0,88.84,374.63Z"/><path d="M96.45,379a3.27,3.27,0,0,1-1.42-.28,3,3,0,0,1-1-.72,3,3,0,0,1-.58-1,3.78,3.78,0,0,1-.19-1.21v-5.17H94.4v5.1a3.38,3.38,0,0,0,.11.83,2,2,0,0,0,.34.73,1.82,1.82,0,0,0,.63.53,2.55,2.55,0,0,0,1.93,0,1.82,1.82,0,0,0,.63-.53,2,2,0,0,0,.34-.73,3.38,3.38,0,0,0,.11-.83v-5.1h1.15v5.17a3.79,3.79,0,0,1-.2,1.21,2.79,2.79,0,0,1-1.58,1.76A3.26,3.26,0,0,1,96.45,379Z"/><path d="M104.41,378.75h-1.15v-8.21h2.63a5.15,5.15,0,0,1,1.13.12,2.69,2.69,0,0,1,.93.39,1.78,1.78,0,0,1,.63.7,2.16,2.16,0,0,1,.24,1.06,2,2,0,0,1-.56,1.46,2.59,2.59,0,0,1-1.44.71l2.3,3.77h-1.39l-2.09-3.66h-1.23Zm0-4.62h1.32a3.7,3.7,0,0,0,.76-.07,1.79,1.79,0,0,0,.6-.23,1.08,1.08,0,0,0,.42-.4,1.19,1.19,0,0,0,.15-.62,1.16,1.16,0,0,0-.15-.62,1.18,1.18,0,0,0-.4-.4,2.06,2.06,0,0,0-.59-.22,4,4,0,0,0-.71-.06h-1.4Z"/><path d="M123.57,377.47a3.75,3.75,0,0,1-1.26,1.07,3.91,3.91,0,0,1-1.87.42,4.68,4.68,0,0,1-1.74-.32,4,4,0,0,1-1.36-.9,3.85,3.85,0,0,1-.9-1.36,4.83,4.83,0,0,1,0-3.51,3.9,3.9,0,0,1,.92-1.35,4.12,4.12,0,0,1,1.38-.88,4.76,4.76,0,0,1,1.74-.31,4.14,4.14,0,0,1,.85.08,3.7,3.7,0,0,1,.82.24,3.12,3.12,0,0,1,.72.4,2.44,2.44,0,0,1,.56.55l-.9.7a2.3,2.3,0,0,0-.86-.69,2.63,2.63,0,0,0-1.19-.27,3,3,0,0,0-1.29.26,2.91,2.91,0,0,0-1,.71,3.27,3.27,0,0,0-.63,1.05,3.81,3.81,0,0,0-.22,1.27,3.94,3.94,0,0,0,.22,1.3,3.22,3.22,0,0,0,.61,1.05,2.88,2.88,0,0,0,1,.7,3.11,3.11,0,0,0,1.28.26,2.91,2.91,0,0,0,1.26-.28,2.4,2.4,0,0,0,.94-.82Z"/><path d="M134.48,374.63a4.55,4.55,0,0,1-.33,1.75,4,4,0,0,1-.91,1.36,4.17,4.17,0,0,1-1.38.9,4.68,4.68,0,0,1-1.74.32,4.63,4.63,0,0,1-1.73-.32,4.17,4.17,0,0,1-1.38-.9,4,4,0,0,1-.9-1.36,4.83,4.83,0,0,1,0-3.51,3.85,3.85,0,0,1,.9-1.35,4.12,4.12,0,0,1,1.38-.88,4.63,4.63,0,0,1,1.73-.31,4.68,4.68,0,0,1,1.74.31,4.12,4.12,0,0,1,1.38.88,3.88,3.88,0,0,1,.91,1.35A4.56,4.56,0,0,1,134.48,374.63Zm-1.24,0a3.57,3.57,0,0,0-.22-1.27,3.27,3.27,0,0,0-.63-1.05,2.81,2.81,0,0,0-1-.71,3.31,3.31,0,0,0-2.57,0,2.91,2.91,0,0,0-1,.71,3.43,3.43,0,0,0-.62,1.05,3.81,3.81,0,0,0-.22,1.27,3.88,3.88,0,0,0,.22,1.29,3.27,3.27,0,0,0,.63,1.05,2.92,2.92,0,0,0,2.25.95,3.19,3.19,0,0,0,1.29-.25,3,3,0,0,0,1-.7,3.27,3.27,0,0,0,.63-1.05A3.64,3.64,0,0,0,133.24,374.63Z"/><path d="M142,376.84h0l2.42-6.3h1.79v8.21h-1.15v-6.87h0l-2.72,6.87h-.73l-2.72-6.87h0v6.87h-1.11v-8.21h1.78Z"/><path d="M151,378.75h-1.15v-8.21H155v1h-4v2.56h3.72v1H151Z"/><path d="M166.32,374.63a4.55,4.55,0,0,1-.33,1.75,4.1,4.1,0,0,1-2.29,2.26,4.86,4.86,0,0,1-3.47,0,4.12,4.12,0,0,1-2.28-2.26,5,5,0,0,1,0-3.51,3.88,3.88,0,0,1,.91-1.35,4,4,0,0,1,1.37-.88,5,5,0,0,1,3.47,0,3.93,3.93,0,0,1,1.38.88,3.88,3.88,0,0,1,.91,1.35A4.56,4.56,0,0,1,166.32,374.63Zm-1.24,0a3.57,3.57,0,0,0-.22-1.27,3.07,3.07,0,0,0-.62-1.05,2.91,2.91,0,0,0-1-.71,3.05,3.05,0,0,0-1.3-.26,3,3,0,0,0-1.28.26,2.87,2.87,0,0,0-1,.71,3.07,3.07,0,0,0-.62,1.05,3.57,3.57,0,0,0-.22,1.27,3.64,3.64,0,0,0,.22,1.29,3.07,3.07,0,0,0,.62,1.05,3,3,0,0,0,1,.7,3.06,3.06,0,0,0,1.27.25,3.16,3.16,0,0,0,1.29-.25,3,3,0,0,0,1-.7,3.07,3.07,0,0,0,.62-1.05A3.64,3.64,0,0,0,165.08,374.63Z"/><path d="M170.72,378.75h-1.15v-8.21h2.63a5.15,5.15,0,0,1,1.13.12,2.69,2.69,0,0,1,.93.39,1.88,1.88,0,0,1,.64.7,2.27,2.27,0,0,1,.23,1.06,2,2,0,0,1-.56,1.46,2.59,2.59,0,0,1-1.44.71l2.3,3.77H174L172,375.09h-1.23Zm0-4.62H172a3.7,3.7,0,0,0,.76-.07,1.79,1.79,0,0,0,.6-.23,1.08,1.08,0,0,0,.42-.4,1.19,1.19,0,0,0,.15-.62,1.16,1.16,0,0,0-.15-.62,1.18,1.18,0,0,0-.4-.4,2.06,2.06,0,0,0-.59-.22,4,4,0,0,0-.71-.06h-1.4Z"/><path d="M181.32,378.75h-1.14v-7.21h-2.64v-1H184v1h-2.64Z"/><path d="M196.61,371.54,192,377.73h4.71v1h-6.1v-1l4.63-6.2h-4.54v-1h5.94Z"/><path d="M207.56,374.63a4.55,4.55,0,0,1-.33,1.75,4.1,4.1,0,0,1-2.29,2.26,4.86,4.86,0,0,1-3.47,0,4.12,4.12,0,0,1-2.28-2.26,5,5,0,0,1,0-3.51,3.88,3.88,0,0,1,.91-1.35,4,4,0,0,1,1.37-.88,5,5,0,0,1,3.47,0,3.93,3.93,0,0,1,1.38.88,3.88,3.88,0,0,1,.91,1.35A4.56,4.56,0,0,1,207.56,374.63Zm-1.24,0a3.57,3.57,0,0,0-.22-1.27,3.07,3.07,0,0,0-.62-1.05,2.91,2.91,0,0,0-1-.71,3.05,3.05,0,0,0-1.3-.26,3,3,0,0,0-1.28.26,2.77,2.77,0,0,0-1,.71,3.07,3.07,0,0,0-.62,1.05,3.57,3.57,0,0,0-.22,1.27,3.64,3.64,0,0,0,.22,1.29A3.07,3.07,0,0,0,201,377a3,3,0,0,0,1,.7,3.06,3.06,0,0,0,1.27.25,3.19,3.19,0,0,0,1.29-.25,3,3,0,0,0,1-.7,3.07,3.07,0,0,0,.62-1.05A3.64,3.64,0,0,0,206.32,374.63Z"/><path d="M216.6,377.1h0v-6.56h1.15v8.21h-1.45L212,372h0v6.71h-1.15v-8.21h1.5Z"/><path d="M222.59,377.73h4.29v1h-5.44v-8.21h5.27v1h-4.12V374h3.88v1h-3.88Z"/></g></g></g></svg>