<svg xmlns="http://www.w3.org/2000/svg" viewBox="0 0 970 250"><title>footer</title><g id="Layer_2" data-name="Layer 2"><g id="rect"><rect width="970" height="250" fill="none"/></g><g id="Layer_2-2" data-name="Layer 2"><g id="CTA"><g id="Rounded_Rectangle_1" data-name="Rounded Rectangle 1"><rect x="759.51" y="184.67" width="195" height="31" rx="4" fill="#fff"/></g><g id="EXPLORE_THE_PALETTE_" data-name="EXPLORE THE PALETTE "><path d="M773.39,203h4.29v1h-5.44v-8.21h5.27v1h-4.12v2.46h3.87v1h-3.87Z" fill="#19191d"/><path d="M783.93,198.85l2-3.06h1.34l-2.62,3.88,3,4.33h-1.47l-2.25-3.46-2.2,3.46h-1.41l2.93-4.33-2.64-3.86H782Z" fill="#19191d"/><path d="M790.42,195.79h2.5a4.93,4.93,0,0,1,1.21.13,2.87,2.87,0,0,1,.93.41,2,2,0,0,1,.59.71,2.46,2.46,0,0,1,.21,1,2.28,2.28,0,0,1-.23,1.06,2,2,0,0,1-.63.72,2.75,2.75,0,0,1-1,.41,4.77,4.77,0,0,1-1.19.13h-1.24V204h-1.15Zm1.15,3.63h1.21a3.94,3.94,0,0,0,.77-.08,1.88,1.88,0,0,0,.61-.23,1.05,1.05,0,0,0,.4-.41,1.26,1.26,0,0,0,.14-.63,1.21,1.21,0,0,0-.15-.62,1.24,1.24,0,0,0-.39-.4,1.61,1.61,0,0,0-.6-.22,3.81,3.81,0,0,0-.75-.07h-1.24Z" fill="#19191d"/><path d="M800,203h3.66v1h-4.81v-8.21H800Z" fill="#19191d"/><path d="M814.35,199.88a4.39,4.39,0,0,1-.33,1.75,4.21,4.21,0,0,1-.91,1.37,4,4,0,0,1-1.38.89,4.83,4.83,0,0,1-3.47,0,4,4,0,0,1-2.28-2.26,4.91,4.91,0,0,1,0-3.5,4,4,0,0,1,.9-1.36,4.27,4.27,0,0,1,1.38-.88,5,5,0,0,1,3.47,0,4,4,0,0,1,2.29,2.24A4.39,4.39,0,0,1,814.35,199.88Zm-1.24,0a3.69,3.69,0,0,0-.22-1.27,3.28,3.28,0,0,0-.62-1.05,3.09,3.09,0,0,0-1-.71,3.21,3.21,0,0,0-1.3-.26,3.12,3.12,0,0,0-1.28.26,2.82,2.82,0,0,0-1,.71,3,3,0,0,0-.62,1.05,3.69,3.69,0,0,0-.22,1.27,3.54,3.54,0,0,0,.22,1.29,3.05,3.05,0,0,0,.62,1,2.92,2.92,0,0,0,1,.7,3.07,3.07,0,0,0,1.27.26,3.2,3.2,0,0,0,1.29-.26,2.92,2.92,0,0,0,1-.7,3.05,3.05,0,0,0,.62-1A3.56,3.56,0,0,0,813.11,199.88Z" fill="#19191d"/><path d="M818.75,204H817.6v-8.21h2.63a5.35,5.35,0,0,1,1.13.12,2.63,2.63,0,0,1,.93.39,1.92,1.92,0,0,1,.63.7,2.17,2.17,0,0,1,.24,1.06,2,2,0,0,1-.56,1.46,2.62,2.62,0,0,1-1.44.71l2.3,3.77h-1.39L820,200.35h-1.23Zm0-4.62h1.32a3.81,3.81,0,0,0,.75-.07,1.66,1.66,0,0,0,.61-.22,1.15,1.15,0,0,0,.41-.41,1.28,1.28,0,0,0,0-1.24,1.27,1.27,0,0,0-.4-.4,1.56,1.56,0,0,0-.58-.21,3.35,3.35,0,0,0-.71-.07h-1.4Z" fill="#19191d"/><path d="M827.51,203h4.29v1h-5.4v-8.21h5.27v1h-4.16v2.46h3.87v1h-3.87Z" fill="#19191d"/><path d="M842.39,204h-1.14v-7.2h-2.64v-1H845v1h-2.64Z" fill="#19191d"/><path d="M847.8,195.79H849v3.43h4.15v-3.43h1.16V204H853.1v-3.76H849V204H847.8Z" fill="#19191d"/><path d="M859.08,203h4.29v1h-5.44v-8.21h5.27v1h-4.12v2.46H863v1h-3.87Z" fill="#19191d"/><path d="M871.05,195.79h2.46a4.93,4.93,0,0,1,1.21.13,2.87,2.87,0,0,1,.93.41,2,2,0,0,1,.59.71,2.46,2.46,0,0,1,.21,1,2.28,2.28,0,0,1-.23,1.06,2.05,2.05,0,0,1-.62.72,3,3,0,0,1-1,.41,5.2,5.2,0,0,1-1.18.13h-1.3V204H871Zm1.15,3.63h1.21a4.13,4.13,0,0,0,.78-.08,1.82,1.82,0,0,0,.6-.23,1.05,1.05,0,0,0,.4-.41,1.26,1.26,0,0,0,.14-.63,1.21,1.21,0,0,0-.15-.62,1.24,1.24,0,0,0-.39-.4,1.61,1.61,0,0,0-.6-.22,3.81,3.81,0,0,0-.75-.07H872.2Z" fill="#19191d"/><path d="M879.14,204h-1.28l3.57-8.21h1L886,204h-1.29l-.84-2h-3.9Zm1.23-3h3.07l-1.53-3.85Z" fill="#19191d"/><path d="M889.89,203h3.62v1H888.7v-8.21h1.15Z" fill="#19191d"/><path d="M897.51,203h4.29v1h-5.43v-8.21h5.26v1h-4.12v2.46h3.88v1h-3.88Z" fill="#19191d"/><path d="M908,204h-1.15v-7.2h-2.63v-1h6.41v1H908Z" fill="#19191d"/><path d="M916.73,204h-1.15v-7.2H913v-1h6.41v1h-2.63Z" fill="#19191d"/><path d="M923.28,203h4.29v1h-5.44v-8.21h5.26v1h-4.11v2.46h3.87v1h-3.87Z" fill="#19191d"/><path d="M935,195.23l4.89,3.6v.93L935,203.35V202l3.69-2.74L935,196.56Z" fill="#19191d"/></g></g><g id="Layer_13" data-name="Layer 13"><rect x="12.18" y="186.73" width="33.61" height="33.61" fill="#f48120"/><path d="M43.12,218.69a1,1,0,1,1,1,1A1,1,0,0,1,43.12,218.69Zm1,.8a.8.8,0,1,0-.77-.82v0a.76.76,0,0,0,.72.8Zm-.2-.25h-.16v-1.08h.41c.26,0,.39.08.39.31a.3.3,0,0,1-.28.3h0l.31.47h-.19l-.28-.47h-.19Zm.2-.61c.14,0,.26,0,.26-.17s-.12-.17-.23-.17h-.23v.34Z" fill="#fff"/><path d="M19.61,213.33l-.87.87-.58-.57.87-.87-2.25-2.26c-.36-.36-.41-.43-.87-.2a.36.36,0,0,1-.49,0c-.29-.28,0-.62,0-.67l2.8-2.79s.39-.35.68,0a.39.39,0,0,1,0,.48c-.24.45-.18.5.2.88l5.2,5.19c.36.37.41.44.87.2a.39.39,0,0,1,.48,0c.29.29,0,.64,0,.68l-2.8,2.8s-.39.34-.67,0a.39.39,0,0,1,0-.48c.25-.45.17-.5-.19-.88Zm-7.48-.42,2.39-2.38s.39-.35.68,0a.39.39,0,0,1,0,.48c-.24.46-.18.51.19.88l5.2,5.19c.36.38.41.44.88.2a.39.39,0,0,1,.48,0c.29.29,0,.64,0,.68l-2.34,2.38H18.47c.24-.46.18-.51-.2-.87l-5.19-5.2c-.37-.38-.42-.45-.88-.2h0Z" fill="#fff"/><path d="M22.3,203.65a.94.94,0,0,0,.21,1.24L27.65,210a1,1,0,0,0,1.25.21l.57.57c-2.28,1.91-5,1.25-6.94-.78s-2.68-4.65-.78-6.93Zm7,6.12a1,1,0,0,0-.21-1.25L24,203.38a.92.92,0,0,0-1.25-.21l-.57-.57c2.28-1.91,5-1.25,6.93.78s2.69,4.65.79,6.94Z" fill="#fff"/><path d="M40.25,199.07a.36.36,0,0,0-.48,0c-.45.24-.5.16-.88-.2l-5.19-5.2c-.37-.37-.44-.42-.2-.87a.4.4,0,0,0,0-.49c-.29-.28-.64,0-.68,0l-2.62,2.62,2.15,3.95h0l-4.1-2-2.5,2.49c-.11.13-.41.43-.1.73s.53,0,.65-.11.34-.08.58,0a2.86,2.86,0,0,1,.61.24l8.2,4.08L36,204l-4-7.48,4.62,4.6c.36.38.43.43.19.88a.36.36,0,0,0,0,.48c.29.29.63,0,.68,0l2.79-2.79S40.54,199.36,40.25,199.07Z" fill="#fff"/><path d="M32.5,204.29l-1.67-1.69-2.2-1.09h0L32,204.87c1.08,1.39.06,1.64.48,2.07s.7-.13.81-.24l1.12-1.12c.12-.11.54-.5.23-.8S33.9,205.38,32.5,204.29Z" fill="#fff"/><path d="M33.87,191.22l2.62-2.61,7.42,7.48-2.62,2.62s-.39.34-.68,0a.4.4,0,0,1,0-.49c.24-.45.18-.5-.19-.87l-5.2-5.2c-.37-.36-.41-.43-.88-.2a.34.34,0,0,1-.48,0C33.52,191.67,33.83,191.27,33.87,191.22Zm6.05-4.49L41.16,188a.4.4,0,0,1,0,.54c-.23.3-.32.13-.52,0a2.67,2.67,0,0,0-3,.2l-.58-.57,1.3-1.47Zm5.87,7.48-1.44,1.43-.57-.57A2.86,2.86,0,0,0,44,192c-.08-.22-.18-.43,0-.62a.37.37,0,0,1,.54,0,.34.34,0,0,1,.08.09l1.15,1.14Zm-5.55-2.67a1.49,1.49,0,0,0-.17-1.57c-.13-.21-.23-.44,0-.65s.62.1.69.19l2.15,2.14c.07.08.48.39.17.69s-.42.11-.65,0a1.46,1.46,0,0,0-1.55-.19Z" fill="#fff"/><path d="M27.09,214.69c.93-1,2.38-1.1,3.89.28a2.66,2.66,0,0,1,.42,3.74l-.14.16-.32-.33c.29-.38,0-.72-.22-.93l-2.39-2.38c-.21-.21-.54-.51-.93-.21Z" fill="#fff"/><path d="M29.16,220.34v-.13c.06-.13-.09-.27-.18-.36l-2.93-2.91c-.07-.09-.22-.25-.36-.18s-.27.16-.41,0,0-.31.09-.41l1.43-1.43L31,219.09l-1.25,1.25Z" fill="#fff"/><path d="M29.2,212.61l1.47-1.47,4.17,4.17-1.52,1.48s-.22.18-.38,0a.2.2,0,0,1,0-.27c.13-.26.09-.28-.12-.49l-2.93-2.92c-.2-.21-.22-.25-.48-.11a.24.24,0,0,1-.28,0C29,212.86,29.17,212.63,29.2,212.61Zm1.72-1.72,1.24-1.25,1.14,1.14a.24.24,0,0,1,0,.3c-.13.16-.19.07-.3,0a1.52,1.52,0,0,0-1.72.12Zm3.85,3.85A1.61,1.61,0,0,0,34.9,213c0-.11-.09-.24,0-.34a.22.22,0,0,1,.3,0l0,0,1.13,1.13L35.13,215Zm-2-2a.85.85,0,0,0-.08-.88c-.08-.12-.13-.25,0-.37s.34.06.38.1l1.25,1.25s.27.22.1.38-.24.06-.36,0a.87.87,0,0,0-.89-.1Z" fill="#fff"/><path d="M34.32,207.49a3.06,3.06,0,0,1,1.31-.9,1.84,1.84,0,0,1,2.16,1.46,1.88,1.88,0,0,1,0,.71,2.85,2.85,0,0,1-.89,1.24l-.33-.32c.28-.39,0-.64-.21-.91l-.85-.84c-.25-.26-.52-.43-.87-.18Zm-1,2.24c-.21-.2-.24-.24-.5-.11a.21.21,0,0,1-.26,0,.27.27,0,0,1,0-.37h0L34,207.77l3.56,3.54c.21.21.23.25.48.11a.24.24,0,0,1,.28,0c.16.17,0,.37,0,.39l-1.59,1.57a.22.22,0,0,1-.33,0h0a.21.21,0,0,1,0-.26c.13-.26.06-.26-.15-.46Z" fill="#fff"/><path d="M37.85,204.43a.53.53,0,0,0,.12.69L40.85,208a.54.54,0,0,0,.69.11l.32.33a3.14,3.14,0,0,1-4.34-4.34Zm3.95,3.44a.53.53,0,0,0-.13-.68l-2.89-2.9a.54.54,0,0,0-.68-.11l-.33-.32a3.14,3.14,0,0,1,4.34,4.34Z" fill="#fff"/><path d="M45.79,204.36l-1.34,1.34s-.22.19-.38,0a.22.22,0,0,1,0-.27c.13-.25.1-.28-.11-.49l-3.56-3.55L41.77,200l3.56,3.54c.2.21.22.25.48.11Zm-1.68-4.07a.25.25,0,0,1,0,.34h0c-.15.16-.33,0-.47-.06a1.73,1.73,0,0,0-1.24-.45l-.33-.32.81-.81Zm-4.78,2.18.8-.79.32.31a1.87,1.87,0,0,0,.46,1.24c.1.14.22.32.07.47a.25.25,0,0,1-.34,0h0Z" fill="#fff"/><path d="M16.2,199.46l1.25-1.25,3.34,3.33c.19.2.21.24.46.11a.2.2,0,0,1,.25,0c.15.15,0,.34,0,.35L20,203.5s-.21.17-.36,0a.22.22,0,0,1,0-.27c.12-.23.09-.26-.1-.46Zm3.51-1.06a.24.24,0,0,1,0,.33c-.15.14-.31,0-.44-.07a1.71,1.71,0,0,0-1.24-.42l-.32-.3.76-.76Zm-4.49,2,.75-.75.31.3a1.64,1.64,0,0,0,.42,1.25c.1.14.22.3.07.45a.23.23,0,0,1-.32,0h0Z" fill="#fff"/><path d="M23.55,198.78c.2.19.22.23.46.1a.21.21,0,0,1,.26,0c.15.15,0,.34,0,.37l-1.48,1.48a.24.24,0,0,1-.34,0h0a.18.18,0,0,1,0-.25c.12-.25.09-.27-.11-.46l-2.75-2.76c-.2-.18-.22-.22-.46-.1a.21.21,0,0,1-.26,0c-.15-.15,0-.33,0-.36l1.48-1.48a.26.26,0,0,1,.37,0,.23.23,0,0,1,0,.25c-.14.25-.1.27.1.46ZM23,196.83l-.46.46-.31-.3.46-.46-1.25-1.25c-.2-.19-.22-.22-.46-.1a.21.21,0,0,1-.26,0c-.15-.15,0-.34,0-.36l1.48-1.48s.2-.18.35,0a.23.23,0,0,1,0,.25c-.12.24-.1.27.1.46l2.74,2.75c.2.19.23.23.46.1a.23.23,0,0,1,.27,0c.15.15,0,.34,0,.36l-1.49,1.49a.24.24,0,0,1-.33,0h0a.2.2,0,0,1,0-.25c.13-.25.09-.28-.11-.46Z" fill="#fff"/><path d="M23.07,192.59l1.39-1.39,3.91,3.93L27,196.51s-.2.19-.35,0a.21.21,0,0,1,0-.26c.12-.23.09-.27-.11-.46l-2.75-2.74c-.19-.2-.22-.24-.46-.11a.21.21,0,0,1-.26,0C22.89,192.8,23.05,192.61,23.07,192.59ZM24.69,191l1.16-1.16,1.08,1.06a.23.23,0,0,1,0,.28c-.12.15-.18,0-.28,0a1.44,1.44,0,0,0-1.62.12Zm3.62,3.63a1.5,1.5,0,0,0,.12-1.66c0-.12-.08-.23,0-.33a.22.22,0,0,1,.3,0l0,0,1.05,1-1.25,1.25Zm-1.87-1.87a.8.8,0,0,0-.1-.84c0-.11-.11-.22,0-.34s.32,0,.37.1l1.13,1.14s.26.2.1.36-.23,0-.34,0a.8.8,0,0,0-.84-.1Z" fill="#fff"/><path d="M13,180.33h2.87V181h-2v.81h1.82v.64H13.89v.92h2v.68H13Z" fill="#fff"/><path d="M16.9,182.65,16,181.41h.85l.47.69.47-.69h.83l-.89,1.24,1,1.45H17.9l-.56-.86-.57.86h-.84Z" fill="#fff"/><path d="M20.77,182.32a.5.5,0,0,0-.53-.47h0c-.47,0-.64.48-.64.88s.17.86.63.86a.6.6,0,0,0,.6-.55h.71a1.26,1.26,0,0,1-1.25,1.11,1.31,1.31,0,0,1-1.36-1.26v-.14a1.33,1.33,0,0,1,1.2-1.45h.18a1.16,1.16,0,0,1,1.25,1Z" fill="#fff"/><path d="M21.85,180.33h.75v3.74h-.75Z" fill="#fff"/><path d="M25.62,184.07h-.7v-.37h0a1,1,0,0,1-.82.45c-.8,0-1-.45-1-1.12v-1.66h.75v1.57c0,.45.13.67.47.67s.59-.22.59-.77v-1.42h.73Z" fill="#fff"/><path d="M26.66,183.19c0,.32.28.46.58.46s.48-.09.48-.35-.31-.3-.84-.41-.86-.25-.86-.72c0-.7.59-.88,1.18-.88s1.13.2,1.25.86h-.7c0-.28-.25-.36-.51-.36s-.41,0-.41.25.41.3.83.4.86.26.86.76c0,.71-.61,1-1.24,1s-1.25-.24-1.25-1Z" fill="#fff"/><path d="M29.58,180.94h-.73v-.61h.73Zm-.73.43h.73v2.7h-.73Z" fill="#fff"/><path d="M31.54,184.07h-.82l-.94-2.7h.79l.57,1.84h0l.57-1.84h.74Z" fill="#fff"/><path d="M33.32,182.94a.6.6,0,0,0,.67.68.62.62,0,0,0,.59-.34h.65a1.26,1.26,0,0,1-1.25.91,1.32,1.32,0,0,1-1.38-1.26.48.48,0,0,1,0-.17,1.36,1.36,0,1,1,2.71-.14,1.17,1.17,0,0,1,0,.32Zm1.25-.47c-.08-.38-.24-.58-.6-.58a.59.59,0,0,0-.62.55v0Z" fill="#fff"/><path d="M35.59,180.33h.75v3.74h-.75Z" fill="#fff"/><path d="M38.16,184.41a.86.86,0,0,1-.94.62,1.77,1.77,0,0,1-.46,0v-.61a1.62,1.62,0,0,0,.44,0,.34.34,0,0,0,.29-.39.23.23,0,0,0,0-.11l-1-2.49h.8l.61,1.85h0l.6-1.85h.76Z" fill="#fff"/><path d="M40.8,182.2c0-.69.67-.91,1.25-.91s1.24.12,1.24.78v1.4a1.51,1.51,0,0,0,.09.6h-.75a1.13,1.13,0,0,1,0-.26,1.2,1.2,0,0,1-.92.34.81.81,0,0,1-.91-.69.49.49,0,0,1,0-.12c0-.61.46-.76.92-.83s.89,0,.89-.36-.23-.36-.49-.36a.43.43,0,0,0-.49.41Zm1.72.55a1.66,1.66,0,0,1-.62.15.4.4,0,0,0-.44.4c0,.27.21.35.46.35a.55.55,0,0,0,.6-.49.28.28,0,0,0,0-.13Z" fill="#fff"/><path d="M44.63,181.37h.55v.5h-.55v1.33c0,.25.06.31.32.31h.23v.58h-.44c-.45,0-.85-.12-.85-.65v-1.6h-.46v-.5h.46v-.82h.74Z" fill="#fff"/></g></g></g></svg>