<svg xmlns="http://www.w3.org/2000/svg" viewBox="0 0 970 250"><title>overlay</title><g id="Layer_2" data-name="Layer 2"><g id="Layer_2-2" data-name="Layer 2"><g id="rect"><rect width="970" height="250" fill="none"/></g><g id="Layer_2_Image" data-name="Layer 2 Image"><path d="M536.88,84.68h.25v-.74h.33l.48.74h.29l-.49-.75a.46.46,0,0,0,.37-.47c0-.33-.19-.49-.58-.49h-.65Zm.53-1h-.28V83.2h.38c.14,0,.35,0,.35.26s-.17.25-.44.25Z"/><path d="M537.48,82.41h-.11a1.4,1.4,0,1,0,.11,0Zm1.11,1.4a1.16,1.16,0,1,1-1.16-1.16A1.16,1.16,0,0,1,538.59,83.81Z"/><path d="M541.32,72.11a2.1,2.1,0,0,1,.15,1.19,4,4,0,0,1-2.06,1A30.16,30.16,0,0,0,534,76.16c-1.11.71-2.94,1.75-3.41,2.15s-.8.56-.88,1c-.08.87,1.35,4.13,1.83,4.29s1.51.4,2,.64.7,1,.24,1h-4.2c-.63,0-1.43-1.6-4.19-3.19-.56-.23-.88.32-1,.56s-.47.63-.47.88,1.11.39,1.58.63a1,1,0,0,1,.56.56.35.35,0,0,1-.09.49.39.39,0,0,1-.23.07h-3.42c-.31,0-.55,0-.87-.8a4.4,4.4,0,0,1-.32-.88c-.4-1.11.08-2.06.24-3.18-.32-.31-.64-.31-1.19-.24a5.53,5.53,0,0,0-2.23.49c-.39.31,0,1.11.24,1.5s.55,1.43,1.19,1.6a2.17,2.17,0,0,1,1.51.79.29.29,0,0,1,.08.23c0,.4-.16.56-.55.49H516.7c-.48,0-1.67-1.91-3.66-3a3.09,3.09,0,0,0-1.75.88c-.24.24-.48.47-.24.7s.48.16.8.24a1,1,0,0,1,.79.63c0,.16.16.56-.15.56h-4.38a.43.43,0,0,1-.4-.24,6.79,6.79,0,0,1,.24-2.54c.24-.88.88-2.23.95-2.7a19.51,19.51,0,0,0-1-3.42c-.23-.8-.79-2.7-.39-3.43.55-1.35,2.09-4.52,5.24-5.4a10.31,10.31,0,0,1,4.14,0,32.29,32.29,0,0,0,4,.4,28.67,28.67,0,0,0,6.92-.48,39.28,39.28,0,0,1,5.25,1c.47,0,.63-.63,1-.39s.88.87,1.51.56c.08-.09.32-.17.4-.09a10.31,10.31,0,0,0,.87.88c.32.23,1.75.4,2.22,1.19C539.65,71.55,540.52,71.7,541.32,72.11Z"/><path d="M506.73,85.23h-6.2a1.51,1.51,0,0,1-.64-.56A8.7,8.7,0,0,1,498.14,79c0-2.1-1.51-5.4-4.37-5.4h-2.23V85.23h-5.89V57.08h5.88v4.2a9,9,0,0,1,1.75-2.23,8.5,8.5,0,0,1,2.1-1.67,11.91,11.91,0,0,1,3.81.32,8.57,8.57,0,0,1,5.65,8c0,2.23-1.4,5.49-3.5,6.76-.16.08-.32.24-.16.48a11.29,11.29,0,0,1,1.51,2.46c.95,2.3.48,5.17,1.83,7.24A10.41,10.41,0,0,0,506.73,85.23Zm-9.54-16.94a2.43,2.43,0,0,0,2.23-2.54,2.3,2.3,0,0,0-2.14-2.45h-5.65v5Z"/><path d="M484.55,57.08V85.23h-6V73.7H471c.08-.16-.15,0,0,0V85.23h-6V57.08h6v11h7.48v-11Z"/><path d="M463.8,57.08v5.81H453.06V68.2H462v5.48h-8.91V80H463.8v5.25H447.34V57.08h5.72v4.53a7.16,7.16,0,0,1,1.6-2.62,7.68,7.68,0,0,1,2.22-2Z"/><path d="M442.57,58.83A8.51,8.51,0,0,1,446,67.5a8.42,8.42,0,0,1-1.75,3.57v.24a10.45,10.45,0,0,1,1.53,2.7,8.54,8.54,0,0,1-5.54,10.73,8.44,8.44,0,0,1-2.73.4c-2.71,0-10.5.09-10.5.09V57.08h5.88v4.53a9.26,9.26,0,0,1,3.43-4.29C438.83,57.32,440.66,57.48,442.57,58.83Zm-4.69,21a3,3,0,0,0,0-6h-5v6Zm2.55-14.23A2.49,2.49,0,0,0,437.72,63h-4.85v5.09h4.85a2.51,2.51,0,0,0,2.71-2.54Z"/></g><g id="INTRODUCING"><g id="Layer_10" data-name="Layer 10"><path d="M317,123.67c0-8.78,6.34-14.8,14.27-14.8a12.76,12.76,0,0,1,10,4.51l-1.08,1a11.37,11.37,0,0,0-8.88-4.17c-7.15,0-12.78,5.43-12.78,13.51s5.63,13.52,12.78,13.52a11.41,11.41,0,0,0,8.88-4.16l1.12.9a12.71,12.71,0,0,1-10,4.55C323.4,138.48,317,132.47,317,123.67Z"/><path d="M362.64,108.87c8.29,0,13.58,6.53,13.58,14.8s-5.31,14.81-13.58,14.81-13.58-6.52-13.58-14.81S354.32,108.87,362.64,108.87Zm0,1.29c-7.43,0-12.1,5.66-12.1,13.51s4.67,13.52,12.1,13.52,12.1-5.75,12.1-13.52S370,110.16,362.64,110.16Z"/><path d="M386.23,109.35h1.36v27.32H402V138H386.23Z"/><path d="M422,108.87c8.29,0,13.58,6.53,13.58,14.8s-5.31,14.81-13.58,14.81-13.58-6.52-13.58-14.81S413.65,108.87,422,108.87Zm0,1.29c-7.41,0-12.1,5.66-12.1,13.51s4.69,13.52,12.1,13.52,12.1-5.75,12.1-13.52S429.32,110.16,422,110.16Z"/><path d="M453.77,125.6H447V138h-1.36V109.35h9.86c4.63,0,8.46,2.88,8.46,8.15s-3.83,8.14-8.46,8.14L464.32,138h-1.77Zm1.63-14.94H447v13.69h8.48a6.85,6.85,0,1,0,0-13.69Z"/><path d="M484.66,113.81H476v-4.42h22.34v4.42h-8.67V138h-5Z"/><path d="M516,127.29h-5V138h-5V109.35H518.6c5.66,0,9.34,3.69,9.34,9a8,8,0,0,1-6.79,8.42l7,11.23h-5.78Zm1.88-13.52h-6.79v9.09h6.79a4.55,4.55,0,1,0,.5-9.09Z"/><path d="M536.4,109.35H556v4.46H541.41v7.42H555.7v4.41H541.41v8H556V138H536.4Z"/><path d="M569.6,117.11V138h-5V109.35h5.16l14.63,20.29V109.35h5V138h-4.85Z"/><path d="M598.91,109.35h10.63c8.93,0,14.94,5.92,14.94,14.32S618.42,138,609.54,138H598.91Zm10.63,24.2a9.41,9.41,0,0,0,9.84-9c0-.3,0-.6,0-.91,0-5.52-3.44-9.9-9.84-9.9h-5.62v19.78Z"/><path d="M633.11,130.11a12.31,12.31,0,0,0,9,3.95c4.07,0,5.76-2,5.76-3.91,0-2.56-3.06-3.34-6.53-4.25-4.68-1.15-10.16-2.52-10.16-8.57,0-4.72,4.15-8.36,10.41-8.36a14.91,14.91,0,0,1,10.73,4l-2.88,3.73a11.62,11.62,0,0,0-8.27-3.26c-3,0-4.85,1.36-4.85,3.56s2.92,3,6.31,3.82c4.72,1.2,10.33,2.71,10.33,8.88,0,4.76-3.34,8.84-11.07,8.84A15.35,15.35,0,0,1,630.31,134Z"/><path d="M432.8,165c5.33-3.93,6.9-5.28,6.9-6.89,0-1.12-1.05-1.69-2.14-1.69a4.62,4.62,0,0,0-3.47,1.5l-1.59-1.84a6.67,6.67,0,0,1,5-2.12c2.72,0,5,1.56,5,4.15,0,2.23-1.84,4.17-5.34,6.63h5.43v2.45h-9.8Z"/><path d="M470.77,154c3.71,0,5.43,3.35,5.43,6.79s-1.68,6.79-5.43,6.79-5.43-3.38-5.43-6.79S467,154,470.77,154Zm0,2.46c-1.88,0-2.58,1.86-2.58,4.26s.7,4.28,2.58,4.28,2.55-1.88,2.55-4.28S472.61,156.46,470.77,156.46Z"/><path d="M498.84,165c5.34-3.93,6.91-5.28,6.91-6.89,0-1.12-1.05-1.69-2.13-1.69a4.64,4.64,0,0,0-3.49,1.5l-1.55-1.84a6.67,6.67,0,0,1,5-2.12c2.72,0,5,1.56,5,4.15,0,2.23-1.85,4.17-5.34,6.63h5.43v2.45h-9.81Z"/><path d="M534.73,157.76l-2.2,2.23-1.59-1.66,4.08-4.07h2.43v13h-2.72Z"/></g><g id="INTRODUCING-2"><path d="M434,25.37h1.47v8.21H434Z"/><path d="M439.4,25.37h1.93l3.82,6.15h0V25.37h1.46v8.21h-1.85l-3.9-6.34h0v6.34H439.4Z"/><path d="M452.24,26.64h-2.52V25.37h6.49v1.27H453.7v6.94h-1.46Z"/><path d="M459.3,25.37h2.85a5.35,5.35,0,0,1,1.13.12,3.09,3.09,0,0,1,1,.4,2,2,0,0,1,.68.73,2.23,2.23,0,0,1,.26,1.1,2.11,2.11,0,0,1-.51,1.46,2.5,2.5,0,0,1-1.37.76l2.19,3.64h-1.76l-1.9-3.48H460.8v3.48h-1.5ZM462,28.91q.32,0,.63,0a1.9,1.9,0,0,0,.56-.17,1.07,1.07,0,0,0,.58-1,.9.9,0,0,0-.15-.55,1.07,1.07,0,0,0-.39-.34,1.61,1.61,0,0,0-.52-.18,5.61,5.61,0,0,0-.58,0h-1.32V29Z"/><path d="M468.25,29.45a4.54,4.54,0,0,1,.33-1.78,3.75,3.75,0,0,1,.91-1.35,4,4,0,0,1,1.39-.86,5,5,0,0,1,1.76-.3,5.12,5.12,0,0,1,1.78.3,4.14,4.14,0,0,1,1.4.86,3.91,3.91,0,0,1,.92,1.35,4.91,4.91,0,0,1,0,3.54,4.24,4.24,0,0,1-.92,1.37,4.12,4.12,0,0,1-1.4.89,4.92,4.92,0,0,1-1.78.32,4.81,4.81,0,0,1-1.76-.32,4,4,0,0,1-2.3-2.26A4.44,4.44,0,0,1,468.25,29.45Zm1.58,0a3.35,3.35,0,0,0,.21,1.21,2.79,2.79,0,0,0,.58,1,2.67,2.67,0,0,0,.89.63,3,3,0,0,0,2.29,0,2.57,2.57,0,0,0,.9-.63,2.79,2.79,0,0,0,.58-1,3.57,3.57,0,0,0,.2-1.21,3.66,3.66,0,0,0-.2-1.18,2.92,2.92,0,0,0-.57-1,2.73,2.73,0,0,0-2.06-.87,2.66,2.66,0,0,0-1.15.23,2.7,2.7,0,0,0-.89.64,2.77,2.77,0,0,0-.57,1A3.41,3.41,0,0,0,469.83,29.45Z"/><path d="M480.62,25.37h2.91a6.3,6.3,0,0,1,1.61.21,4.17,4.17,0,0,1,1.46.69,3.49,3.49,0,0,1,1.06,1.26,4.2,4.2,0,0,1,.4,1.94,4,4,0,0,1-.4,1.86,3.75,3.75,0,0,1-1.06,1.28,4.45,4.45,0,0,1-1.46.73,5.46,5.46,0,0,1-1.61.24h-2.91Zm2.68,6.93a4.78,4.78,0,0,0,1.13-.13,3,3,0,0,0,1-.45,2.61,2.61,0,0,0,.75-.87,2.86,2.86,0,0,0,.29-1.38,3.08,3.08,0,0,0-.29-1.43,2.34,2.34,0,0,0-.75-.87,2.62,2.62,0,0,0-1-.43,5.35,5.35,0,0,0-1.13-.12h-1.22V32.3Z"/><path d="M498.13,30.56a3.4,3.4,0,0,1-.25,1.34,3.1,3.1,0,0,1-1.7,1.64,3.88,3.88,0,0,1-1.31.23,3.65,3.65,0,0,1-1.31-.23,3,3,0,0,1-1.75-1.66,3.4,3.4,0,0,1-.25-1.34V25.35H493v5.14a2.82,2.82,0,0,0,.09.71,1.85,1.85,0,0,0,.31.63,1.56,1.56,0,0,0,.57.45,1.93,1.93,0,0,0,.88.18,1.86,1.86,0,0,0,.87-.18,1.4,1.4,0,0,0,.57-.45,1.69,1.69,0,0,0,.31-.63,2.82,2.82,0,0,0,.09-.71V25.35h1.46Z"/><path d="M507.91,27.25a1.92,1.92,0,0,0-.85-.64,3.12,3.12,0,0,0-1-.2,2.73,2.73,0,0,0-2.06.87,2.79,2.79,0,0,0-.58,1,3.73,3.73,0,0,0,0,2.41,2.9,2.9,0,0,0,.56,1,2.57,2.57,0,0,0,.87.62,3.05,3.05,0,0,0,1.15.22,2.42,2.42,0,0,0,2-1l1.17.82a3.81,3.81,0,0,1-1.33,1.06,4.35,4.35,0,0,1-1.85.38,4.86,4.86,0,0,1-1.77-.32,4,4,0,0,1-1.38-.89,4.21,4.21,0,0,1-.91-1.37,4.61,4.61,0,0,1-.32-1.76,4.34,4.34,0,0,1,.34-1.78,4.1,4.1,0,0,1,.94-1.35,4.18,4.18,0,0,1,1.41-.86,5,5,0,0,1,1.76-.3,4.47,4.47,0,0,1,.82.08,4.1,4.1,0,0,1,.83.23,3.49,3.49,0,0,1,.74.39,2.21,2.21,0,0,1,.59.55Z"/><path d="M512.22,25.37h1.46v8.21h-1.46Z"/><path d="M517.65,25.37h1.94l3.81,6.15h0V25.37h1.46v8.21H523l-3.86-6.33h0v6.34h-1.46Z"/><path d="M536,33.15a6.08,6.08,0,0,1-1.38.47,7.66,7.66,0,0,1-1.72.17,4.92,4.92,0,0,1-1.82-.32,4,4,0,0,1-2.34-2.26,4.44,4.44,0,0,1-.33-1.76,4.34,4.34,0,0,1,.34-1.78,4.1,4.1,0,0,1,.94-1.35,4.18,4.18,0,0,1,1.41-.86,5,5,0,0,1,1.76-.3,5.57,5.57,0,0,1,1.81.28,3.73,3.73,0,0,1,1.31.75l-1,1.06a2.48,2.48,0,0,0-.88-.59,3.2,3.2,0,0,0-1.22-.24,2.79,2.79,0,0,0-1.18.23,2.74,2.74,0,0,0-.9.64,2.77,2.77,0,0,0-.57,1,3.41,3.41,0,0,0-.21,1.18,3.35,3.35,0,0,0,.21,1.21,2.65,2.65,0,0,0,.58,1,2.52,2.52,0,0,0,.91.63,3.06,3.06,0,0,0,1.23.23,4.31,4.31,0,0,0,1.63-.29V30.16h-1.73V29H536Z"/></g><g id="_21_COLORS_TO_ELEVATE_YOUR_COMFORT_ZONE" data-name=" 21 COLORS TO ELEVATE YOUR COMFORT ZONE"><path d="M389.69,207.68H383v-1.35l4.09-4.07a5.07,5.07,0,0,0,.78-1,2,2,0,0,0,.34-1.17,1.77,1.77,0,0,0-.54-1.29,1.75,1.75,0,0,0-.57-.35,1.93,1.93,0,0,0-.71-.12,1.71,1.71,0,0,0-1.25.5,2.28,2.28,0,0,0-.64,1.25l-1.39-.24a3.24,3.24,0,0,1,.38-1.08,3.15,3.15,0,0,1,1.72-1.45,3.8,3.8,0,0,1,1.25-.2,4,4,0,0,1,1.25.19,3.35,3.35,0,0,1,1,.55,2.62,2.62,0,0,1,.71.91,2.85,2.85,0,0,1,.28,1.25,3.21,3.21,0,0,1-.14.92,3.35,3.35,0,0,1-.35.8,4.52,4.52,0,0,1-.53.71l-.63.67-3.34,3.25h5Z"/><path d="M397.8,207.68h-1.4v-8.55l-1.94,1.62-.82-1,2.91-2.37h1.25Z"/><path d="M418.68,206.08a4.82,4.82,0,0,1-1.59,1.35,5.05,5.05,0,0,1-2.33.51,5.76,5.76,0,0,1-2.17-.4,5.1,5.1,0,0,1-1.71-1.11,5.3,5.3,0,0,1-1.13-1.72,5.81,5.81,0,0,1-.4-2.18,5.64,5.64,0,0,1,.41-2.19,4.92,4.92,0,0,1,1.15-1.7,5.15,5.15,0,0,1,1.73-1.1,6,6,0,0,1,2.17-.39,6.24,6.24,0,0,1,1.06.1,5.82,5.82,0,0,1,1,.3,4.93,4.93,0,0,1,.9.5,3.57,3.57,0,0,1,.7.7l-1.14.86a2.69,2.69,0,0,0-1.06-.86,3.46,3.46,0,0,0-1.49-.34,4.07,4.07,0,0,0-1.61.33,3.67,3.67,0,0,0-1.25.89,4.17,4.17,0,0,0-.79,1.31,4.79,4.79,0,0,0-.27,1.59,4.48,4.48,0,0,0,.27,1.62,4,4,0,0,0,.76,1.31,3.64,3.64,0,0,0,1.25.88,3.85,3.85,0,0,0,1.6.32,3.44,3.44,0,0,0,1.58-.35,3.08,3.08,0,0,0,1.17-1Z"/><path d="M432.31,202.53a5.59,5.59,0,0,1-.41,2.18,5,5,0,0,1-2.86,2.83,6.15,6.15,0,0,1-4.35,0,5.41,5.41,0,0,1-1.72-1.11,5.07,5.07,0,0,1-1.12-1.72,6,6,0,0,1,0-4.37,4.84,4.84,0,0,1,1.12-1.7,5.21,5.21,0,0,1,1.72-1.1,6.26,6.26,0,0,1,4.35,0,5.11,5.11,0,0,1,1.72,1.1,4.9,4.9,0,0,1,1.14,1.7A5.64,5.64,0,0,1,432.31,202.53Zm-1.55,0a4.54,4.54,0,0,0-.27-1.59,4.17,4.17,0,0,0-.79-1.31,3.67,3.67,0,0,0-1.25-.89,4.16,4.16,0,0,0-3.21,0,3.37,3.37,0,0,0-1.25.89,4.14,4.14,0,0,0-.78,1.31,4.79,4.79,0,0,0-.27,1.59,4.9,4.9,0,0,0,.27,1.61,4.17,4.17,0,0,0,.79,1.31,3.55,3.55,0,0,0,1.25.88,3.82,3.82,0,0,0,1.6.32,3.89,3.89,0,0,0,1.61-.32,3.55,3.55,0,0,0,1.25-.88,4,4,0,0,0,.79-1.31A4.65,4.65,0,0,0,430.76,202.53Z"/><path d="M437.8,206.4h4.59v1.25h-6V197.39h1.43Z"/><path d="M455.8,202.53a5.59,5.59,0,0,1-.41,2.18,5,5,0,0,1-2.87,2.83,6.09,6.09,0,0,1-4.33,0,5,5,0,0,1-2.85-2.83,6,6,0,0,1,0-4.37,4.84,4.84,0,0,1,1.12-1.7,5.15,5.15,0,0,1,1.73-1.1,6.2,6.2,0,0,1,4.33,0,5.15,5.15,0,0,1,1.73,1.1,5,5,0,0,1,1.14,1.7A5.64,5.64,0,0,1,455.8,202.53Zm-1.55,0a4.54,4.54,0,0,0-.27-1.59,4.06,4.06,0,0,0-.79-1.31,3.54,3.54,0,0,0-1.25-.89,4.16,4.16,0,0,0-3.21,0,3.37,3.37,0,0,0-1.25.89,4,4,0,0,0-.79,1.31,4.8,4.8,0,0,0-.28,1.59,4.91,4.91,0,0,0,.28,1.61,4,4,0,0,0,.79,1.31,3.46,3.46,0,0,0,1.25.88,3.72,3.72,0,0,0,1.58.32,3.91,3.91,0,0,0,1.62-.32,3.64,3.64,0,0,0,1.25-.88,4,4,0,0,0,.78-1.31A4.45,4.45,0,0,0,454.25,202.53Z"/><path d="M461.25,207.68h-1.44V197.41h3.29a6.69,6.69,0,0,1,1.41.15,3.55,3.55,0,0,1,1.17.49,2.29,2.29,0,0,1,.78.88,2.63,2.63,0,0,1,.29,1.32,2.48,2.48,0,0,1-.69,1.83,3.17,3.17,0,0,1-1.8.88l2.88,4.72h-1.75l-2.6-4.57h-1.54Zm0-5.78h1.65a3.75,3.75,0,0,0,.94-.09,2.1,2.1,0,0,0,.76-.27,1.39,1.39,0,0,0,.51-.51,1.43,1.43,0,0,0,.19-.78,1.4,1.4,0,0,0-.69-1.25,2.08,2.08,0,0,0-.72-.26,4.41,4.41,0,0,0-.89-.09h-1.75Z"/><path d="M475.91,199.31a2.09,2.09,0,0,0-.82-.68,2.56,2.56,0,0,0-1.18-.28,2.82,2.82,0,0,0-.7.1,2,2,0,0,0-.65.3,1.71,1.71,0,0,0-.47.53,1.63,1.63,0,0,0-.18.75,1.44,1.44,0,0,0,.16.7,1.56,1.56,0,0,0,.45.47,2.82,2.82,0,0,0,.67.34l.82.27,1.07.37a4.1,4.1,0,0,1,1,.53,2.5,2.5,0,0,1,1,2.1,2.8,2.8,0,0,1-.3,1.39,2.48,2.48,0,0,1-.78,1,3.49,3.49,0,0,1-1.14.57,4.6,4.6,0,0,1-1.33.19,4.81,4.81,0,0,1-1.87-.38,3.69,3.69,0,0,1-1.5-1.12l1.11-.94a2.68,2.68,0,0,0,1,.88,2.82,2.82,0,0,0,1.31.32,2.16,2.16,0,0,0,.72-.1,2,2,0,0,0,.67-.31,1.69,1.69,0,0,0,.48-.55,1.45,1.45,0,0,0,.19-.79,1.39,1.39,0,0,0-.2-.77,1.55,1.55,0,0,0-.52-.53,3.11,3.11,0,0,0-.78-.37l-.94-.32a7.42,7.42,0,0,1-1-.35,3.33,3.33,0,0,1-.86-.53,2.74,2.74,0,0,1-.61-.82,2.82,2.82,0,0,1-.23-1.18,2.55,2.55,0,0,1,.31-1.32,2.75,2.75,0,0,1,.82-.91,3.32,3.32,0,0,1,1.12-.54,5.29,5.29,0,0,1,1.25-.16,4.38,4.38,0,0,1,1.68.33,3,3,0,0,1,1.25.85Z"/><path d="M490.34,207.68H488.9v-9h-3.29v-1.25h8v1.25h-3.29Z"/><path d="M507,202.53a5.59,5.59,0,0,1-.41,2.18,5.67,5.67,0,0,1-1.14,1.72,5.18,5.18,0,0,1-1.73,1.11,6,6,0,0,1-2.17.4,5.81,5.81,0,0,1-2.18-.4,5,5,0,0,1-2.85-2.83,6.2,6.2,0,0,1,0-4.37,5,5,0,0,1,2.85-2.8,5.8,5.8,0,0,1,2.18-.39,6,6,0,0,1,2.17.39,5.15,5.15,0,0,1,1.73,1.1,5,5,0,0,1,1.14,1.7A5.64,5.64,0,0,1,507,202.53Zm-1.55,0a4.8,4.8,0,0,0-.28-1.59,4,4,0,0,0-.79-1.31,3.49,3.49,0,0,0-1.25-.89,4.16,4.16,0,0,0-3.21,0,3.54,3.54,0,0,0-1.25.89,3.94,3.94,0,0,0-.77,1.31,4.55,4.55,0,0,0-.28,1.59,4.66,4.66,0,0,0,.28,1.61,4,4,0,0,0,.79,1.31,3.46,3.46,0,0,0,1.25.88,3.77,3.77,0,0,0,1.59.32,3.91,3.91,0,0,0,1.62-.32,3.64,3.64,0,0,0,1.25-.88,4,4,0,0,0,.78-1.31A4.9,4.9,0,0,0,505.49,202.53Z"/><path d="M518.11,206.4h5.37v1.25h-6.8V197.39h6.58v1.25h-5.15v3.07H523V203h-4.84Z"/><path d="M528.75,206.4h4.59v1.25h-6V197.39h1.42Z"/><path d="M538.29,206.4h5.36v1.25h-6.8V197.39h6.59v1.25h-5.15v3.07h4.84V203h-4.84Z"/><path d="M551.31,205.83h0l3.09-8.42H556l-4,10.27h-1.32l-4-10.27h1.59Z"/><path d="M558.94,207.68h-1.6l4.45-10.27H563l4.41,10.27h-1.63l-1-2.5H560Zm1.52-3.75h3.85l-1.91-4.82Z"/><path d="M573.45,207.68H572v-9h-3.28v-1.25h8v1.25h-3.3Z"/><path d="M581.64,206.4H587v1.25h-6.79V197.39h6.58v1.25h-5.15v3.07h4.85V203h-4.85Z"/><path d="M393.27,227h-1.45v-4.44L388,216.69h1.76l2.84,4.64,2.86-4.64h1.66l-3.84,5.82Z"/><path d="M410.11,221.8a5.48,5.48,0,0,1-.42,2.19,5.13,5.13,0,0,1-2.87,2.82,6,6,0,0,1-4.33,0,5.09,5.09,0,0,1-2.85-2.82,6.26,6.26,0,0,1,0-4.39,4.92,4.92,0,0,1,1.13-1.69,5.11,5.11,0,0,1,1.72-1.1,6.35,6.35,0,0,1,4.34,0,5,5,0,0,1,2.86,2.79A5.56,5.56,0,0,1,410.11,221.8Zm-1.56,0a4.34,4.34,0,0,0-.28-1.59,3.66,3.66,0,0,0-2-2.2,4.2,4.2,0,0,0-3.23,0,3.81,3.81,0,0,0-1.25.89,4.23,4.23,0,0,0-.77,1.31,4.55,4.55,0,0,0-.28,1.59,4.62,4.62,0,0,0,.28,1.61,4.16,4.16,0,0,0,.77,1.32,3.81,3.81,0,0,0,2.84,1.18,3.81,3.81,0,0,0,2.86-1.18,3.75,3.75,0,0,0,.78-1.32A4.42,4.42,0,0,0,408.55,221.8Z"/><path d="M418.06,227.26a4,4,0,0,1-1.77-.35A3.6,3.6,0,0,1,415,226a3.74,3.74,0,0,1-.73-1.25,4.77,4.77,0,0,1-.24-1.51v-6.46h1.43v6.37a4.07,4.07,0,0,0,.14,1,2.52,2.52,0,0,0,.42.91,2.32,2.32,0,0,0,.79.67,3.24,3.24,0,0,0,2.41,0,2.32,2.32,0,0,0,.79-.67,2.37,2.37,0,0,0,.42-.91,4.07,4.07,0,0,0,.14-1v-6.37h1.44v6.46a4.78,4.78,0,0,1-.25,1.51,3.46,3.46,0,0,1-2,2.2A3.92,3.92,0,0,1,418.06,227.26Z"/><path d="M428,227h-1.43V216.69h3.28a6.62,6.62,0,0,1,1.41.15,3.35,3.35,0,0,1,1.17.49,2.12,2.12,0,0,1,.78.87,2.57,2.57,0,0,1,.3,1.33,2.43,2.43,0,0,1-.7,1.82,3.24,3.24,0,0,1-1.8.89L433.9,227h-1.74l-2.61-4.57H428Zm0-5.77h1.65a5,5,0,0,0,.95-.09,2.21,2.21,0,0,0,.75-.29,1.34,1.34,0,0,0,.53-.5,1.57,1.57,0,0,0,.19-.77,1.53,1.53,0,0,0-.19-.78,1.7,1.7,0,0,0-.5-.5,2.44,2.44,0,0,0-.74-.27,5.26,5.26,0,0,0-.89-.08H428Z"/><path d="M452,225.35a4.6,4.6,0,0,1-1.57,1.34,4.77,4.77,0,0,1-2.34.52,5.85,5.85,0,0,1-2.18-.4,5,5,0,0,1-1.7-1.12,4.84,4.84,0,0,1-1.12-1.7,6,6,0,0,1,0-4.39,4.88,4.88,0,0,1,1.15-1.69,5.38,5.38,0,0,1,1.72-1.1,6,6,0,0,1,2.18-.38,5.65,5.65,0,0,1,2.09.4,3.62,3.62,0,0,1,.9.5,3.23,3.23,0,0,1,.7.68l-1.13.88a2.8,2.8,0,0,0-1.07-.86,3.22,3.22,0,0,0-1.49-.34,3.86,3.86,0,0,0-1.61.32,3.71,3.71,0,0,0-1.25.89,4.1,4.1,0,0,0-.79,1.31,4.77,4.77,0,0,0,0,3.22,4.2,4.2,0,0,0,.76,1.31,3.49,3.49,0,0,0,1.25.87,3.86,3.86,0,0,0,1.6.33,3.72,3.72,0,0,0,1.58-.35,3,3,0,0,0,1.17-1Z"/><path d="M465.6,221.8a5.68,5.68,0,0,1-.41,2.19,5,5,0,0,1-1.14,1.7,5,5,0,0,1-1.73,1.12,6.06,6.06,0,0,1-4.33,0,5.06,5.06,0,0,1-1.73-1.12,4.84,4.84,0,0,1-1.12-1.7,6,6,0,0,1,0-4.39,4.9,4.9,0,0,1,1.12-1.69,5.31,5.31,0,0,1,1.73-1.1,6.36,6.36,0,0,1,4.33,0,5.31,5.31,0,0,1,1.73,1.1,5.1,5.1,0,0,1,1.14,1.69A5.73,5.73,0,0,1,465.6,221.8Zm-1.55,0a4.34,4.34,0,0,0-.28-1.59,4.07,4.07,0,0,0-.78-1.31,3.67,3.67,0,0,0-1.25-.89,4.18,4.18,0,0,0-3.22,0,3.81,3.81,0,0,0-1.25.89,4.43,4.43,0,0,0-.77,1.31,5.07,5.07,0,0,0-.28,1.59,4.87,4.87,0,0,0,.28,1.61,4,4,0,0,0,.79,1.32,3.64,3.64,0,0,0,2.81,1.18,3.88,3.88,0,0,0,1.61-.31,3.75,3.75,0,0,0,1.25-.87,4,4,0,0,0,.79-1.32,4.42,4.42,0,0,0,.3-1.61Z"/><path d="M475,224.56h0l3-7.87h2.23V227h-1.43v-8.59h0L475.42,227h-.91l-3.4-8.59h0V227h-1.38V216.69H472Z"/><path d="M486.25,227h-1.44V216.69h6.44v1.25h-5v3.2h4.65v1.25h-4.65Z"/><path d="M505.4,221.8A5.68,5.68,0,0,1,505,224a5.14,5.14,0,0,1-2.86,2.82,6,6,0,0,1-4.34,0,5.09,5.09,0,0,1-2.85-2.82,6.26,6.26,0,0,1,0-4.39,4.81,4.81,0,0,1,1.14-1.69,5,5,0,0,1,1.71-1.1,6.35,6.35,0,0,1,4.34,0A5,5,0,0,1,505,219.6,5.73,5.73,0,0,1,505.4,221.8Zm-1.55,0a4.54,4.54,0,0,0-.27-1.59,4,4,0,0,0-.78-1.31,3.71,3.71,0,0,0-1.25-.89,3.94,3.94,0,0,0-1.62-.32,3.78,3.78,0,0,0-1.6.32,3.61,3.61,0,0,0-1.25.89,3.8,3.8,0,0,0-.78,1.31,4.33,4.33,0,0,0-.27,1.59,4.4,4.4,0,0,0,.27,1.61,3.75,3.75,0,0,0,.78,1.32,3.66,3.66,0,0,0,1.25.87,3.75,3.75,0,0,0,1.58.31,3.9,3.9,0,0,0,1.62-.31,3.54,3.54,0,0,0,2-2.19A4.42,4.42,0,0,0,503.85,221.8Z"/><path d="M510.9,227h-1.44V216.69h3.29a6.69,6.69,0,0,1,1.41.15,3.35,3.35,0,0,1,1.17.49,2.47,2.47,0,0,1,.8.87,2.77,2.77,0,0,1,.28,1.33,2.47,2.47,0,0,1-.7,1.82,3.24,3.24,0,0,1-1.8.89l2.88,4.71H515l-2.5-4.57H511Zm0-5.77h1.6a5,5,0,0,0,1-.09,2.21,2.21,0,0,0,.75-.29,1.34,1.34,0,0,0,.53-.5,1.46,1.46,0,0,0,.18-.77,1.52,1.52,0,0,0-.18-.78,1.7,1.7,0,0,0-.5-.5,2.54,2.54,0,0,0-.74-.27,5.35,5.35,0,0,0-.89-.08h-1.75Z"/><path d="M524.15,227h-1.42v-9h-3.3v-1.25h8.07v1.25h-3.3Z"/><path d="M543.26,217.94l-5.76,7.74h5.89v1.25h-7.63v-1.25l5.79-7.75h-5.67v-1.25h7.42Z"/><path d="M557,221.8a5.68,5.68,0,0,1-.41,2.19,5.14,5.14,0,0,1-2.86,2.82,6,6,0,0,1-4.34,0,5.09,5.09,0,0,1-2.85-2.82,6.26,6.26,0,0,1,0-4.39,4.81,4.81,0,0,1,1.14-1.69,5,5,0,0,1,1.71-1.1,6.35,6.35,0,0,1,4.34,0,5,5,0,0,1,2.86,2.79A5.73,5.73,0,0,1,557,221.8Zm-1.55,0a4.54,4.54,0,0,0-.27-1.59,4,4,0,0,0-.78-1.31,3.81,3.81,0,0,0-1.25-.89,3.94,3.94,0,0,0-1.62-.32,3.78,3.78,0,0,0-1.6.32,3.49,3.49,0,0,0-1.25.89,3.8,3.8,0,0,0-.78,1.31,4.33,4.33,0,0,0-.27,1.59,4.4,4.4,0,0,0,.27,1.61,3.86,3.86,0,0,0,.9,1.35,3.64,3.64,0,0,0,1.25.88,3.76,3.76,0,0,0,1.59.31,4,4,0,0,0,1.61-.31,3.64,3.64,0,0,0,1.25-.88,3.87,3.87,0,0,0,.78-1.31,4.81,4.81,0,0,0,.17-1.65Z"/><path d="M568.25,224.89h0v-8.2h1.44V227h-1.81l-5.38-8.44h0v8.39h-1.44V216.64h1.88Z"/><path d="M575.74,225.68h5.36v1.25h-6.8V216.66h6.59v1.25h-5.15V221h4.85v1.25h-4.85Z"/></g></g></g></g></svg>