<svg xmlns="http://www.w3.org/2000/svg" viewBox="0 0 300 600"><title>footer</title><g id="Layer_2" data-name="Layer 2"><g id="rect"><rect width="300" height="600" fill="none"/></g><g id="Layer_13" data-name="Layer 13"><rect x="260.04" y="558.04" width="26.96" height="26.96" fill="#f48120"/><path d="M284.86,583.68a.77.77,0,0,1,1.54,0,.77.77,0,0,1-1.54,0Zm.77.64a.64.64,0,1,0-.62-.64A.61.61,0,0,0,285.63,584.32Zm-.16-.2h-.13v-.87h.33c.21,0,.31.07.31.25a.23.23,0,0,1-.23.24l.25.38h-.15l-.23-.38h-.15Zm.16-.49c.11,0,.21,0,.21-.14s-.1-.13-.19-.13h-.18v.27Z" fill="#fff"/><path d="M266,579.38l-.7.7-.46-.46.7-.7-1.81-1.81c-.29-.29-.33-.35-.7-.16a.29.29,0,0,1-.39,0c-.23-.23,0-.5,0-.54l2.25-2.24s.31-.28.54,0a.32.32,0,0,1,0,.39c-.19.36-.14.4.16.7l4.17,4.17c.29.29.33.35.7.16a.32.32,0,0,1,.39,0c.23.23,0,.51,0,.54l-2.25,2.25s-.31.27-.54,0a.32.32,0,0,1,0-.39c.2-.36.14-.4-.15-.7Zm-6-.34,1.92-1.91s.31-.28.54,0a.32.32,0,0,1,0,.39c-.19.37-.14.41.16.7l4.17,4.17c.29.3.33.35.7.16a.32.32,0,0,1,.39,0c.23.23,0,.51,0,.54L266,585h-.91c.19-.37.14-.41-.16-.7l-4.17-4.17c-.29-.3-.33-.36-.7-.16h0Z" fill="#fff"/><path d="M268.16,571.61a.75.75,0,0,0,.17,1l4.12,4.12a.75.75,0,0,0,1,.17l.46.46c-1.83,1.53-4,1-5.57-.63s-2.15-3.73-.62-5.56Zm5.63,4.91a.77.77,0,0,0-.17-1l-4.13-4.12a.74.74,0,0,0-1-.17l-.46-.46c1.83-1.53,4-1,5.56.63s2.16,3.73.63,5.56Z" fill="#fff"/><path d="M282.56,567.94a.3.3,0,0,0-.39,0c-.36.19-.4.13-.7-.16l-4.17-4.17c-.29-.3-.35-.34-.16-.7a.32.32,0,0,0,0-.39c-.23-.23-.51,0-.54,0l-2.1,2.1,1.72,3.17,0,0-3.29-1.59-2,2c-.09.1-.33.34-.08.58s.42,0,.52-.09.27-.06.46,0a2.3,2.3,0,0,1,.49.2l6.58,3.27.23-.23-3.22-6,3.7,3.69c.29.3.35.34.16.7a.29.29,0,0,0,0,.39c.23.23.5,0,.54,0l2.24-2.24S282.79,568.17,282.56,567.94Z" fill="#fff"/><path d="M276.34,572.13,275,570.77l-1.76-.87h0l2.68,2.69c.87,1.12.05,1.32.39,1.66s.56-.1.65-.19l.9-.9c.09-.09.43-.4.18-.64S277.46,573,276.34,572.13Z" fill="#fff"/><path d="M277.44,561.64l2.1-2.09,5.95,6-2.1,2.1s-.31.27-.54,0a.32.32,0,0,1,0-.39c.19-.36.14-.4-.16-.7l-4.17-4.17c-.29-.29-.33-.35-.7-.16a.29.29,0,0,1-.39,0C277.16,562,277.41,561.68,277.44,561.64Zm4.85-3.6,1,1s.19.2,0,.44-.26.1-.42,0a2.14,2.14,0,0,0-2.45.16l-.46-.46L281,558Zm4.71,6-1.15,1.15-.46-.46a2.29,2.29,0,0,0,.19-2.5c-.06-.18-.14-.35,0-.5a.31.31,0,0,1,.5.05l.92.91Zm-4.45-2.14a1.2,1.2,0,0,0-.14-1.26c-.1-.17-.18-.35,0-.52s.5.08.56.15l1.72,1.72c.06.06.39.31.14.55s-.34.09-.52,0a1.19,1.19,0,0,0-1.25-.15Z" fill="#fff"/><path d="M272,580.47c.75-.77,1.91-.88,3.12.22a2.14,2.14,0,0,1,.23,3.13l-.26-.26c.23-.31,0-.58-.18-.75L273,580.9c-.17-.17-.44-.41-.75-.17Z" fill="#fff"/><path d="M273.66,585l0-.1c.05-.11-.07-.22-.14-.29l-2.35-2.34c-.06-.07-.18-.2-.29-.14s-.22.13-.33,0,0-.25.07-.33l1.15-1.15,3.35,3.35-1,1Z" fill="#fff"/><path d="M273.69,578.8l1.18-1.18,3.35,3.35L277,582.15s-.18.15-.31,0a.17.17,0,0,1,0-.21c.11-.21.08-.23-.09-.4l-2.35-2.34c-.16-.17-.18-.2-.39-.09a.18.18,0,0,1-.22,0C273.53,579,273.67,578.82,273.69,578.8Zm1.38-1.38,1-1,.91.91s.1.11,0,.24-.15.06-.24,0a1.23,1.23,0,0,0-1.38.1Zm3.09,3.09a1.3,1.3,0,0,0,.11-1.42c0-.09-.08-.19,0-.27a.17.17,0,0,1,.28,0l.9.9-1,1Zm-1.6-1.6a.66.66,0,0,0-.07-.7c-.06-.1-.1-.2,0-.3s.28.05.31.08l1,1s.22.18.08.31-.19.05-.29,0a.68.68,0,0,0-.71-.08Z" fill="#fff"/><path d="M277.8,574.69a2.43,2.43,0,0,1,1.05-.72,1.48,1.48,0,0,1,1.73,1.74,2.34,2.34,0,0,1-.72,1l-.26-.26c.22-.31,0-.51-.17-.73l-.68-.67c-.2-.21-.42-.35-.7-.15Zm-.8,1.8c-.17-.16-.19-.19-.4-.09a.17.17,0,0,1-.21,0,.21.21,0,0,1,0-.3l1.18-1.18,2.85,2.84c.17.17.19.2.39.09a.18.18,0,0,1,.22,0c.13.13,0,.29,0,.31l-1.27,1.26a.19.19,0,0,1-.27,0,.17.17,0,0,1,0-.21c.11-.21.05-.21-.12-.37Z" fill="#fff"/><path d="M280.63,572.24a.42.42,0,0,0,.1.55l2.31,2.32a.42.42,0,0,0,.55.09l.26.26a2.52,2.52,0,0,1-3.48-3.48ZM283.8,575a.43.43,0,0,0-.1-.55l-2.32-2.32a.43.43,0,0,0-.55-.09l-.26-.26a2.52,2.52,0,0,1,3.48,3.48Z" fill="#fff"/><path d="M287,572.18l-1.07,1.08s-.18.15-.31,0a.18.18,0,0,1,0-.22c.11-.2.08-.22-.09-.39l-2.85-2.85,1.1-1.09,2.85,2.84c.16.17.18.2.39.09Zm-1.35-3.26a.19.19,0,0,1,0,.28c-.12.13-.26,0-.37-.05a1.43,1.43,0,0,0-1-.36l-.26-.26.65-.65Zm-3.83,1.75.64-.64.26.25a1.48,1.48,0,0,0,.37,1c.08.11.17.25.05.37a.19.19,0,0,1-.28,0Z" fill="#fff"/><path d="M263.27,568.25l1-1,2.68,2.67c.15.16.17.19.37.09a.15.15,0,0,1,.2,0c.12.12,0,.27,0,.28l-1.19,1.2s-.17.14-.29,0a.17.17,0,0,1,0-.21c.1-.19.07-.21-.08-.37Zm2.81-.85a.2.2,0,0,1,0,.27c-.12.11-.25,0-.35-.06a1.39,1.39,0,0,0-1-.34l-.25-.24.61-.61Zm-3.6,1.64.6-.6.25.24a1.29,1.29,0,0,0,.34,1c.08.11.17.24.05.36a.18.18,0,0,1-.26,0Z" fill="#fff"/><path d="M269.16,567.71c.16.15.18.18.37.08a.17.17,0,0,1,.21,0c.12.12,0,.27,0,.29l-1.19,1.19a.19.19,0,0,1-.28,0,.15.15,0,0,1,0-.2c.1-.2.07-.22-.09-.37l-2.2-2.21c-.16-.15-.18-.18-.37-.08a.17.17,0,0,1-.21,0c-.12-.12,0-.27,0-.29l1.19-1.19s.16-.15.29,0a.18.18,0,0,1,0,.2c-.11.2-.08.22.08.37Zm-.44-1.57-.37.37-.25-.24.37-.37-1-1c-.16-.15-.18-.18-.37-.08a.17.17,0,0,1-.21,0c-.12-.12,0-.27,0-.29l1.19-1.19s.16-.14.28,0a.17.17,0,0,1,0,.2c-.1.2-.08.22.08.37l2.2,2.21c.16.15.18.18.37.08a.17.17,0,0,1,.21,0c.12.12,0,.27,0,.29l-1.19,1.19a.19.19,0,0,1-.28,0,.15.15,0,0,1,0-.2c.1-.2.07-.22-.09-.37Z" fill="#fff"/><path d="M268.78,562.74l1.11-1.11,3.14,3.15-1.11,1.11s-.16.15-.28,0a.17.17,0,0,1,0-.21c.1-.19.07-.22-.09-.37l-2.2-2.2c-.16-.16-.18-.19-.37-.09a.17.17,0,0,1-.21,0C268.63,562.91,268.76,562.76,268.78,562.74Zm1.3-1.3.93-.93.86.85s.09.11,0,.23-.14,0-.22,0a1.15,1.15,0,0,0-1.3.09Zm2.9,2.91a1.21,1.21,0,0,0,.1-1.33c0-.09-.07-.18,0-.26a.17.17,0,0,1,.27,0l.84.84-1,1Zm-1.5-1.5a.63.63,0,0,0-.08-.67c0-.09-.09-.18,0-.27s.26,0,.3.08l.9.91s.21.16.08.29-.18,0-.27,0a.63.63,0,0,0-.67-.08Z" fill="#fff"/><path d="M260.7,552.91H263v.55h-1.59v.65h1.46v.51h-1.46v.74H263v.55H260.7Z" fill="#fff"/><path d="M263.83,554.77l-.71-1h.68l.38.56.38-.56h.66l-.71,1,.8,1.16h-.68l-.45-.69-.46.69h-.67Z" fill="#fff"/><path d="M266.93,554.5a.4.4,0,0,0-.44-.37c-.38,0-.51.38-.51.7s.13.69.5.69a.47.47,0,0,0,.48-.44h.57a1,1,0,0,1-1,.89,1.05,1.05,0,0,1-1.09-1.12,1.07,1.07,0,0,1,1.11-1.17.93.93,0,0,1,1,.82Z" fill="#fff"/><path d="M267.8,552.91h.6v3h-.6Z" fill="#fff"/><path d="M270.82,555.91h-.56v-.3h0a.78.78,0,0,1-.66.36c-.64,0-.8-.36-.8-.9v-1.33h.6V555c0,.36.11.54.38.54s.47-.18.47-.62v-1.14h.59Z" fill="#fff"/><path d="M271.66,555.2c0,.26.22.37.46.37s.39-.07.39-.28-.25-.24-.68-.33-.69-.2-.69-.58c0-.56.48-.7.95-.7s.91.16,1,.69h-.56c0-.23-.2-.29-.41-.29s-.33,0-.33.2.33.24.67.32.69.21.69.61c0,.57-.49.76-1,.76s-1-.19-1-.77Z" fill="#fff"/><path d="M274,553.4h-.59v-.49H274Zm-.59.34H274v2.17h-.59Z" fill="#fff"/><path d="M275.57,555.91h-.66l-.75-2.17h.63l.46,1.48h0l.46-1.48h.59Z" fill="#fff"/><path d="M277,555c0,.38.21.55.54.55a.5.5,0,0,0,.47-.28h.52a1,1,0,0,1-1,.73,1.06,1.06,0,0,1-1.11-1.14,1.09,1.09,0,1,1,2.16.14Zm1-.38c-.06-.3-.19-.46-.48-.46a.47.47,0,0,0-.5.46Z" fill="#fff"/><path d="M278.82,552.91h.6v3h-.6Z" fill="#fff"/><path d="M280.88,556.18a.69.69,0,0,1-.75.5,2.22,2.22,0,0,1-.37,0v-.49a2,2,0,0,0,.35,0,.28.28,0,0,0,.21-.4l-.77-2h.64l.49,1.48h0l.48-1.48h.61Z" fill="#fff"/><path d="M283,554.41c0-.56.54-.73,1-.73s1,.09,1,.62v1.13a1.22,1.22,0,0,0,.07.48h-.6a.78.78,0,0,1,0-.21,1,1,0,0,1-.74.27.65.65,0,0,1-.74-.65c0-.49.37-.61.74-.66s.71,0,.71-.29-.18-.29-.39-.29-.37.09-.39.33Zm1.38.44a1.26,1.26,0,0,1-.5.12c-.18,0-.35.1-.35.32s.17.28.37.28a.44.44,0,0,0,.48-.5Z" fill="#fff"/><path d="M286.07,553.74h.44v.4h-.44v1.07c0,.2.05.25.26.25h.18v.46a1.9,1.9,0,0,1-.35,0c-.36,0-.68-.09-.68-.52v-1.28h-.37v-.4h.37v-.66h.59Z" fill="#fff"/></g><g id="CTA"><g id="Rounded_Rectangle_1" data-name="Rounded Rectangle 1"><rect x="17" y="553" width="195" height="31" rx="4" fill="#fff"/></g><g id="EXPLORE_THE_PALETTE_" data-name="EXPLORE THE PALETTE &gt;"><path d="M30.88,571.31h4.29v1H29.73v-8.21H35v1H30.88v2.46h3.87v1H30.88Z" fill="#19191d"/><path d="M41.42,567.18l1.95-3.06h1.34L42.09,568l3,4.33H43.62l-2.25-3.46-2.2,3.46H37.76L40.69,568l-2.64-3.86h1.4Z" fill="#19191d"/><path d="M47.91,564.12h2.5a5,5,0,0,1,1.21.13,2.82,2.82,0,0,1,.93.41,1.94,1.94,0,0,1,.59.71,2.34,2.34,0,0,1,.21,1,2.3,2.3,0,0,1-.23,1.06,2,2,0,0,1-.63.72,2.84,2.84,0,0,1-1,.41,4.93,4.93,0,0,1-1.19.13H49.06v3.61H47.91Zm1.15,3.63h1.21a3.64,3.64,0,0,0,.77-.08,1.76,1.76,0,0,0,.61-.23,1.05,1.05,0,0,0,.4-.41,1.33,1.33,0,0,0,.14-.63,1.21,1.21,0,0,0-.15-.62,1.15,1.15,0,0,0-.39-.4,1.59,1.59,0,0,0-.6-.22,3.54,3.54,0,0,0-.75-.07H49.06Z" fill="#19191d"/><path d="M57.45,571.31h3.66v1H56.3v-8.21h1.15Z" fill="#19191d"/><path d="M71.84,568.21a4.51,4.51,0,0,1-.33,1.75,4.16,4.16,0,0,1-.91,1.37,4,4,0,0,1-1.38.89,4.86,4.86,0,0,1-3.47,0,4.15,4.15,0,0,1-1.38-.89,4.29,4.29,0,0,1-.9-1.37,4.95,4.95,0,0,1,0-3.5,4,4,0,0,1,.9-1.36,4.12,4.12,0,0,1,1.38-.88,5,5,0,0,1,3.47,0,4,4,0,0,1,2.29,2.24A4.51,4.51,0,0,1,71.84,568.21Zm-1.24,0a3.57,3.57,0,0,0-.22-1.27,3.24,3.24,0,0,0-.62-1.05,3,3,0,0,0-1-.71,3.21,3.21,0,0,0-1.3-.26,3.11,3.11,0,0,0-1.28.26,2.77,2.77,0,0,0-1,.71,3.07,3.07,0,0,0-.62,1.05,3.57,3.57,0,0,0-.22,1.27,3.64,3.64,0,0,0,.22,1.29,3.07,3.07,0,0,0,.62,1,2.88,2.88,0,0,0,1,.7,3.07,3.07,0,0,0,1.27.26,3.2,3.2,0,0,0,1.29-.26,2.92,2.92,0,0,0,1-.7,3.24,3.24,0,0,0,.62-1A3.64,3.64,0,0,0,70.6,568.21Z" fill="#19191d"/><path d="M76.24,572.33H75.09v-8.21h2.63a5.15,5.15,0,0,1,1.13.12,2.77,2.77,0,0,1,.93.39,1.85,1.85,0,0,1,.63.7,2.16,2.16,0,0,1,.24,1.06,2,2,0,0,1-.56,1.46,2.59,2.59,0,0,1-1.44.71l2.3,3.77H79.56l-2.09-3.65H76.24Zm0-4.62h1.32a3.54,3.54,0,0,0,.75-.07,1.76,1.76,0,0,0,.61-.22,1.15,1.15,0,0,0,.41-.41,1.08,1.08,0,0,0,.16-.62,1.1,1.1,0,0,0-.16-.62,1.18,1.18,0,0,0-.4-.4,1.66,1.66,0,0,0-.58-.21,3.29,3.29,0,0,0-.71-.07h-1.4Z" fill="#19191d"/><path d="M85,571.31h4.29v1H83.89v-8.21h5.27v1H85v2.46h3.87v1H85Z" fill="#19191d"/><path d="M99.88,572.33H98.74v-7.2H96.1v-1h6.42v1H99.88Z" fill="#19191d"/><path d="M105.29,564.12h1.15v3.43h4.15v-3.43h1.16v8.21h-1.16v-3.76h-4.15v3.76h-1.15Z" fill="#19191d"/><path d="M116.57,571.31h4.29v1h-5.44v-8.21h5.27v1h-4.12v2.46h3.87v1h-3.87Z" fill="#19191d"/><path d="M128.54,564.12H131a5,5,0,0,1,1.21.13,2.82,2.82,0,0,1,.93.41,1.94,1.94,0,0,1,.59.71,2.34,2.34,0,0,1,.21,1,2.3,2.3,0,0,1-.23,1.06,2.05,2.05,0,0,1-.62.72,3,3,0,0,1-1,.41,4.91,4.91,0,0,1-1.18.13h-1.3v3.61h-1.15Zm1.15,3.63h1.21a3.81,3.81,0,0,0,.78-.08,1.79,1.79,0,0,0,.6-.23,1.05,1.05,0,0,0,.4-.41,1.33,1.33,0,0,0,.14-.63,1.21,1.21,0,0,0-.15-.62,1.15,1.15,0,0,0-.39-.4,1.59,1.59,0,0,0-.6-.22,3.54,3.54,0,0,0-.75-.07h-1.24Z" fill="#19191d"/><path d="M136.63,572.33h-1.28l3.57-8.21h1l3.52,8.21h-1.29l-.84-2h-3.9Zm1.23-3h3.07l-1.53-3.85Z" fill="#19191d"/><path d="M147.38,571.31H151v1h-4.81v-8.21h1.15Z" fill="#19191d"/><path d="M155,571.31h4.29v1h-5.43v-8.21h5.26v1H155v2.46h3.88v1H155Z" fill="#19191d"/><path d="M165.49,572.33h-1.15v-7.2h-2.63v-1h6.41v1h-2.63Z" fill="#19191d"/><path d="M174.22,572.33h-1.15v-7.2h-2.63v-1h6.41v1h-2.63Z" fill="#19191d"/><path d="M180.77,571.31h4.29v1h-5.44v-8.21h5.26v1h-4.11v2.46h3.87v1h-3.87Z" fill="#19191d"/><path d="M192.5,563.56l4.89,3.6v.93l-4.89,3.59v-1.32l3.69-2.74-3.69-2.73Z" fill="#19191d"/></g></g></g></svg>