<svg xmlns="http://www.w3.org/2000/svg" viewBox="0 0 300 600"><title>overlay</title><g id="Layer_2" data-name="Layer 2"><g id="rect"><rect width="300" height="600" fill="none"/></g><g id="INTRODUCING"><path d="M98.31,211.12h1.46v8.21H98.31Z"/><path d="M103.75,211.12h1.93l3.82,6.15h0v-6.15H111v8.21h-1.85l-3.9-6.34h0v6.34h-1.46Z"/><path d="M116.58,212.39h-2.51v-1.27h6.49v1.27h-2.51v6.94h-1.47Z"/><path d="M123.65,211.12h2.85a5.29,5.29,0,0,1,1.13.12,3,3,0,0,1,1,.4,2.07,2.07,0,0,1,.68.73,2.21,2.21,0,0,1,.26,1.1,2.1,2.1,0,0,1-.51,1.46,2.53,2.53,0,0,1-1.37.76l2.19,3.64h-1.76l-1.9-3.48h-1.07v3.48h-1.46Zm2.65,3.54a4.46,4.46,0,0,0,.63,0,1.84,1.84,0,0,0,.56-.17,1.06,1.06,0,0,0,.58-1,.94.94,0,0,0-.15-.55,1.16,1.16,0,0,0-.39-.34,1.66,1.66,0,0,0-.53-.18,3.64,3.64,0,0,0-.57,0h-1.32v2.31Z"/><path d="M132.59,215.2a4.59,4.59,0,0,1,.33-1.78,4,4,0,0,1,.92-1.35,4.12,4.12,0,0,1,1.39-.86,5.34,5.34,0,0,1,3.53,0,4.11,4.11,0,0,1,1.41.86,3.9,3.9,0,0,1,.92,1.35,4.91,4.91,0,0,1,0,3.54,4,4,0,0,1-2.33,2.26,5,5,0,0,1-3.53,0,4.19,4.19,0,0,1-1.39-.89,4.34,4.34,0,0,1-.92-1.37A4.56,4.56,0,0,1,132.59,215.2Zm1.59,0a3.34,3.34,0,0,0,.21,1.21,2.6,2.6,0,0,0,.58,1,2.67,2.67,0,0,0,.89.63,2.8,2.8,0,0,0,1.14.23,2.88,2.88,0,0,0,1.15-.23,2.61,2.61,0,0,0,.9-.63,2.9,2.9,0,0,0,.58-1,3.57,3.57,0,0,0,.2-1.21,3.48,3.48,0,0,0-.2-1.18,2.86,2.86,0,0,0-.58-1,2.51,2.51,0,0,0-.89-.64,2.73,2.73,0,0,0-1.16-.23,2.69,2.69,0,0,0-1.15.23,2.6,2.6,0,0,0-.89.64,2.68,2.68,0,0,0-.57,1A3.25,3.25,0,0,0,134.18,215.2Z"/><path d="M145,211.12h2.91a6.41,6.41,0,0,1,1.61.21A4.18,4.18,0,0,1,151,212a3.64,3.64,0,0,1,1.06,1.26,4.19,4.19,0,0,1,.4,1.94,4,4,0,0,1-.4,1.86,3.91,3.91,0,0,1-1.06,1.28,4.45,4.45,0,0,1-1.46.73,5.66,5.66,0,0,1-1.61.24H145Zm2.68,6.93a4.9,4.9,0,0,0,1.13-.13,3.08,3.08,0,0,0,1-.45,2.47,2.47,0,0,0,.75-.87,2.94,2.94,0,0,0,.29-1.38,3.13,3.13,0,0,0-.29-1.43,2.39,2.39,0,0,0-.75-.87,2.69,2.69,0,0,0-1-.43,5.5,5.5,0,0,0-1.13-.12h-1.22v5.68Z"/><path d="M162.48,216.31a3.34,3.34,0,0,1-.26,1.34,3.06,3.06,0,0,1-.69,1,3,3,0,0,1-1,.64,3.87,3.87,0,0,1-2.63,0,3.12,3.12,0,0,1-1.05-.64,3.06,3.06,0,0,1-.69-1,3.34,3.34,0,0,1-.25-1.34v-5.19h1.46v5.14a2.88,2.88,0,0,0,.09.71,1.86,1.86,0,0,0,.31.63,1.43,1.43,0,0,0,.57.45,2.22,2.22,0,0,0,1.75,0,1.43,1.43,0,0,0,.57-.45,1.86,1.86,0,0,0,.31-.63,2.88,2.88,0,0,0,.09-.71v-5.14h1.46Z"/><path d="M172.26,213a1.94,1.94,0,0,0-.85-.64,2.93,2.93,0,0,0-1-.2,2.73,2.73,0,0,0-1.16.23,2.64,2.64,0,0,0-.9.64,2.86,2.86,0,0,0-.58,1,3.73,3.73,0,0,0,0,2.41,2.7,2.7,0,0,0,.56,1,2.6,2.6,0,0,0,.87.62,3,3,0,0,0,1.15.22,2.58,2.58,0,0,0,1.17-.26,2.46,2.46,0,0,0,.83-.69l1.17.82a3.74,3.74,0,0,1-1.34,1.06,4.23,4.23,0,0,1-1.84.38,4.84,4.84,0,0,1-1.77-.32,4,4,0,0,1-1.38-.89,4.16,4.16,0,0,1-.91-1.37,4.56,4.56,0,0,1-.32-1.76,4.42,4.42,0,0,1,.34-1.78,4,4,0,0,1,.94-1.35,4.21,4.21,0,0,1,1.41-.86,5,5,0,0,1,1.76-.3,4.74,4.74,0,0,1,.82.08,3.93,3.93,0,0,1,.83.23,3.49,3.49,0,0,1,.74.39,2.38,2.38,0,0,1,.59.55Z"/><path d="M176.57,211.12H178v8.21h-1.46Z"/><path d="M182,211.12h1.94l3.81,6.15h0v-6.15h1.46v8.21h-1.86l-3.9-6.34h0v6.34H182Z"/><path d="M200.38,218.9a6.13,6.13,0,0,1-1.37.47,8,8,0,0,1-1.72.17,5,5,0,0,1-1.82-.32,4.23,4.23,0,0,1-1.42-.89,4.18,4.18,0,0,1-.92-1.37,4.56,4.56,0,0,1-.33-1.76,4.42,4.42,0,0,1,.34-1.78,4,4,0,0,1,.94-1.35,4.21,4.21,0,0,1,1.41-.86,5,5,0,0,1,1.76-.3,5.5,5.5,0,0,1,1.81.28,3.67,3.67,0,0,1,1.31.75l-1,1.09a2.42,2.42,0,0,0-.87-.59,3.1,3.1,0,0,0-1.23-.24,2.78,2.78,0,0,0-1.17.23,2.64,2.64,0,0,0-.9.64,2.86,2.86,0,0,0-.58,1,3.48,3.48,0,0,0-.2,1.18,3.57,3.57,0,0,0,.2,1.21,2.9,2.9,0,0,0,.58,1,2.69,2.69,0,0,0,.92.63,3.16,3.16,0,0,0,1.22.23,4.29,4.29,0,0,0,1.64-.29v-2.09h-1.73v-1.21h3.14Z"/></g><g id="Layer_4" data-name="Layer 4"><path d="M195.91,254.62a1.62,1.62,0,0,1,.1.84,3.43,3.43,0,0,1-1.5.7,24.28,24.28,0,0,0-4,1.38c-.85.55-2.14,1.3-2.51,1.58s-.58.38-.66.69a7.24,7.24,0,0,0,1.31,3.14,11.55,11.55,0,0,1,1.43.49c.33.2.5.75.17.75h-3c-.44,0-1-1.18-3.05-2.3-.41-.15-.64.22-.77.38a1.34,1.34,0,0,0-.32.64c0,.27.78.32,1.15.46a.91.91,0,0,1,.4.42c.09.21,0,.4-.22.4h-2.52c-.23,0-.38,0-.64-.57-.07-.16-.15-.36-.24-.61-.29-.79.08-1.54.16-2.34-.21-.25-.49-.2-.86-.18a3.86,3.86,0,0,0-1.59.36c-.3.25,0,.79.14,1.11s.4,1.05.87,1.13a1.59,1.59,0,0,1,1.1.56.37.37,0,0,1,.05.17c0,.28-.13.39-.38.37h-2.63c-.32,0-1.24-1.38-2.66-2.2a2.29,2.29,0,0,0-1.28.63c-.17.18-.33.35-.19.51s.33.13.6.2a.78.78,0,0,1,.6.46c0,.12.11.4-.13.4h-3.2a.33.33,0,0,1-.28-.18,5,5,0,0,1,.19-1.83c.17-.65.63-1.62.68-1.94a16.49,16.49,0,0,0-.73-2.49c-.18-.61-.59-2-.3-2.49.42-1,1.5-3.28,3.83-3.94a7.91,7.91,0,0,1,3,0,24,24,0,0,0,3,.28,19.4,19.4,0,0,0,5-.33,29.66,29.66,0,0,1,3.8.73c.33,0,.44-.48.78-.27s.66.64,1.11.42a.24.24,0,0,1,.3,0,7.09,7.09,0,0,0,.63.61c.24.16,1.29.31,1.62.85S195.36,254.32,195.91,254.62Z" fill="#231f20"/><path d="M192.5,263c0-.15-.14-.18-.27-.18H192v.38h.22C192.36,263.24,192.5,263.23,192.5,263Zm-.71.89V262.7h.47c.29,0,.43.11.43.35a.32.32,0,0,1-.32.34l.35.54h-.21l-.32-.53H192v.53Z" fill="#231f20"/><path d="M191.12,263.31a1.08,1.08,0,1,1,1.08,1.07A1.06,1.06,0,0,1,191.12,263.31Zm1.08-.88a.89.89,0,1,0,.86.88A.86.86,0,0,0,192.2,262.43Z" fill="#231f20"/><path d="M170.73,264.18h-4.54a1.14,1.14,0,0,1-.46-.38,6.24,6.24,0,0,1-1.24-4.11c0-1.51-1.1-3.95-3.16-3.95h-1.62v8.44h-4.26V243.69h4.26v3.06a6.36,6.36,0,0,1,1.26-1.62,5.68,5.68,0,0,1,1.53-1.2,8.66,8.66,0,0,1,2.81.23,6.24,6.24,0,0,1,4.12,5.84,6.59,6.59,0,0,1-2.55,4.94c-.09.05-.25.19-.13.33a8.07,8.07,0,0,1,1.09,1.81c.7,1.65.38,3.74,1.36,5.27A5.57,5.57,0,0,0,170.73,264.18Zm-7-12.34a1.74,1.74,0,0,0,1.6-1.87,1.61,1.61,0,0,0-1.6-1.77h-4v3.64Z" fill="#231f20"/><path d="M154.55,243.69v20.49h-4.38v-8.4h-5.44c.05-.1-.09,0,0,0v8.4h-4.36V243.69h4.36v8.08h5.44v-8.08Z" fill="#231f20"/><path d="M144.73,255.78c-.09,0,.05-.1,0,0Z" fill="#231f20"/><path d="M139.46,243.69v4.23h-7.8v3.86h6.5v4h-6.5v4.56h7.8v3.83h-12V243.69h4.17V247a6,6,0,0,1,1.17-1.91,4.65,4.65,0,0,1,1.64-1.41Z" fill="#231f20"/><path d="M124,245a6.17,6.17,0,0,1,1.2,9v.15a7.15,7.15,0,0,1,1.12,2,6.19,6.19,0,0,1-6,8.12h-7.65V243.69h4.31V247a5.37,5.37,0,0,1,1-1.8,5.52,5.52,0,0,1,1.45-1.3A6.47,6.47,0,0,1,124,245Zm-3.42,15.27a2,2,0,0,0,2-2.22,1.93,1.93,0,0,0-2-2.18h-3.63v4.4Zm1.87-10.4A1.81,1.81,0,0,0,120.5,248h-3.56v3.78h3.56A1.85,1.85,0,0,0,122.44,249.83Z" fill="#231f20"/><path d="M28.41,294.63c0-6.49,4.68-10.92,10.54-10.92A9.42,9.42,0,0,1,46.29,287l-.79.7A8.43,8.43,0,0,0,39,284.66c-5.29,0-9.43,4-9.43,10s4.14,10,9.43,10a8.46,8.46,0,0,0,6.55-3.07l.82.66A9.36,9.36,0,0,1,39,305.54C33.09,305.54,28.41,301.11,28.41,294.63Z" fill="#231f20"/><path d="M62.08,283.71c6.11,0,10,4.81,10,10.92s-3.93,10.91-10,10.91-10-4.8-10-10.91S55.94,283.71,62.08,283.71Zm0,1c-5.47,0-8.92,4.18-8.92,10s3.45,10,8.92,10,8.93-4.24,8.93-10S67.49,284.66,62.08,284.66Z" fill="#231f20"/><path d="M79.49,284.06h1v20.16H91.11v.95H79.49Z" fill="#231f20"/><path d="M105.86,283.71c6.1,0,10,4.81,10,10.92s-3.93,10.91-10,10.91-10-4.8-10-10.91S99.72,283.71,105.86,283.71Zm0,1c-5.48,0-8.93,4.18-8.93,10s3.45,10,8.93,10,8.92-4.24,8.92-10S111.27,284.66,105.86,284.66Z" fill="#231f20"/><path d="M129.34,296.05h-5.06v9.12h-1V284.06h7.28c3.42,0,6.24,2.12,6.24,6s-2.82,6-6.24,6l6.52,9.12h-1.3Zm1.2-11h-6.26V295.1h6.26a5,5,0,1,0,0-10.09Z" fill="#231f20"/><path d="M152.1,287.32h-6.4v-3.26h16.49v3.26H155.8v17.85h-3.7Z" fill="#231f20"/><path d="M175.23,297.29h-3.67v7.88h-3.7V284.06h9.27c4.18,0,6.9,2.72,6.9,6.61a5.91,5.91,0,0,1-5,6.2l5.16,8.3h-4.27Zm1.4-10h-5.07V294h5.07a3.36,3.36,0,1,0,0-6.71Z" fill="#231f20"/><path d="M190.27,284.06h14.46v3.26H194v5.47h10.54v3.26H194v5.86h10.76v3.26H190.27Z" fill="#231f20"/><path d="M214.76,289.79v15.38h-3.7V284.06h3.8l10.79,15v-15h3.7v21.11h-3.57Z" fill="#231f20"/><path d="M236.38,284.06h7.85c6.58,0,11.05,4.36,11.05,10.57s-4.47,10.54-11.05,10.54h-7.85Zm7.85,17.85a6.94,6.94,0,0,0,7.25-7.28c0-4.09-2.53-7.31-7.25-7.31h-4.14v14.59Z" fill="#231f20"/><path d="M261.61,299.34a9.09,9.09,0,0,0,6.68,2.91c3,0,4.24-1.48,4.24-2.88,0-1.89-2.25-2.46-4.81-3.13-3.45-.85-7.5-1.87-7.5-6.33,0-3.48,3.07-6.17,7.69-6.17a11,11,0,0,1,7.91,2.94l-2.12,2.76a8.57,8.57,0,0,0-6.11-2.41c-2.18,0-3.58,1.05-3.58,2.63s2.16,2.18,4.66,2.81c3.48.89,7.62,2,7.62,6.56,0,3.51-2.47,6.51-8.16,6.51a11.32,11.32,0,0,1-8.58-3.35Z" fill="#231f20"/><path d="M112.84,332.15c3.94-2.9,5.09-3.89,5.09-5.07,0-.84-.76-1.26-1.57-1.26a3.43,3.43,0,0,0-2.57,1.11l-1.17-1.35a4.89,4.89,0,0,1,3.71-1.58c2,0,3.68,1.16,3.68,3.08,0,1.64-1.36,3.07-3.94,4.88h4v1.81h-7.24Z" fill="#231f20"/><path d="M140.85,324c2.74,0,4,2.48,4,5s-1.24,5-4,5-4-2.5-4-5S138.1,324,140.85,324Zm0,1.82c-1.38,0-1.9,1.37-1.9,3.14s.52,3.16,1.9,3.16,1.89-1.38,1.89-3.16S142.22,325.82,140.85,325.82Z" fill="#231f20"/><path d="M161.57,332.15c3.93-2.9,5.09-3.89,5.09-5.07,0-.84-.77-1.26-1.57-1.26a3.42,3.42,0,0,0-2.57,1.11l-1.17-1.35a4.89,4.89,0,0,1,3.71-1.58c2,0,3.67,1.16,3.67,3.08,0,1.64-1.35,3.07-3.93,4.88h4v1.81h-7.24Z" fill="#231f20"/><path d="M188,326.79l-1.6,1.63-1.17-1.23,3-3h1.78v9.62h-2Z" fill="#231f20"/></g><g id="_21_COLORS_TO_ELEVATE_YOUR_COMFORT_ZONE" data-name="21 COLORS TO ELEVATE YOUR COMFORT ZONE"><path d="M73.4,363.33H68v-1.08L71.31,359a4.78,4.78,0,0,0,.64-.8,1.66,1.66,0,0,0,.26-.94,1.36,1.36,0,0,0-.11-.58,1.44,1.44,0,0,0-.31-.45,1.4,1.4,0,0,0-.47-.28,1.56,1.56,0,0,0-.57-.1,1.4,1.4,0,0,0-1,.4,1.84,1.84,0,0,0-.51,1l-1.1-.19a2.5,2.5,0,0,1,.29-.86,2.81,2.81,0,0,1,.58-.7,2.53,2.53,0,0,1,.8-.46,2.92,2.92,0,0,1,1-.16,3.19,3.19,0,0,1,1,.15,2.54,2.54,0,0,1,.83.44,2.21,2.21,0,0,1,.58.73,2.34,2.34,0,0,1,.21,1,2.43,2.43,0,0,1-.1.73,2.85,2.85,0,0,1-.29.64,3.8,3.8,0,0,1-.42.57c-.16.19-.33.36-.51.54l-2.67,2.6h4Z"/><path d="M79.88,363.33H78.77v-6.84l-1.56,1.3-.66-.78,2.33-1.89h1Z"/><path d="M96.58,362.05a3.68,3.68,0,0,1-1.26,1.08,4,4,0,0,1-1.87.41,4.63,4.63,0,0,1-1.73-.32,4,4,0,0,1-1.37-.89,4.13,4.13,0,0,1-.9-1.37,4.81,4.81,0,0,1,0-3.5,3.94,3.94,0,0,1,.92-1.36,4.07,4.07,0,0,1,1.39-.88,4.68,4.68,0,0,1,1.74-.31,4.87,4.87,0,0,1,.84.08,4.65,4.65,0,0,1,.83.24,4.17,4.17,0,0,1,.72.4,2.65,2.65,0,0,1,.55.56l-.9.69a2.27,2.27,0,0,0-.85-.69,2.69,2.69,0,0,0-1.19-.27,3.21,3.21,0,0,0-1.3.26,2.91,2.91,0,0,0-1,.71,3.07,3.07,0,0,0-.62,1.05,3.57,3.57,0,0,0-.22,1.27,3.9,3.9,0,0,0,.21,1.3,3.07,3.07,0,0,0,.62,1.05,2.75,2.75,0,0,0,1,.7,3.11,3.11,0,0,0,1.28.26,2.79,2.79,0,0,0,1.27-.28,2.61,2.61,0,0,0,.94-.81Z"/><path d="M107.49,359.21a4.51,4.51,0,0,1-.33,1.75,4.16,4.16,0,0,1-.91,1.37,4,4,0,0,1-1.38.89,4.86,4.86,0,0,1-3.47,0,4.15,4.15,0,0,1-1.38-.89,4.29,4.29,0,0,1-.9-1.37,4.95,4.95,0,0,1,0-3.5,4,4,0,0,1,.9-1.36,4.12,4.12,0,0,1,1.38-.88,5,5,0,0,1,3.47,0,4,4,0,0,1,2.29,2.24A4.51,4.51,0,0,1,107.49,359.21Zm-1.24,0a3.57,3.57,0,0,0-.22-1.27,3.07,3.07,0,0,0-.62-1.05,2.91,2.91,0,0,0-1-.71,3.21,3.21,0,0,0-1.3-.26,3.11,3.11,0,0,0-1.28.26,2.77,2.77,0,0,0-1,.71,3.07,3.07,0,0,0-.62,1.05,3.57,3.57,0,0,0-.22,1.27,3.64,3.64,0,0,0,.22,1.29,3.07,3.07,0,0,0,.62,1.05,2.88,2.88,0,0,0,1,.7,3.07,3.07,0,0,0,1.27.26,3.2,3.2,0,0,0,1.29-.26,2.83,2.83,0,0,0,1-.7,3.07,3.07,0,0,0,.62-1.05A3.64,3.64,0,0,0,106.25,359.21Z"/><path d="M111.89,362.31h3.66v1h-4.81v-8.21h1.15Z"/><path d="M126.29,359.21A4.51,4.51,0,0,1,126,361a4.32,4.32,0,0,1-.91,1.37,4.15,4.15,0,0,1-1.38.89,4.76,4.76,0,0,1-1.74.32,4.68,4.68,0,0,1-1.74-.32,4,4,0,0,1-1.37-.89,4.16,4.16,0,0,1-.91-1.37,4.95,4.95,0,0,1,0-3.5,3.92,3.92,0,0,1,.91-1.36,4,4,0,0,1,1.37-.88,4.68,4.68,0,0,1,1.74-.31,4.76,4.76,0,0,1,1.74.31,4.12,4.12,0,0,1,1.38.88,4.06,4.06,0,0,1,.91,1.36A4.51,4.51,0,0,1,126.29,359.21Zm-1.24,0a3.58,3.58,0,0,0-.23-1.27,3.07,3.07,0,0,0-.62-1.05,2.91,2.91,0,0,0-1-.71,3.33,3.33,0,0,0-2.58,0,2.87,2.87,0,0,0-1,.71,3.24,3.24,0,0,0-.62,1.05,3.57,3.57,0,0,0-.22,1.27,3.64,3.64,0,0,0,.22,1.29,3.1,3.1,0,0,0,.63,1.05,2.84,2.84,0,0,0,1,.7,3.08,3.08,0,0,0,1.28.26,3.11,3.11,0,0,0,1.28-.26,2.83,2.83,0,0,0,1-.7,3.07,3.07,0,0,0,.62-1.05A3.65,3.65,0,0,0,125.05,359.21Z"/><path d="M130.68,363.33h-1.15v-8.21h2.64a5.13,5.13,0,0,1,1.12.12,2.61,2.61,0,0,1,.93.39,2,2,0,0,1,.64.7,2.27,2.27,0,0,1,.23,1.06,2,2,0,0,1-.56,1.46,2.59,2.59,0,0,1-1.44.71l2.3,3.77H134l-2.09-3.65h-1.23Zm0-4.62H132a3.7,3.7,0,0,0,.76-.07,1.92,1.92,0,0,0,.61-.22,1.24,1.24,0,0,0,.41-.41,1.16,1.16,0,0,0,.15-.62,1.19,1.19,0,0,0-.15-.62,1.27,1.27,0,0,0-.4-.4,1.72,1.72,0,0,0-.59-.21,3.23,3.23,0,0,0-.71-.07h-1.4Z"/><path d="M142.37,356.64a1.71,1.71,0,0,0-.66-.55,2,2,0,0,0-.94-.22,2.23,2.23,0,0,0-.56.08,1.64,1.64,0,0,0-.52.24,1.25,1.25,0,0,0-.37.42,1.14,1.14,0,0,0-.15.6,1.08,1.08,0,0,0,.14.56,1,1,0,0,0,.36.38,2.19,2.19,0,0,0,.53.27l.65.22.85.29a3.26,3.26,0,0,1,.78.43,2,2,0,0,1,.79,1.68,2.39,2.39,0,0,1-.24,1.11,2.22,2.22,0,0,1-.63.78,2.89,2.89,0,0,1-.91.46,3.84,3.84,0,0,1-1.07.15,3.94,3.94,0,0,1-1.5-.3,3,3,0,0,1-1.2-.9l.9-.75a2.17,2.17,0,0,0,.77.7,2.28,2.28,0,0,0,1.06.26,2,2,0,0,0,.58-.08,1.72,1.72,0,0,0,.53-.25,1.48,1.48,0,0,0,.38-.44,1.23,1.23,0,0,0,.16-.63,1.19,1.19,0,0,0-.16-.62,1.4,1.4,0,0,0-.42-.42,2.63,2.63,0,0,0-.63-.3l-.74-.25a6.55,6.55,0,0,1-.78-.28,2.62,2.62,0,0,1-.68-.43,1.86,1.86,0,0,1-.49-.65,2.06,2.06,0,0,1-.19-.95,2.15,2.15,0,0,1,.25-1.05,2.18,2.18,0,0,1,.65-.73,2.63,2.63,0,0,1,.91-.43,3.83,3.83,0,0,1,1-.13,3.57,3.57,0,0,1,1.35.26,2.61,2.61,0,0,1,1,.68Z"/><path d="M153.91,363.33h-1.14v-7.2h-2.64v-1h6.42v1h-2.64Z"/><path d="M167.27,359.21a4.51,4.51,0,0,1-.33,1.75,4,4,0,0,1-2.29,2.26,4.86,4.86,0,0,1-3.47,0,4.15,4.15,0,0,1-1.38-.89,4.29,4.29,0,0,1-.9-1.37,4.81,4.81,0,0,1,0-3.5,4,4,0,0,1,.9-1.36,4.12,4.12,0,0,1,1.38-.88,5,5,0,0,1,3.47,0,4.12,4.12,0,0,1,1.38.88,3.92,3.92,0,0,1,.91,1.36A4.51,4.51,0,0,1,167.27,359.21Zm-1.24,0a3.57,3.57,0,0,0-.22-1.27,3.1,3.1,0,0,0-.63-1.05,2.87,2.87,0,0,0-1-.71,3.21,3.21,0,0,0-1.3-.26,3.11,3.11,0,0,0-1.28.26,2.77,2.77,0,0,0-1,.71,3.07,3.07,0,0,0-.62,1.05,3.57,3.57,0,0,0-.22,1.27,3.64,3.64,0,0,0,.22,1.29,3.07,3.07,0,0,0,.62,1.05,2.88,2.88,0,0,0,1,.7,3,3,0,0,0,1.27.26,3.2,3.2,0,0,0,1.29-.26,2.79,2.79,0,0,0,1-.7,3.1,3.1,0,0,0,.63-1.05A3.64,3.64,0,0,0,166,359.21Z"/><path d="M176.13,362.31h4.29v1H175v-8.21h5.26v1h-4.12v2.46H180v1h-3.88Z"/><path d="M184.68,362.31h3.66v1h-4.81v-8.21h1.15Z"/><path d="M192.27,362.31h4.29v1h-5.44v-8.21h5.27v1h-4.12v2.46h3.88v1h-3.88Z"/><path d="M202.7,361.85h0l2.47-6.73h1.24l-3.22,8.21h-1.07l-3.2-8.21h1.28Z"/><path d="M208.79,363.33h-1.28l3.56-8.21h1.05l3.52,8.21h-1.3l-.83-2h-3.9Zm1.23-3h3.07l-1.53-3.85Z"/><path d="M220.41,363.33h-1.15v-7.2h-2.63v-1H223v1h-2.63Z"/><path d="M227,362.31h4.29v1h-5.44v-8.21h5.27v1H227v2.46h3.87v1H227Z"/><path d="M76.26,378.75H75.1V375.2L72,370.54h1.42l2.27,3.71L78,370.54h1.34l-3.08,4.66Z"/><path d="M89.73,374.63a4.55,4.55,0,0,1-.33,1.75,4,4,0,0,1-.91,1.36,4.17,4.17,0,0,1-1.38.9,4.89,4.89,0,0,1-3.48,0,4.13,4.13,0,0,1-1.37-.9,3.85,3.85,0,0,1-.9-1.36,4.83,4.83,0,0,1,0-3.51,3.72,3.72,0,0,1,.9-1.35,4.08,4.08,0,0,1,1.37-.88,5,5,0,0,1,3.48,0,4.12,4.12,0,0,1,1.38.88,3.88,3.88,0,0,1,.91,1.35A4.56,4.56,0,0,1,89.73,374.63Zm-1.24,0a3.57,3.57,0,0,0-.22-1.27,3.27,3.27,0,0,0-.63-1.05,2.91,2.91,0,0,0-1-.71,3.31,3.31,0,0,0-2.57,0,2.81,2.81,0,0,0-1,.71,3.43,3.43,0,0,0-.62,1.05,3.81,3.81,0,0,0-.22,1.27,3.88,3.88,0,0,0,.22,1.29,3.27,3.27,0,0,0,.63,1.05,3,3,0,0,0,1,.7,3.11,3.11,0,0,0,1.28.25,3.19,3.19,0,0,0,1.29-.25,3,3,0,0,0,1-.7,3.27,3.27,0,0,0,.63-1.05A3.64,3.64,0,0,0,88.49,374.63Z"/><path d="M96.09,379a3.26,3.26,0,0,1-1.41-.28,2.77,2.77,0,0,1-1-.72,3.06,3.06,0,0,1-.59-1,3.78,3.78,0,0,1-.19-1.21v-5.17h1.15v5.1a3.37,3.37,0,0,0,.1.83,2.06,2.06,0,0,0,.35.73,1.7,1.7,0,0,0,.62.53,2.55,2.55,0,0,0,1.93,0,1.77,1.77,0,0,0,.64-.53,2.23,2.23,0,0,0,.34-.73,3.37,3.37,0,0,0,.1-.83v-5.1h1.15v5.17a3.78,3.78,0,0,1-.19,1.21,2.9,2.9,0,0,1-.59,1,2.82,2.82,0,0,1-1,.72A3.33,3.33,0,0,1,96.09,379Z"/><path d="M104.05,378.75h-1.14v-8.21h2.63a5.06,5.06,0,0,1,1.12.12,2.74,2.74,0,0,1,.94.39,1.94,1.94,0,0,1,.63.7,2.27,2.27,0,0,1,.23,1.06,2,2,0,0,1-.56,1.46,2.6,2.6,0,0,1-1.43.71l2.29,3.77h-1.39l-2.09-3.66h-1.23Zm0-4.62h1.33a3.54,3.54,0,0,0,.75-.07,1.93,1.93,0,0,0,.61-.23,1.12,1.12,0,0,0,.41-.4,1.19,1.19,0,0,0,.15-.62,1.16,1.16,0,0,0-.15-.62,1.1,1.1,0,0,0-.4-.4,2,2,0,0,0-.59-.22,4,4,0,0,0-.7-.06h-1.41Z"/><path d="M123.21,377.47a3.56,3.56,0,0,1-1.26,1.07,3.88,3.88,0,0,1-1.87.42,4.67,4.67,0,0,1-1.73-.32,4,4,0,0,1-1.37-.9,4.14,4.14,0,0,1-.9-1.36,4.9,4.9,0,0,1,0-3.51,3.88,3.88,0,0,1,.91-1.35,4.07,4.07,0,0,1,1.39-.88,4.68,4.68,0,0,1,1.74-.31,4,4,0,0,1,.84.08,3.78,3.78,0,0,1,.83.24,3.59,3.59,0,0,1,.72.4,2.61,2.61,0,0,1,.55.55l-.9.7a2.27,2.27,0,0,0-.85-.69,2.69,2.69,0,0,0-1.19-.27,3.05,3.05,0,0,0-1.3.26,3,3,0,0,0-1,.71,3.24,3.24,0,0,0-.62,1.05,3.57,3.57,0,0,0-.22,1.27,3.94,3.94,0,0,0,.21,1.3,3.24,3.24,0,0,0,.62,1.05,2.75,2.75,0,0,0,1,.7,3.11,3.11,0,0,0,1.28.26,2.92,2.92,0,0,0,1.27-.28,2.47,2.47,0,0,0,.94-.82Z"/><path d="M134.13,374.63a4.37,4.37,0,0,1-.34,1.75,4.1,4.1,0,0,1-2.29,2.26,4.86,4.86,0,0,1-3.47,0,4.12,4.12,0,0,1-2.28-2.26,5,5,0,0,1,0-3.51,3.88,3.88,0,0,1,.91-1.35,4,4,0,0,1,1.37-.88,5,5,0,0,1,3.47,0,3.93,3.93,0,0,1,1.38.88,3.88,3.88,0,0,1,.91,1.35A4.38,4.38,0,0,1,134.13,374.63Zm-1.25,0a3.57,3.57,0,0,0-.22-1.27,3.07,3.07,0,0,0-.62-1.05,2.91,2.91,0,0,0-1-.71,3.33,3.33,0,0,0-2.58,0,2.87,2.87,0,0,0-1,.71,3.24,3.24,0,0,0-.62,1.05,3.57,3.57,0,0,0-.22,1.27,3.64,3.64,0,0,0,.22,1.29,3.24,3.24,0,0,0,.62,1.05,3.13,3.13,0,0,0,1,.7,3.06,3.06,0,0,0,1.27.25,3.13,3.13,0,0,0,1.29-.25,3,3,0,0,0,1-.7,3.07,3.07,0,0,0,.62-1.05A3.64,3.64,0,0,0,132.88,374.63Z"/><path d="M141.62,376.84h0l2.42-6.3h1.79v8.21H144.7v-6.87h0L142,378.75h-.73l-2.71-6.87h0v6.87h-1.12v-8.21h1.79Z"/><path d="M150.67,378.75h-1.14v-8.21h5.12v1h-4v2.56h3.73v1h-3.73Z"/><path d="M166,374.63a4.55,4.55,0,0,1-.33,1.75,4.1,4.1,0,0,1-2.29,2.26,4.76,4.76,0,0,1-1.74.32,4.68,4.68,0,0,1-1.74-.32,4.13,4.13,0,0,1-1.37-.9,4,4,0,0,1-.91-1.36,5,5,0,0,1,0-3.51,3.88,3.88,0,0,1,.91-1.35,4.08,4.08,0,0,1,1.37-.88,4.68,4.68,0,0,1,1.74-.31,4.76,4.76,0,0,1,1.74.31,4.12,4.12,0,0,1,1.38.88,4,4,0,0,1,.91,1.35A4.56,4.56,0,0,1,166,374.63Zm-1.24,0a3.81,3.81,0,0,0-.22-1.27,3.27,3.27,0,0,0-.63-1.05,2.91,2.91,0,0,0-1-.71,3.31,3.31,0,0,0-2.57,0,2.81,2.81,0,0,0-1,.71,3.24,3.24,0,0,0-.62,1.05,3.57,3.57,0,0,0-.22,1.27,3.64,3.64,0,0,0,.22,1.29,3.27,3.27,0,0,0,.63,1.05,3,3,0,0,0,1,.7,3.11,3.11,0,0,0,1.28.25,3.19,3.19,0,0,0,1.29-.25,3,3,0,0,0,1-.7,3.27,3.27,0,0,0,.63-1.05A3.88,3.88,0,0,0,164.73,374.63Z"/><path d="M170.36,378.75h-1.15v-8.21h2.64a5.06,5.06,0,0,1,1.12.12,2.74,2.74,0,0,1,.94.39,1.94,1.94,0,0,1,.63.7,2.27,2.27,0,0,1,.23,1.06,2,2,0,0,1-.56,1.46,2.6,2.6,0,0,1-1.43.71l2.29,3.77h-1.39l-2.09-3.66h-1.23Zm0-4.62h1.33a3.54,3.54,0,0,0,.75-.07,1.93,1.93,0,0,0,.61-.23,1.12,1.12,0,0,0,.41-.4,1.19,1.19,0,0,0,.15-.62,1.16,1.16,0,0,0-.15-.62,1.1,1.1,0,0,0-.4-.4,2,2,0,0,0-.59-.22,4,4,0,0,0-.7-.06h-1.41Z"/><path d="M181,378.75h-1.15v-7.21h-2.63v-1h6.41v1H181Z"/><path d="M196.25,371.54l-4.64,6.19h4.71v1h-6.1v-1l4.63-6.2h-4.53v-1h5.93Z"/><path d="M207.21,374.63a4.55,4.55,0,0,1-.33,1.75,4.1,4.1,0,0,1-2.29,2.26,4.76,4.76,0,0,1-1.74.32,4.68,4.68,0,0,1-1.74-.32,4.13,4.13,0,0,1-1.37-.9,4,4,0,0,1-.91-1.36,5,5,0,0,1,0-3.51,3.88,3.88,0,0,1,.91-1.35,4.08,4.08,0,0,1,1.37-.88,4.68,4.68,0,0,1,1.74-.31,4.76,4.76,0,0,1,1.74.31,4.12,4.12,0,0,1,1.38.88,4,4,0,0,1,.91,1.35A4.56,4.56,0,0,1,207.21,374.63Zm-1.24,0a3.81,3.81,0,0,0-.22-1.27,3.27,3.27,0,0,0-.63-1.05,2.91,2.91,0,0,0-1-.71,3.31,3.31,0,0,0-2.57,0,2.81,2.81,0,0,0-1,.71,3.24,3.24,0,0,0-.62,1.05,3.57,3.57,0,0,0-.22,1.27,3.64,3.64,0,0,0,.22,1.29,3.27,3.27,0,0,0,.63,1.05,3,3,0,0,0,1,.7,3.4,3.4,0,0,0,2.56,0,3,3,0,0,0,1-.7,3.27,3.27,0,0,0,.63-1.05A3.88,3.88,0,0,0,206,374.63Z"/><path d="M216.24,377.1h0v-6.56h1.15v8.21H216L211.62,372h0v6.71h-1.15v-8.21H212Z"/><path d="M222.24,377.73h4.29v1h-5.44v-8.21h5.26v1h-4.11V374h3.87v1h-3.87Z"/></g></g></svg>