<svg xmlns="http://www.w3.org/2000/svg" viewBox="0 0 300 600"><title>overlay</title><g id="Layer_2" data-name="Layer 2"><g id="rect"><rect width="300" height="600" fill="none"/></g><g id="INTRODUCING"><path d="M99,211.12h1.47v8.21H99Z"/><path d="M104.4,211.12h1.93l3.82,6.15h0v-6.15h1.46v8.21h-1.85l-3.9-6.34h0v6.34H104.4Z"/><path d="M117.24,212.39h-2.52v-1.27h6.49v1.27H118.7v6.94h-1.46Z"/><path d="M124.3,211.12h2.85a5.29,5.29,0,0,1,1.13.12,3,3,0,0,1,1,.4,2.07,2.07,0,0,1,.68.73,2.21,2.21,0,0,1,.26,1.1,2.1,2.1,0,0,1-.51,1.46,2.53,2.53,0,0,1-1.37.76l2.19,3.64h-1.76l-1.9-3.48h-1.07v3.48H124.3Zm2.65,3.54a4.46,4.46,0,0,0,.63,0,1.84,1.84,0,0,0,.56-.17,1.06,1.06,0,0,0,.58-1,.94.94,0,0,0-.15-.55,1.07,1.07,0,0,0-.39-.34,1.68,1.68,0,0,0-.52-.18,3.86,3.86,0,0,0-.58,0h-1.32v2.31Z"/><path d="M133.25,215.2a4.59,4.59,0,0,1,.33-1.78,3.88,3.88,0,0,1,.91-1.35,4.12,4.12,0,0,1,1.39-.86,5,5,0,0,1,1.76-.3,5.16,5.16,0,0,1,1.78.3,4.17,4.17,0,0,1,1.4.86,3.9,3.9,0,0,1,.92,1.35,4.91,4.91,0,0,1,0,3.54,4.18,4.18,0,0,1-.92,1.37,4.24,4.24,0,0,1-1.4.89,4.94,4.94,0,0,1-1.78.32,4.83,4.83,0,0,1-1.76-.32,4,4,0,0,1-2.3-2.26A4.56,4.56,0,0,1,133.25,215.2Zm1.58,0a3.34,3.34,0,0,0,.21,1.21,2.74,2.74,0,0,0,.58,1,2.67,2.67,0,0,0,.89.63,2.83,2.83,0,0,0,1.14.23,2.88,2.88,0,0,0,1.15-.23,2.61,2.61,0,0,0,.9-.63,2.9,2.9,0,0,0,.58-1,3.57,3.57,0,0,0,.2-1.21,3.48,3.48,0,0,0-.2-1.18,3,3,0,0,0-.57-1,2.64,2.64,0,0,0-.9-.64,2.73,2.73,0,0,0-1.16-.23,2.69,2.69,0,0,0-1.15.23,2.6,2.6,0,0,0-.89.64,2.68,2.68,0,0,0-.57,1A3.25,3.25,0,0,0,134.83,215.2Z"/><path d="M145.62,211.12h2.91a6.41,6.41,0,0,1,1.61.21,4.18,4.18,0,0,1,1.46.69,3.54,3.54,0,0,1,1.06,1.26,4.19,4.19,0,0,1,.4,1.94,4,4,0,0,1-.4,1.86,3.79,3.79,0,0,1-1.06,1.28,4.45,4.45,0,0,1-1.46.73,5.66,5.66,0,0,1-1.61.24h-2.91Zm2.68,6.93a4.84,4.84,0,0,0,1.13-.13,3.08,3.08,0,0,0,1-.45,2.47,2.47,0,0,0,.75-.87,2.94,2.94,0,0,0,.29-1.38,3.13,3.13,0,0,0-.29-1.43,2.39,2.39,0,0,0-.75-.87,2.69,2.69,0,0,0-1-.43,5.43,5.43,0,0,0-1.13-.12h-1.22v5.68Z"/><path d="M163.13,216.31a3.34,3.34,0,0,1-.25,1.34,3.09,3.09,0,0,1-.7,1,3,3,0,0,1-1,.64,3.76,3.76,0,0,1-1.31.23,3.68,3.68,0,0,1-1.31-.23,2.94,2.94,0,0,1-1.75-1.66,3.34,3.34,0,0,1-.25-1.34v-5.19H158v5.14a2.88,2.88,0,0,0,.09.71,1.86,1.86,0,0,0,.31.63,1.5,1.5,0,0,0,.57.45,1.94,1.94,0,0,0,.88.18,1.9,1.9,0,0,0,.87-.18,1.43,1.43,0,0,0,.57-.45,1.69,1.69,0,0,0,.31-.63,2.88,2.88,0,0,0,.09-.71v-5.14h1.46Z"/><path d="M172.91,213a1.94,1.94,0,0,0-.85-.64,2.93,2.93,0,0,0-1-.2,2.76,2.76,0,0,0-1.16.23,2.64,2.64,0,0,0-.9.64,2.86,2.86,0,0,0-.58,1,3.48,3.48,0,0,0-.2,1.18,3.69,3.69,0,0,0,.2,1.23,2.86,2.86,0,0,0,.56,1,2.6,2.6,0,0,0,.87.62,3,3,0,0,0,1.15.22,2.58,2.58,0,0,0,1.17-.26,2.46,2.46,0,0,0,.83-.69l1.17.82a3.7,3.7,0,0,1-1.33,1.06,4.3,4.3,0,0,1-1.85.38,4.84,4.84,0,0,1-1.77-.32,4,4,0,0,1-1.38-.89,4.16,4.16,0,0,1-.91-1.37,4.75,4.75,0,0,1-.32-1.76,4.42,4.42,0,0,1,.34-1.78,4,4,0,0,1,.94-1.35,4.21,4.21,0,0,1,1.41-.86,5,5,0,0,1,1.76-.3,4.74,4.74,0,0,1,.82.08,3.93,3.93,0,0,1,.83.23,3.49,3.49,0,0,1,.74.39,2.38,2.38,0,0,1,.59.55Z"/><path d="M177.22,211.12h1.46v8.21h-1.46Z"/><path d="M182.65,211.12h1.94l3.81,6.15h0v-6.15h1.46v8.21H188L184.14,213h0v6.34h-1.46Z"/><path d="M201,218.9a6.4,6.4,0,0,1-1.38.47,8,8,0,0,1-1.72.17,5,5,0,0,1-1.82-.32,4.23,4.23,0,0,1-1.42-.89,4.18,4.18,0,0,1-.92-1.37,4.56,4.56,0,0,1-.33-1.76,4.42,4.42,0,0,1,.34-1.78,4,4,0,0,1,.94-1.35,4.21,4.21,0,0,1,1.41-.86,5,5,0,0,1,1.76-.3,5.5,5.5,0,0,1,1.81.28,3.67,3.67,0,0,1,1.31.75L200,213a2.56,2.56,0,0,0-.88-.59,3.09,3.09,0,0,0-1.22-.24,2.79,2.79,0,0,0-1.18.23,2.64,2.64,0,0,0-.9.64,2.68,2.68,0,0,0-.57,1,3.25,3.25,0,0,0-.21,1.18,3.34,3.34,0,0,0,.21,1.21,2.6,2.6,0,0,0,.58,1,2.56,2.56,0,0,0,.91.63,3.17,3.17,0,0,0,1.23.23,4.27,4.27,0,0,0,1.63-.29v-2.09h-1.73v-1.21H201Z"/></g><g id="Layer_4" data-name="Layer 4"><path d="M190.76,254a1.58,1.58,0,0,1,.1.83,3.54,3.54,0,0,1-1.47.69,22.67,22.67,0,0,0-3.88,1.35c-.83.54-2.1,1.27-2.46,1.54s-.57.38-.65.68a7,7,0,0,0,1.29,3.08,11.08,11.08,0,0,1,1.4.48c.32.19.48.73.16.73h-3c-.43,0-1-1.15-3-2.25-.41-.14-.64.21-.77.38a1.29,1.29,0,0,0-.31.63c0,.26.77.31,1.13.45a.82.82,0,0,1,.39.41.25.25,0,0,1-.22.38H177c-.23,0-.38,0-.63-.55-.07-.15-.14-.35-.24-.6a4.88,4.88,0,0,1,.17-2.3c-.21-.24-.49-.2-.85-.17a3.91,3.91,0,0,0-1.56.35c-.3.25,0,.78.14,1.09s.39,1,.85,1.11a1.56,1.56,0,0,1,1.08.55.33.33,0,0,1,.05.16c0,.28-.13.39-.37.36H173.1c-.31,0-1.22-1.35-2.61-2.15a2.24,2.24,0,0,0-1.25.61c-.17.19-.33.35-.19.5s.32.14.58.2a.76.76,0,0,1,.59.46c0,.11.12.38-.12.38H167a.3.3,0,0,1-.27-.17,4.81,4.81,0,0,1,.18-1.8c.17-.63.62-1.58.67-1.9a15.91,15.91,0,0,0-.72-2.44c-.18-.6-.57-1.92-.29-2.44.42-.94,1.47-3.21,3.76-3.86a7.6,7.6,0,0,1,3,0,27.13,27.13,0,0,0,2.91.28,20.08,20.08,0,0,0,4.94-.32,26.86,26.86,0,0,1,3.72.71c.33,0,.43-.47.76-.27s.65.63,1.09.41a.25.25,0,0,1,.3,0,5.9,5.9,0,0,0,.62.61c.23.15,1.27.3,1.58.82S190.22,253.72,190.76,254Z" fill="#231f20"/><path d="M187.42,262.27c0-.15-.14-.18-.27-.18h-.24v.37h.21C187.28,262.46,187.42,262.46,187.42,262.27Zm-.13.34.35.53h-.21l-.32-.52h-.2v.52h-.19v-1.2h.46c.29,0,.43.1.43.34A.31.31,0,0,1,187.29,262.61Z" fill="#231f20"/><path d="M186.07,262.54a1.06,1.06,0,1,1,1.06,1A1,1,0,0,1,186.07,262.54Zm.21,0a.85.85,0,1,0,.85-.87A.84.84,0,0,0,186.28,262.54Z" fill="#231f20"/><path d="M166.08,263.38h-4.45c-.2-.05-.32-.23-.45-.37a6.09,6.09,0,0,1-1.22-4c0-1.49-1.08-3.88-3.1-3.88h-1.59v8.27H151.1V243.3h4.17v3a6.23,6.23,0,0,1,1.24-1.58,5.38,5.38,0,0,1,1.5-1.18,8.57,8.57,0,0,1,2.75.22,6.12,6.12,0,0,1,4.05,5.72,6.45,6.45,0,0,1-2.5,4.85c-.09,0-.25.19-.13.33a7.88,7.88,0,0,1,1.07,1.77c.68,1.62.37,3.67,1.33,5.16A5.25,5.25,0,0,0,166.08,263.38Zm-6.85-12.09a1.7,1.7,0,0,0,1.56-1.83,1.58,1.58,0,0,0-1.56-1.74h-4v3.57Z" fill="#231f20"/><path d="M150.22,243.3v20.08h-4.29v-8.23h-5.34c0-.09-.09,0,0,0v8.23h-4.28V243.3h4.28v7.92h5.34V243.3Z" fill="#231f20"/><path d="M140.59,255.15c-.09,0,0-.09,0,0Z" fill="#231f20"/><path d="M135.42,243.3v4.15h-7.64v3.79h6.37v3.92h-6.37v4.47h7.64v3.75H123.65V243.3h4.09v3.25a5.65,5.65,0,0,1,1.15-1.86,4.39,4.39,0,0,1,1.6-1.39Z" fill="#231f20"/><path d="M120.26,244.55a6.12,6.12,0,0,1,2.42,6.2,6.21,6.21,0,0,1-1.24,2.57v.15a7.45,7.45,0,0,1,1.09,2,6.07,6.07,0,0,1-5.9,7.95h-7.51V243.3h4.23v3.25a5.14,5.14,0,0,1,1-1.76,5.29,5.29,0,0,1,1.42-1.27A6.3,6.3,0,0,1,120.26,244.55Zm-3.35,15a1.93,1.93,0,0,0,2-2.17,1.9,1.9,0,0,0-2-2.14h-3.56v4.31Zm1.83-10.19a1.77,1.77,0,0,0-1.91-1.83h-3.48v3.7h3.48A1.82,1.82,0,0,0,118.74,249.32Z" fill="#231f20"/><path d="M28.5,293.23c0-6.36,4.59-10.7,10.33-10.7a9.22,9.22,0,0,1,7.2,3.26l-.78.68a8.27,8.27,0,0,0-6.42-3c-5.18,0-9.25,3.94-9.25,9.77S33.65,303,38.83,303a8.27,8.27,0,0,0,6.42-3l.81.65a9.21,9.21,0,0,1-7.23,3.29C33.09,303.94,28.5,299.59,28.5,293.23Z" fill="#231f20"/><path d="M61.51,282.53c6,0,9.84,4.72,9.84,10.7s-3.85,10.71-9.84,10.71-9.83-4.72-9.83-10.71S55.49,282.53,61.51,282.53Zm0,.93c-5.37,0-8.75,4.1-8.75,9.77S56.14,303,61.51,303s8.75-4.16,8.75-9.78S66.82,283.46,61.51,283.46Z" fill="#231f20"/><path d="M78.58,282.87h1v19.76H90v.93H78.58Z" fill="#231f20"/><path d="M104.42,282.53c6,0,9.84,4.72,9.84,10.7s-3.85,10.71-9.84,10.71-9.83-4.72-9.83-10.71S98.4,282.53,104.42,282.53Zm0,.93c-5.37,0-8.75,4.1-8.75,9.77s3.38,9.78,8.75,9.78,8.75-4.16,8.75-9.78S109.73,283.46,104.42,283.46Z" fill="#231f20"/><path d="M127.44,294.63h-5v8.93h-1V282.87h7.13c3.35,0,6.11,2.08,6.11,5.87s-2.76,5.89-6.11,5.89l6.39,8.93h-1.27Zm1.18-10.83h-6.14v9.9h6.14a5,5,0,1,0,0-9.9Z" fill="#231f20"/><path d="M149.75,286.07h-6.26v-3.2h16.16v3.2h-6.27v17.49h-3.63Z" fill="#231f20"/><path d="M172.43,295.84h-3.6v7.72H165.2V282.87h9.09c4.1,0,6.77,2.67,6.77,6.49a5.81,5.81,0,0,1-4.9,6.08l5.05,8.12H177Zm1.37-9.77h-5v6.57h5a3.29,3.29,0,1,0,0-6.57Z" fill="#231f20"/><path d="M187.17,282.87h14.18v3.2H190.8v5.36h10.33v3.2H190.8v5.74h10.55v3.19H187.17Z" fill="#231f20"/><path d="M211.19,288.49v15.07h-3.63V282.87h3.72l10.58,14.68V282.87h3.63v20.69H222Z" fill="#231f20"/><path d="M232.38,282.87h7.69c6.46,0,10.83,4.28,10.83,10.36s-4.37,10.33-10.83,10.33h-7.69Zm7.69,17.5a6.8,6.8,0,0,0,7.11-7.14c0-4-2.49-7.16-7.11-7.16H236v14.3Z" fill="#231f20"/><path d="M257.11,297.86a8.91,8.91,0,0,0,6.54,2.85c3,0,4.16-1.46,4.16-2.82,0-1.86-2.2-2.42-4.72-3.07-3.38-.84-7.35-1.83-7.35-6.21,0-3.41,3-6.05,7.54-6.05a10.79,10.79,0,0,1,7.76,2.89l-2.08,2.7a8.41,8.41,0,0,0-6-2.36c-2.14,0-3.5,1-3.5,2.57s2.1,2.14,4.56,2.76c3.41.87,7.47,1.93,7.47,6.43,0,3.44-2.42,6.39-8,6.39a11.09,11.09,0,0,1-8.41-3.29Z" fill="#231f20"/><path d="M112.24,330c3.86-2.84,5-3.82,5-5,0-.82-.75-1.23-1.54-1.23a3.36,3.36,0,0,0-2.51,1.09L112,323.57a4.81,4.81,0,0,1,3.64-1.54c2,0,3.6,1.13,3.6,3,0,1.62-1.33,3-3.86,4.8h3.93v1.76h-7.1Z" fill="#231f20"/><path d="M139.7,322c2.69,0,3.91,2.43,3.91,4.87s-1.22,4.87-3.91,4.87-3.9-2.44-3.9-4.87S137,322,139.7,322Zm0,1.78c-1.35,0-1.86,1.35-1.86,3.09s.51,3.09,1.86,3.09,1.86-1.36,1.86-3.09S141.05,323.81,139.7,323.81Z" fill="#231f20"/><path d="M160,330c3.86-2.84,5-3.82,5-5,0-.82-.75-1.23-1.54-1.23A3.36,3.36,0,0,0,161,324.9l-1.15-1.33a4.81,4.81,0,0,1,3.63-1.54c2,0,3.61,1.13,3.61,3,0,1.62-1.33,3-3.86,4.8h3.93v1.76H160Z" fill="#231f20"/><path d="M186,324.76l-1.57,1.6-1.14-1.2,3-3H188v9.43h-2Z" fill="#231f20"/></g><g id="_21_COLORS_TO_ELEVATE_YOUR_COMFORT_ZONE" data-name="21 COLORS TO ELEVATE YOUR COMFORT ZONE"><path d="M73.75,363.33H68.4v-1.08L71.67,359a4.71,4.71,0,0,0,.63-.8,1.67,1.67,0,0,0,.27-.94,1.37,1.37,0,0,0-.12-.58,1.29,1.29,0,0,0-.31-.45,1.36,1.36,0,0,0-.46-.28,1.56,1.56,0,0,0-.57-.1,1.39,1.39,0,0,0-1,.4,1.84,1.84,0,0,0-.51,1l-1.11-.19a2.51,2.51,0,0,1,.3-.86,2.49,2.49,0,0,1,1.38-1.16,2.88,2.88,0,0,1,1-.16,3.19,3.19,0,0,1,1,.15,2.64,2.64,0,0,1,.83.44,2.06,2.06,0,0,1,.57.73,2.21,2.21,0,0,1,.22,1,2.43,2.43,0,0,1-.11.73,2.82,2.82,0,0,1-.28.64,3.8,3.8,0,0,1-.42.57l-.51.54-2.67,2.6h4Z"/><path d="M80.24,363.33H79.12v-6.84l-1.55,1.3-.66-.78,2.33-1.89h1Z"/><path d="M96.94,362.05a3.71,3.71,0,0,1-1.27,1.08,4,4,0,0,1-1.86.41,4.68,4.68,0,0,1-1.74-.32,4.11,4.11,0,0,1-1.37-.89,4.29,4.29,0,0,1-.9-1.37,4.7,4.7,0,0,1-.32-1.75,4.51,4.51,0,0,1,.33-1.75,3.94,3.94,0,0,1,.92-1.36,4.12,4.12,0,0,1,1.38-.88,4.76,4.76,0,0,1,1.74-.31,5,5,0,0,1,.85.08,4.55,4.55,0,0,1,.82.24,3.83,3.83,0,0,1,.72.4,2.7,2.7,0,0,1,.56.56l-.91.69a2.19,2.19,0,0,0-.85-.69,2.66,2.66,0,0,0-1.19-.27,3.13,3.13,0,0,0-1.29.26,2.91,2.91,0,0,0-1,.71,3.27,3.27,0,0,0-.63,1.05,3.81,3.81,0,0,0-.22,1.27,3.66,3.66,0,0,0,.22,1.3,3.05,3.05,0,0,0,.61,1.05,2.79,2.79,0,0,0,1,.7,3.11,3.11,0,0,0,1.28.26,2.77,2.77,0,0,0,1.26-.28,2.53,2.53,0,0,0,.94-.81Z"/><path d="M107.85,359.21a4.51,4.51,0,0,1-.33,1.75,4,4,0,0,1-2.29,2.26,4.89,4.89,0,0,1-3.48,0,4.21,4.21,0,0,1-1.37-.89,4,4,0,0,1-.9-1.37,4.81,4.81,0,0,1,0-3.5,3.76,3.76,0,0,1,.9-1.36,4.18,4.18,0,0,1,1.37-.88,5,5,0,0,1,3.48,0,4.12,4.12,0,0,1,1.38.88,3.92,3.92,0,0,1,.91,1.36A4.51,4.51,0,0,1,107.85,359.21Zm-1.24,0a3.57,3.57,0,0,0-.22-1.27,3.27,3.27,0,0,0-.63-1.05,2.91,2.91,0,0,0-1-.71,3.31,3.31,0,0,0-2.57,0,2.81,2.81,0,0,0-1,.71,3.43,3.43,0,0,0-.62,1.05,3.81,3.81,0,0,0-.22,1.27,3.88,3.88,0,0,0,.22,1.29,3.27,3.27,0,0,0,.63,1.05,2.84,2.84,0,0,0,1,.7,3.11,3.11,0,0,0,1.28.26,3.2,3.2,0,0,0,1.29-.26,2.88,2.88,0,0,0,1-.7,3.27,3.27,0,0,0,.63-1.05A3.64,3.64,0,0,0,106.61,359.21Z"/><path d="M112.24,362.31h3.67v1H111.1v-8.21h1.14Z"/><path d="M126.64,359.21a4.51,4.51,0,0,1-.33,1.75,4,4,0,0,1-2.29,2.26,4.86,4.86,0,0,1-3.47,0,4,4,0,0,1-2.28-2.26,4.81,4.81,0,0,1,0-3.5,3.9,3.9,0,0,1,.9-1.36,4.12,4.12,0,0,1,1.38-.88,5,5,0,0,1,3.47,0,4.12,4.12,0,0,1,1.38.88,3.92,3.92,0,0,1,.91,1.36A4.51,4.51,0,0,1,126.64,359.21Zm-1.24,0a3.57,3.57,0,0,0-.22-1.27,3.1,3.1,0,0,0-.63-1.05,2.81,2.81,0,0,0-1-.71,3.31,3.31,0,0,0-2.57,0,2.77,2.77,0,0,0-1,.71,3.27,3.27,0,0,0-.63,1.05,3.81,3.81,0,0,0-.22,1.27,3.88,3.88,0,0,0,.22,1.29,3.27,3.27,0,0,0,.63,1.05,2.88,2.88,0,0,0,1,.7,3,3,0,0,0,1.27.26,3.2,3.2,0,0,0,1.29-.26,2.79,2.79,0,0,0,1-.7,3.1,3.1,0,0,0,.63-1.05A3.64,3.64,0,0,0,125.4,359.21Z"/><path d="M131,363.33h-1.15v-8.21h2.63a5.15,5.15,0,0,1,1.13.12,2.77,2.77,0,0,1,.93.39,1.85,1.85,0,0,1,.63.7,2.16,2.16,0,0,1,.23,1.06,2,2,0,0,1-.55,1.46,2.59,2.59,0,0,1-1.44.71l2.3,3.77h-1.4l-2.08-3.65H131Zm0-4.62h1.32a3.54,3.54,0,0,0,.75-.07,1.84,1.84,0,0,0,.61-.22,1.15,1.15,0,0,0,.41-.41,1.16,1.16,0,0,0,.15-.62,1.11,1.11,0,0,0-.55-1,1.66,1.66,0,0,0-.58-.21,3.29,3.29,0,0,0-.71-.07H131Z"/><path d="M142.73,356.64a1.71,1.71,0,0,0-.66-.55,2,2,0,0,0-.94-.22,2.16,2.16,0,0,0-.56.08,1.55,1.55,0,0,0-.52.24,1.4,1.4,0,0,0-.38.42,1.24,1.24,0,0,0-.14.6,1.08,1.08,0,0,0,.13.56,1.19,1.19,0,0,0,.36.38,2.39,2.39,0,0,0,.53.27l.66.22.85.29a3.39,3.39,0,0,1,.77.43,2,2,0,0,1,.79,1.68,2.39,2.39,0,0,1-.24,1.11,2,2,0,0,1-.63.78,2.69,2.69,0,0,1-.91.46,3.77,3.77,0,0,1-1.06.15,3.86,3.86,0,0,1-1.5-.3,3,3,0,0,1-1.2-.9l.89-.75a2.12,2.12,0,0,0,.78.7,2.24,2.24,0,0,0,1.05.26,1.89,1.89,0,0,0,.58-.08,1.62,1.62,0,0,0,.53-.25,1.38,1.38,0,0,0,.39-.44,1.22,1.22,0,0,0,.15-.63,1.1,1.1,0,0,0-.16-.62,1.21,1.21,0,0,0-.42-.42,2.55,2.55,0,0,0-.62-.3l-.75-.25a7.08,7.08,0,0,1-.77-.28,2.68,2.68,0,0,1-.69-.43,2.14,2.14,0,0,1-.49-.65,2.21,2.21,0,0,1-.18-.95,2,2,0,0,1,.25-1.05,2.08,2.08,0,0,1,.65-.73,2.59,2.59,0,0,1,.9-.43,4,4,0,0,1,1-.13,3.52,3.52,0,0,1,1.34.26,2.47,2.47,0,0,1,1,.68Z"/><path d="M154.27,363.33h-1.15v-7.2h-2.63v-1h6.41v1h-2.63Z"/><path d="M167.63,359.21a4.51,4.51,0,0,1-.33,1.75,4.32,4.32,0,0,1-.91,1.37,4.15,4.15,0,0,1-1.38.89,4.76,4.76,0,0,1-1.74.32,4.68,4.68,0,0,1-1.74-.32,4.11,4.11,0,0,1-1.37-.89,4.16,4.16,0,0,1-.91-1.37,4.95,4.95,0,0,1,0-3.5,3.92,3.92,0,0,1,.91-1.36,4.08,4.08,0,0,1,1.37-.88,4.68,4.68,0,0,1,1.74-.31,4.76,4.76,0,0,1,1.74.31,4.12,4.12,0,0,1,1.38.88,4.06,4.06,0,0,1,.91,1.36A4.51,4.51,0,0,1,167.63,359.21Zm-1.24,0a3.81,3.81,0,0,0-.22-1.27,3.27,3.27,0,0,0-.63-1.05,2.91,2.91,0,0,0-1-.71,3.31,3.31,0,0,0-2.57,0,2.81,2.81,0,0,0-1,.71,3.24,3.24,0,0,0-.62,1.05,3.57,3.57,0,0,0-.22,1.27,3.64,3.64,0,0,0,.22,1.29,3.27,3.27,0,0,0,.63,1.05,2.84,2.84,0,0,0,1,.7,3.11,3.11,0,0,0,1.28.26,3.2,3.2,0,0,0,1.29-.26,2.88,2.88,0,0,0,1-.7,3.27,3.27,0,0,0,.63-1.05A3.88,3.88,0,0,0,166.39,359.21Z"/><path d="M176.49,362.31h4.29v1h-5.44v-8.21h5.27v1h-4.12v2.46h3.87v1h-3.87Z"/><path d="M185,362.31h3.67v1h-4.81v-8.21H185Z"/><path d="M192.63,362.31h4.29v1h-5.44v-8.21h5.27v1h-4.12v2.46h3.87v1h-3.87Z"/><path d="M203.05,361.85h0l2.47-6.73h1.24l-3.23,8.21h-1.06l-3.2-8.21h1.27Z"/><path d="M209.15,363.33h-1.28l3.56-8.21h1l3.53,8.21h-1.3l-.84-2H210Zm1.22-3h3.08l-1.53-3.85Z"/><path d="M220.76,363.33h-1.14v-7.2H217v-1h6.42v1h-2.64Z"/><path d="M227.31,362.31h4.29v1h-5.43v-8.21h5.26v1h-4.12v2.46h3.88v1h-3.88Z"/><path d="M76.62,378.75H75.46V375.2l-3.07-4.66H73.8l2.27,3.71,2.29-3.71h1.33l-3.07,4.66Z"/><path d="M90.09,374.63a4.37,4.37,0,0,1-.34,1.75,4.1,4.1,0,0,1-2.29,2.26,4.86,4.86,0,0,1-3.47,0,4.12,4.12,0,0,1-2.28-2.26,5,5,0,0,1,0-3.51,3.88,3.88,0,0,1,.91-1.35,4,4,0,0,1,1.37-.88,5,5,0,0,1,3.47,0,3.93,3.93,0,0,1,1.38.88,3.88,3.88,0,0,1,.91,1.35A4.38,4.38,0,0,1,90.09,374.63Zm-1.25,0a3.57,3.57,0,0,0-.22-1.27,3.07,3.07,0,0,0-.62-1.05,2.91,2.91,0,0,0-1-.71,3.33,3.33,0,0,0-2.58,0,2.87,2.87,0,0,0-1,.71,3.24,3.24,0,0,0-.62,1.05,3.57,3.57,0,0,0-.22,1.27,3.64,3.64,0,0,0,.22,1.29,3.24,3.24,0,0,0,.62,1.05,3.13,3.13,0,0,0,1,.7,3.06,3.06,0,0,0,1.27.25,3.13,3.13,0,0,0,1.29-.25,3,3,0,0,0,1-.7,3.07,3.07,0,0,0,.62-1.05A3.64,3.64,0,0,0,88.84,374.63Z"/><path d="M96.45,379a3.27,3.27,0,0,1-1.42-.28,3,3,0,0,1-1-.72,3,3,0,0,1-.58-1,3.78,3.78,0,0,1-.19-1.21v-5.17H94.4v5.1a3.38,3.38,0,0,0,.11.83,2,2,0,0,0,.34.73,1.82,1.82,0,0,0,.63.53,2.55,2.55,0,0,0,1.93,0,1.82,1.82,0,0,0,.63-.53,2,2,0,0,0,.34-.73,3.38,3.38,0,0,0,.11-.83v-5.1h1.15v5.17a3.79,3.79,0,0,1-.2,1.21,2.79,2.79,0,0,1-1.58,1.76A3.26,3.26,0,0,1,96.45,379Z"/><path d="M104.41,378.75h-1.15v-8.21h2.63a5.15,5.15,0,0,1,1.13.12,2.69,2.69,0,0,1,.93.39,1.78,1.78,0,0,1,.63.7,2.16,2.16,0,0,1,.24,1.06,2,2,0,0,1-.56,1.46,2.59,2.59,0,0,1-1.44.71l2.3,3.77h-1.39l-2.09-3.66h-1.23Zm0-4.62h1.32a3.7,3.7,0,0,0,.76-.07,1.79,1.79,0,0,0,.6-.23,1.08,1.08,0,0,0,.42-.4,1.19,1.19,0,0,0,.15-.62,1.16,1.16,0,0,0-.15-.62,1.18,1.18,0,0,0-.4-.4,2.06,2.06,0,0,0-.59-.22,4,4,0,0,0-.71-.06h-1.4Z"/><path d="M123.57,377.47a3.75,3.75,0,0,1-1.26,1.07,3.91,3.91,0,0,1-1.87.42,4.68,4.68,0,0,1-1.74-.32,4,4,0,0,1-1.36-.9,3.85,3.85,0,0,1-.9-1.36,4.83,4.83,0,0,1,0-3.51,3.9,3.9,0,0,1,.92-1.35,4.12,4.12,0,0,1,1.38-.88,4.76,4.76,0,0,1,1.74-.31,4.14,4.14,0,0,1,.85.08,3.7,3.7,0,0,1,.82.24,3.12,3.12,0,0,1,.72.4,2.44,2.44,0,0,1,.56.55l-.9.7a2.3,2.3,0,0,0-.86-.69,2.63,2.63,0,0,0-1.19-.27,3,3,0,0,0-1.29.26,2.91,2.91,0,0,0-1,.71,3.27,3.27,0,0,0-.63,1.05,3.81,3.81,0,0,0-.22,1.27,3.94,3.94,0,0,0,.22,1.3,3.22,3.22,0,0,0,.61,1.05,2.88,2.88,0,0,0,1,.7,3.11,3.11,0,0,0,1.28.26,2.91,2.91,0,0,0,1.26-.28,2.4,2.4,0,0,0,.94-.82Z"/><path d="M134.48,374.63a4.55,4.55,0,0,1-.33,1.75,4,4,0,0,1-.91,1.36,4.17,4.17,0,0,1-1.38.9,4.68,4.68,0,0,1-1.74.32,4.63,4.63,0,0,1-1.73-.32,4.17,4.17,0,0,1-1.38-.9,4,4,0,0,1-.9-1.36,4.83,4.83,0,0,1,0-3.51,3.85,3.85,0,0,1,.9-1.35,4.12,4.12,0,0,1,1.38-.88,4.63,4.63,0,0,1,1.73-.31,4.68,4.68,0,0,1,1.74.31,4.12,4.12,0,0,1,1.38.88,3.88,3.88,0,0,1,.91,1.35A4.56,4.56,0,0,1,134.48,374.63Zm-1.24,0a3.57,3.57,0,0,0-.22-1.27,3.27,3.27,0,0,0-.63-1.05,2.81,2.81,0,0,0-1-.71,3.31,3.31,0,0,0-2.57,0,2.91,2.91,0,0,0-1,.71,3.43,3.43,0,0,0-.62,1.05,3.81,3.81,0,0,0-.22,1.27,3.88,3.88,0,0,0,.22,1.29,3.27,3.27,0,0,0,.63,1.05,2.92,2.92,0,0,0,2.25.95,3.19,3.19,0,0,0,1.29-.25,3,3,0,0,0,1-.7,3.27,3.27,0,0,0,.63-1.05A3.64,3.64,0,0,0,133.24,374.63Z"/><path d="M142,376.84h0l2.42-6.3h1.79v8.21h-1.15v-6.87h0l-2.72,6.87h-.73l-2.72-6.87h0v6.87h-1.11v-8.21h1.78Z"/><path d="M151,378.75h-1.15v-8.21H155v1h-4v2.56h3.72v1H151Z"/><path d="M166.32,374.63a4.55,4.55,0,0,1-.33,1.75,4.1,4.1,0,0,1-2.29,2.26,4.86,4.86,0,0,1-3.47,0,4.12,4.12,0,0,1-2.28-2.26,5,5,0,0,1,0-3.51,3.88,3.88,0,0,1,.91-1.35,4,4,0,0,1,1.37-.88,5,5,0,0,1,3.47,0,3.93,3.93,0,0,1,1.38.88,3.88,3.88,0,0,1,.91,1.35A4.56,4.56,0,0,1,166.32,374.63Zm-1.24,0a3.57,3.57,0,0,0-.22-1.27,3.07,3.07,0,0,0-.62-1.05,2.91,2.91,0,0,0-1-.71,3.05,3.05,0,0,0-1.3-.26,3,3,0,0,0-1.28.26,2.87,2.87,0,0,0-1,.71,3.07,3.07,0,0,0-.62,1.05,3.57,3.57,0,0,0-.22,1.27,3.64,3.64,0,0,0,.22,1.29,3.07,3.07,0,0,0,.62,1.05,3,3,0,0,0,1,.7,3.06,3.06,0,0,0,1.27.25,3.16,3.16,0,0,0,1.29-.25,3,3,0,0,0,1-.7,3.07,3.07,0,0,0,.62-1.05A3.64,3.64,0,0,0,165.08,374.63Z"/><path d="M170.72,378.75h-1.15v-8.21h2.63a5.15,5.15,0,0,1,1.13.12,2.69,2.69,0,0,1,.93.39,1.88,1.88,0,0,1,.64.7,2.27,2.27,0,0,1,.23,1.06,2,2,0,0,1-.56,1.46,2.59,2.59,0,0,1-1.44.71l2.3,3.77H174L172,375.09h-1.23Zm0-4.62H172a3.7,3.7,0,0,0,.76-.07,1.79,1.79,0,0,0,.6-.23,1.08,1.08,0,0,0,.42-.4,1.19,1.19,0,0,0,.15-.62,1.16,1.16,0,0,0-.15-.62,1.18,1.18,0,0,0-.4-.4,2.06,2.06,0,0,0-.59-.22,4,4,0,0,0-.71-.06h-1.4Z"/><path d="M181.32,378.75h-1.14v-7.21h-2.64v-1H184v1h-2.64Z"/><path d="M196.61,371.54,192,377.73h4.71v1h-6.1v-1l4.63-6.2h-4.54v-1h5.94Z"/><path d="M207.56,374.63a4.55,4.55,0,0,1-.33,1.75,4.1,4.1,0,0,1-2.29,2.26,4.86,4.86,0,0,1-3.47,0,4.12,4.12,0,0,1-2.28-2.26,5,5,0,0,1,0-3.51,3.88,3.88,0,0,1,.91-1.35,4,4,0,0,1,1.37-.88,5,5,0,0,1,3.47,0,3.93,3.93,0,0,1,1.38.88,3.88,3.88,0,0,1,.91,1.35A4.56,4.56,0,0,1,207.56,374.63Zm-1.24,0a3.57,3.57,0,0,0-.22-1.27,3.07,3.07,0,0,0-.62-1.05,2.91,2.91,0,0,0-1-.71,3.05,3.05,0,0,0-1.3-.26,3,3,0,0,0-1.28.26,2.77,2.77,0,0,0-1,.71,3.07,3.07,0,0,0-.62,1.05,3.57,3.57,0,0,0-.22,1.27,3.64,3.64,0,0,0,.22,1.29A3.07,3.07,0,0,0,201,377a3,3,0,0,0,1,.7,3.06,3.06,0,0,0,1.27.25,3.19,3.19,0,0,0,1.29-.25,3,3,0,0,0,1-.7,3.07,3.07,0,0,0,.62-1.05A3.64,3.64,0,0,0,206.32,374.63Z"/><path d="M216.6,377.1h0v-6.56h1.15v8.21h-1.45L212,372h0v6.71h-1.15v-8.21h1.5Z"/><path d="M222.59,377.73h4.29v1h-5.44v-8.21h5.27v1h-4.12V374h3.88v1h-3.88Z"/></g></g></svg>