<svg xmlns="http://www.w3.org/2000/svg" viewBox="0 0 432 288"><title>lockup</title><g id="Layer_2" data-name="Layer 2"><g id="rect"><rect width="432" height="288" fill="none"/></g><g id="logo"><path d="M282,88.49a2.36,2.36,0,0,1,.15,1.28,5.35,5.35,0,0,1-2.28,1.07,35.28,35.28,0,0,0-6,2.11c-1.3.84-3.27,2-3.83,2.4s-.89.58-1,1.06c-.11,1,1.53,4.62,2,4.79a17.64,17.64,0,0,1,2.18.75c.51.3.76,1.14.26,1.14h-4.65c-.68,0-1.59-1.8-4.66-3.51-.62-.22-1,.33-1.18.59a2,2,0,0,0-.49,1c0,.4,1.2.48,1.76.7a1.31,1.31,0,0,1,.61.64.39.39,0,0,1-.34.6h-3.84c-.36,0-.58,0-1-.86a9.26,9.26,0,0,1-.37-.94c-.44-1.21.11-2.34.25-3.57-.32-.38-.75-.31-1.32-.27a5.93,5.93,0,0,0-2.44.55c-.45.38,0,1.21.23,1.68s.6,1.61,1.33,1.73a2.44,2.44,0,0,1,1.67.86.5.5,0,0,1,.07.25c0,.44-.19.61-.57.57h-4c-.48,0-1.89-2.11-4-3.35a3.43,3.43,0,0,0-2,1c-.27.29-.51.54-.3.78s.5.21.91.31a1.19,1.19,0,0,1,.92.71c0,.18.18.6-.19.6h-4.89a.47.47,0,0,1-.42-.28,7.58,7.58,0,0,1,.27-2.79c.28-1,1-2.46,1.06-3a24.42,24.42,0,0,0-1.13-3.8c-.27-.93-.89-3-.44-3.79.64-1.46,2.28-5,5.84-6a12.15,12.15,0,0,1,4.62,0,38.06,38.06,0,0,0,4.55.43,30.8,30.8,0,0,0,7.67-.5,42.45,42.45,0,0,1,5.8,1.11c.51,0,.67-.73,1.19-.42s1,1,1.69.65a.39.39,0,0,1,.47-.06,9.5,9.5,0,0,0,1,.95c.36.24,2,.46,2.46,1.28C280.11,87.89,281.14,88,282,88.49Z" fill="#231f20"/><path d="M276.32,100.14a1.62,1.62,0,1,1-1.64,1.62A1.62,1.62,0,0,1,276.32,100.14Zm1.32,1.62a1.32,1.32,0,1,0-1.32,1.35A1.31,1.31,0,0,0,277.64,101.76Z" fill="#231f20"/><path d="M276.59,101.87l.53.83h-.32l-.5-.82H276v.82h-.29v-1.87h.72c.44,0,.66.16.66.53A.48.48,0,0,1,276.59,101.87Zm.19-.53c0-.23-.22-.27-.41-.27H276v.57h.34C276.56,101.64,276.78,101.63,276.78,101.34Z" fill="#231f20"/><path d="M243.55,103.07h-6.92a1.56,1.56,0,0,1-.69-.58,9.38,9.38,0,0,1-1.9-6.26c0-2.31-1.68-6-4.83-6h-2.47v12.88h-6.5V71.8h6.5v4.67A9.52,9.52,0,0,1,228.67,74,8.54,8.54,0,0,1,231,72.18a13.35,13.35,0,0,1,4.28.35,9.52,9.52,0,0,1,6.3,8.91c0,2.43-1.57,6.07-3.89,7.53-.15.09-.38.3-.2.52a12.59,12.59,0,0,1,1.66,2.75c1.06,2.53.57,5.72,2.08,8A8.46,8.46,0,0,0,243.55,103.07ZM232.89,84.25a2.67,2.67,0,0,0,2.44-2.86,2.46,2.46,0,0,0-2.44-2.7h-6.15v5.56Z" fill="#231f20"/><path d="M218.87,71.8v31.27h-6.68V90.25h-8.31c.08-.14-.14,0,0,0v12.82h-6.66V71.8h6.66V84.13h8.31V71.8Z" fill="#231f20"/><path d="M203.88,90.25c-.14,0,.08-.14,0,0Z" fill="#231f20"/><path d="M195.83,71.8c0,.68,0,1.63,0,2.59,0,1.91,0,3.88,0,3.88h-11.9v5.89h9.92v6.11h-9.92v7h11.9v5.84H177.52V71.8h6.36v5.07a8.8,8.8,0,0,1,1.78-2.9,7.07,7.07,0,0,1,2.5-2.17Z" fill="#231f20"/><path d="M172.23,73.75A9.52,9.52,0,0,1,176,83.41a9.61,9.61,0,0,1-1.93,4v.24a11.29,11.29,0,0,1,1.7,3,9.44,9.44,0,0,1-9.19,12.38H154.89V71.8h6.59v5.07a9.65,9.65,0,0,1,3.8-4.72C168.08,72,170.06,72.17,172.23,73.75ZM167,97.05s3,.1,3-3.39-3-3.33-3-3.33h-5.54v6.72Zm2.84-15.86a2.77,2.77,0,0,0-3-2.86h-5.42v5.76h5.42A2.82,2.82,0,0,0,169.86,81.19Z" fill="#231f20"/><path d="M26.37,149.54c0-9.9,7.15-16.66,16.08-16.66A14.38,14.38,0,0,1,53.66,138L52.45,139a12.86,12.86,0,0,0-10-4.68c-8.06,0-14.39,6.13-14.39,15.21s6.33,15.21,14.39,15.21a12.86,12.86,0,0,0,10-4.68l1.26,1a14.34,14.34,0,0,1-11.26,5.12C33.52,166.2,26.37,159.44,26.37,149.54Z" fill="#231f20"/><path d="M77.76,132.88c9.32,0,15.31,7.34,15.31,16.66s-6,16.66-15.31,16.66-15.31-7.34-15.31-16.66S68.39,132.88,77.76,132.88Zm0,1.45c-8.35,0-13.62,6.37-13.62,15.21s5.27,15.21,13.62,15.21,13.62-6.47,13.62-15.21S86,134.33,77.76,134.33Z" fill="#231f20"/><path d="M104.33,133.41h1.54v30.76h16.18v1.45H104.33Z" fill="#231f20"/><path d="M144.56,132.88c9.32,0,15.31,7.34,15.31,16.66s-6,16.66-15.31,16.66-15.31-7.34-15.31-16.66S135.19,132.88,144.56,132.88Zm0,1.45c-8.36,0-13.62,6.37-13.62,15.21s5.26,15.21,13.62,15.21,13.62-6.47,13.62-15.21S152.82,134.33,144.56,134.33Z" fill="#231f20"/><path d="M180.4,151.72h-7.73v13.9h-1.55V133.41h11.11c5.22,0,9.52,3.24,9.52,9.13s-4.3,9.18-9.52,9.18l10,13.9h-2Zm1.83-16.86h-9.56v15.41h9.56a7.71,7.71,0,1,0,0-15.41Z" fill="#231f20"/><path d="M215.12,138.39h-9.75v-5h25.16v5h-9.76v27.23h-5.65Z" fill="#231f20"/><path d="M250.43,153.6h-5.6v12h-5.65V133.41h14.15c6.37,0,10.53,4.16,10.53,10.09,0,5.75-3.77,8.84-7.63,9.47l7.87,12.65h-6.52Zm2.13-15.21h-7.73v10.23h7.73c3.18,0,5.5-2,5.5-5.12S255.74,138.39,252.56,138.39Z" fill="#231f20"/><path d="M273.37,133.41h22.07v5H279v8.35h16.09v5H279v8.93h16.42v5H273.37Z" fill="#231f20"/><path d="M310.76,142.15v23.47h-5.65V133.41h5.79l16.47,22.84V133.41H333v32.21h-5.46Z" fill="#231f20"/><path d="M343.75,133.41h12c10,0,16.86,6.67,16.86,16.13s-6.81,16.08-16.86,16.08h-12Zm12,27.24c7,0,11.06-5,11.06-11.11s-3.86-11.15-11.06-11.15H349.4v22.26Z" fill="#231f20"/><path d="M382.24,156.74a13.92,13.92,0,0,0,10.19,4.44c4.64,0,6.47-2.27,6.47-4.39,0-2.9-3.43-3.77-7.34-4.79-5.26-1.3-11.44-2.84-11.44-9.65,0-5.32,4.68-9.42,11.73-9.42a16.76,16.76,0,0,1,12.08,4.49l-3.24,4.2a13.1,13.1,0,0,0-9.32-3.67c-3.33,0-5.46,1.59-5.46,4s3.29,3.33,7.1,4.3c5.31,1.35,11.64,3,11.64,10,0,5.37-3.77,9.95-12.46,9.95-5.94,0-10.24-2.07-13.09-5.12Z" fill="#231f20"/><path d="M155.22,206.81c6-4.43,7.76-5.95,7.76-7.75,0-1.28-1.16-1.91-2.4-1.91a5.23,5.23,0,0,0-3.91,1.69l-1.78-2.07a7.46,7.46,0,0,1,5.65-2.4c3.13,0,5.61,1.76,5.61,4.69,0,2.51-2.07,4.69-6,7.46h6.12v2.75h-11Z" fill="#231f20"/><path d="M198,194.37c4.18,0,6.08,3.79,6.08,7.57s-1.9,7.59-6.08,7.59-6.07-3.8-6.07-7.59S193.76,194.37,198,194.37Zm0,2.78c-2.11,0-2.9,2.09-2.9,4.79s.79,4.82,2.9,4.82,2.88-2.11,2.88-4.82S200.05,197.15,198,197.15Z" fill="#231f20"/><path d="M229.58,206.81c6-4.43,7.76-5.95,7.76-7.75,0-1.28-1.16-1.91-2.4-1.91a5.23,5.23,0,0,0-3.91,1.69l-1.78-2.07a7.46,7.46,0,0,1,5.65-2.4c3.12,0,5.61,1.76,5.61,4.69,0,2.51-2.07,4.69-6,7.46h6.12v2.75h-11Z" fill="#231f20"/><path d="M270,198.62l-2.44,2.49-1.79-1.87,4.62-4.65h2.73v14.68H270Z" fill="#231f20"/></g></g></svg>