<svg xmlns="http://www.w3.org/2000/svg" viewBox="0 0 104.13 123.95"><title>thd_logo</title><g id="Layer_2" data-name="Layer 2"><g id="thd_logo"><rect y="19.83" width="104.13" height="104.12" fill="#f48120"/><path d="M95.87,118.86a3,3,0,1,1,3,2.93A2.92,2.92,0,0,1,95.87,118.86Zm3,2.45a2.45,2.45,0,1,0-2.39-2.45A2.36,2.36,0,0,0,98.84,121.31Zm-.62-.76h-.51v-3.37H99c.81,0,1.2.29,1.2,1a.88.88,0,0,1-.88.93l1,1.48H99.7l-.89-1.46h-.59Zm.61-1.89c.43,0,.82,0,.82-.56s-.38-.49-.73-.49h-.7v1Z" fill="#fff"/><path d="M23.1,102.25,20.4,105l-1.78-1.78,2.7-2.7-7-7c-1.13-1.14-1.28-1.35-2.7-.61a1.21,1.21,0,0,1-1.5-.16c-.89-.89.06-2,.18-2.09L19,82c.13-.12,1.2-1.07,2.09-.18a1.21,1.21,0,0,1,.16,1.5c-.74,1.42-.52,1.56.62,2.7L38,102.08c1.14,1.14,1.29,1.36,2.71.62a1.19,1.19,0,0,1,1.5.16c.89.89-.06,2-.18,2.09l-8.68,8.67c-.13.12-1.2,1.07-2.09.19a1.22,1.22,0,0,1-.16-1.51c.74-1.41.53-1.56-.61-2.7ZM0,100.94l7.4-7.39c.13-.12,1.2-1.08,2.09-.19a1.19,1.19,0,0,1,.15,1.5c-.74,1.42-.52,1.57.62,2.71l16.11,16.1c1.14,1.15,1.29,1.36,2.7.63a1.21,1.21,0,0,1,1.51.15c.88.89-.07,2-.19,2.09L23,124H19.44l0,0c.73-1.41.52-1.57-.62-2.71L2.74,105.09C1.6,104,1.45,103.73.05,104.47c0,0,0,0,0,0Z" fill="#fff"/><path d="M31.36,72.23A2.92,2.92,0,0,0,32,76L47.93,91.93a2.92,2.92,0,0,0,3.78.65l1.78,1.78c-7.09,5.92-15.37,3.7-21.5-2.42s-8.33-14.41-2.41-21.49Zm21.73,19a2.92,2.92,0,0,0-.65-3.78L36.52,71.5a2.92,2.92,0,0,0-3.78-.65L31,69.07c7.08-5.92,15.38-3.7,21.5,2.41S60.79,85.89,54.87,93Z" fill="#fff"/><path d="M87,58a1.19,1.19,0,0,0-1.5-.15c-1.41.73-1.56.52-2.7-.62L66.67,41.16c-1.14-1.13-1.36-1.28-.62-2.7a1.21,1.21,0,0,0-.16-1.5c-.89-.89-2,.06-2.08.18l-8.1,8.1,6.61,12.25-.06.06L49.55,51.4l-7.79,7.79c-.37.37-1.29,1.29-.34,2.24.74.74,1.63,0,2-.37.56-.49,1.05-.24,1.79-.05a8.58,8.58,0,0,1,1.87.77L72.54,74.39l.88-.89L61,50.51,75.26,64.79c1.13,1.14,1.35,1.29.62,2.7A1.18,1.18,0,0,0,76,69c.89.89,2,0,2.09-.18l8.68-8.68C86.93,60,87.87,58.93,87,58Z" fill="#fff"/><path d="M63,74.26,57.67,69l-6.79-3.35-.06.06L61.18,76c3.35,4.33.19,5.1,1.51,6.42,1,1,2.15-.37,2.49-.71l3.49-3.49c.34-.34,1.65-1.53.7-2.49C68.05,74.45,67.29,77.61,63,74.26Z" fill="#fff"/><path d="M67.21,33.74l8.09-8.1,23,23-8.1,8.1c-.12.12-1.2,1.07-2.09.18a1.19,1.19,0,0,1-.15-1.5c.73-1.42.52-1.57-.62-2.71L71.23,36.6c-1.13-1.14-1.29-1.36-2.7-.62a1.19,1.19,0,0,1-1.5-.15C66.14,34.94,67.09,33.86,67.21,33.74ZM85.94,19.83l3.83,3.83c.15.15.71.77-.22,1.69-.52.52-1,.37-1.59.06a8.35,8.35,0,0,0-9.49.63l-1.79-1.78,4.44-4.43Zm18.19,23-4.45,4.46L97.9,45.47a8.91,8.91,0,0,0,.76-9.67c-.25-.68-.56-1.36,0-1.9a1.22,1.22,0,0,1,1.93.16l3.55,3.54ZM87,34.53c1-1.63.33-3.41-.57-4.86-.36-.67-.67-1.35,0-2,1-.95,1.91.31,2.16.55l6.63,6.64c.25.25,1.51,1.2.56,2.15-.65.65-1.32.33-2,0-1.44-.89-3.22-1.5-4.85-.56Z" fill="#fff"/><path d="M46.27,106.44c2.9-3,7.39-3.38,12.06.87,4.25,3.87,3.74,9.2.86,12.06l-1-1c.91-1.19,0-2.23-.68-2.89l-7.36-7.36c-.66-.65-1.69-1.59-2.89-.67Z" fill="#fff"/><path d="M52.6,124c0-.12.12-.25.18-.38.23-.43-.27-.86-.53-1.12l-9.06-9.06c-.26-.25-.69-.76-1.12-.53s-.84.5-1.28.07-.07-.93.28-1.28l4.42-4.42,12.93,12.92-3.8,3.8Z" fill="#fff"/><path d="M52.71,100l4.56-4.56L70.2,108.37l-4.56,4.56c-.07.07-.67.6-1.18.1a.66.66,0,0,1-.08-.84c.41-.8.29-.88-.35-1.52L55,101.61c-.64-.64-.73-.76-1.53-.35a.68.68,0,0,1-.85-.08C52.11,100.68,52.64,100.07,52.71,100Zm5.34-5.34,3.86-3.85,3.5,3.51c.09.09.41.43-.12,1-.29.29-.55.21-.89,0a4.72,4.72,0,0,0-5.34.37ZM70,106.59a5,5,0,0,0,.43-5.45c-.14-.38-.31-.75,0-1.07a.68.68,0,0,1,1.08.09L75,103.62l-4,4Zm-6.16-6.16a2.57,2.57,0,0,0-.31-2.72c-.21-.38-.38-.77,0-1.13.53-.54,1.06.18,1.21.31l3.73,3.74c.14.13.84.67.31,1.21-.36.36-.74.19-1.12,0a2.61,2.61,0,0,0-2.73-.31Z" fill="#fff"/><path d="M68.58,84.14a9.23,9.23,0,0,1,4.06-2.78,5.72,5.72,0,0,1,6.7,6.7c-.34,1.28-1.14,2.42-2.78,4.07l-1-1c.83-1.22.18-2-.67-2.83l-2.61-2.61c-.78-.77-1.65-1.33-2.7-.55Zm-3.08,7c-.64-.64-.73-.76-1.52-.34a.69.69,0,0,1-.85-.09c-.5-.5,0-1.11.11-1.18l4.56-4.56,11,11c.64.64.72.76,1.52.35a.68.68,0,0,1,.85.08c.5.5,0,1.11-.11,1.18l-4.88,4.89a.71.71,0,0,1-1,0,.64.64,0,0,1-.14-.81c.42-.79.2-.79-.44-1.43Z" fill="#fff"/><path d="M79.53,74.68a1.63,1.63,0,0,0,.36,2.12l9,9a1.63,1.63,0,0,0,2.12.36l1,1c-4,3.33-8.66,2.09-12.09-1.35s-4.69-8.11-1.35-12.1ZM91.75,85.34a1.64,1.64,0,0,0-.37-2.13l-8.95-8.95a1.63,1.63,0,0,0-2.12-.36l-1-1c4-3.33,8.66-2.09,12.1,1.35s4.69,8.1,1.35,12.1Z" fill="#fff"/><path d="M104.13,74.44,100,78.59c-.07.07-.67.6-1.17.1a.65.65,0,0,1-.09-.84c.42-.8.29-.88-.34-1.52l-11-11,4.24-4.24,11,11c.64.64.72.76,1.52.34ZM98.91,61.86a.73.73,0,0,1-.07,1.07c-.49.48-1,.12-1.45-.21-1.07-.75-2.46-1.65-4-1.39l-1-1,2.49-2.5ZM84.12,68.6l2.49-2.49,1,1c-.26,1.54.63,2.92,1.4,4,.33.43.69,1,.2,1.45a.72.72,0,0,1-1.06.07Z" fill="#fff"/><path d="M12.48,59.25l4-4L26.79,65.6c.6.61.68.72,1.43.33A.64.64,0,0,1,29,66c.47.47,0,1-.1,1.1l-4.6,4.6c-.06.07-.63.57-1.1.1a.65.65,0,0,1-.09-.8c.4-.74.28-.83-.32-1.43ZM23.32,56a.7.7,0,0,1-.07,1c-.45.45-1,.11-1.37-.2a5.19,5.19,0,0,0-3.75-1.32l-.94-.94,2.34-2.34ZM9.41,62.32,11.75,60l.94,1A5.22,5.22,0,0,0,14,64.68c.31.41.65.91.19,1.36a.7.7,0,0,1-1,.07Z" fill="#fff"/><path d="M35.24,57.16c.6.6.68.71,1.43.32a.65.65,0,0,1,.79.08c.48.48,0,1-.1,1.11l-4.59,4.59c-.07.07-.64.57-1.11.1a.65.65,0,0,1-.08-.79c.39-.75.28-.83-.32-1.43l-8.51-8.51c-.61-.61-.69-.72-1.44-.33a.62.62,0,0,1-.79-.08c-.47-.47,0-1,.1-1.1l4.59-4.6c.07-.07.64-.57,1.11-.1a.63.63,0,0,1,.08.8c-.39.74-.28.82.33,1.43Zm-1.72-6-1.44,1.42-.94-.94,1.43-1.43-3.69-3.69c-.59-.6-.68-.71-1.43-.32a.62.62,0,0,1-.79-.08c-.47-.47,0-1,.1-1.11l4.59-4.59c.07-.07.64-.57,1.11-.1a.65.65,0,0,1,.08.79c-.39.75-.28.84.33,1.44L41.38,51c.6.6.68.71,1.43.32a.65.65,0,0,1,.79.08c.47.47,0,1-.1,1.11l-4.59,4.59c-.07.07-.64.57-1.11.1a.62.62,0,0,1-.08-.79c.39-.75.28-.83-.32-1.43Z" fill="#fff"/><path d="M33.74,38,38,33.7,50.18,45.85l-4.29,4.29c-.06.07-.63.57-1.1.1a.63.63,0,0,1-.08-.8c.38-.75.28-.83-.33-1.43L35.87,39.5c-.6-.6-.68-.71-1.43-.32a.65.65,0,0,1-.79-.08C33.17,38.63,33.68,38.06,33.74,38Zm5-5,3.62-3.62,3.3,3.3c.08.08.37.4-.11.89-.28.28-.52.2-.85,0a4.41,4.41,0,0,0-5,.34ZM50,44.18a4.72,4.72,0,0,0,.41-5.12c-.13-.35-.3-.71,0-1a.65.65,0,0,1,1,.08l3.25,3.25-3.73,3.73ZM44.19,38.4a2.45,2.45,0,0,0-.3-2.57c-.19-.36-.35-.71,0-1.06.5-.5,1,.17,1.13.3l3.51,3.51c.13.13.8.63.3,1.13-.35.34-.7.18-1.06,0a2.47,2.47,0,0,0-2.57-.3Z" fill="#fff"/><path d="M2.55,0h8.67V2.14H5.1V4.63h5.62v2H5.1V9.45h6.25v2.14H2.55Z" fill="#fff"/><path d="M14.65,7.18l-2.76-4h2.63L16,5.39,17.46,3.2H20L17.25,7.13l3.1,4.46H17.72L16,9l-1.75,2.64H11.63Z" fill="#fff"/><path d="M26.62,6.15a1.56,1.56,0,0,0-1.7-1.44c-1.48,0-2,1.49-2,2.73s.48,2.64,1.92,2.64a1.78,1.78,0,0,0,1.84-1.7h2.22a3.75,3.75,0,0,1-4,3.44,4.07,4.07,0,0,1-4.24-4.3C20.65,4.9,22.21,3,24.94,3c2,0,3.8,1,3.94,3.18Z" fill="#fff"/><path d="M30,0h2.31V11.59H30Z" fill="#fff"/><path d="M41.65,11.59H39.46V10.43h-.05a3,3,0,0,1-2.57,1.39c-2.45,0-3.07-1.38-3.07-3.46V3.2h2.31V7.94c0,1.38.4,2.06,1.48,2.06,1.25,0,1.78-.7,1.78-2.4V3.2h2.31Z" fill="#fff"/><path d="M44.87,8.87c0,1,.86,1.41,1.77,1.41.66,0,1.51-.26,1.51-1.07s-1-.94-2.62-1.3c-1.33-.29-2.66-.76-2.66-2.24,0-2.15,1.85-2.7,3.65-2.7s3.53.62,3.7,2.68H48c-.06-.89-.74-1.14-1.57-1.14-.52,0-1.29.1-1.29.78,0,.83,1.3,1,2.62,1.25s2.66.8,2.66,2.36c0,2.21-1.91,2.92-3.83,2.92s-3.85-.73-3.95-3Z" fill="#fff"/><path d="M53.85,1.9H51.54V0h2.31ZM51.54,3.2h2.31v8.39H51.54Z" fill="#fff"/><path d="M60,11.59H57.42L54.55,3.2H57l1.77,5.73h0L60.54,3.2h2.29Z" fill="#fff"/><path d="M65.37,8c.06,1.46.77,2.12,2.06,2.12A1.91,1.91,0,0,0,69.25,9h2a3.77,3.77,0,0,1-3.93,2.82A4.1,4.1,0,0,1,63.06,7.4,4.21,4.21,0,0,1,67.35,3c2.85,0,4.23,2.41,4.07,5ZM69.12,6.5c-.22-1.17-.72-1.79-1.84-1.79A1.81,1.81,0,0,0,65.37,6.5Z" fill="#fff"/><path d="M72.53,0h2.3V11.59h-2.3Z" fill="#fff"/><path d="M80.47,12.65a2.63,2.63,0,0,1-2.89,1.9,13.33,13.33,0,0,1-1.41-.08v-1.9a11.9,11.9,0,0,0,1.34.08,1.08,1.08,0,0,0,.8-1.57l-3-7.88h2.46L79.72,9h0L81.59,3.2H84Z" fill="#fff"/><path d="M88.53,5.78C88.66,3.62,90.59,3,92.47,3c1.68,0,3.69.38,3.69,2.39V9.73a4.29,4.29,0,0,0,.29,1.86H94.11a3.52,3.52,0,0,1-.16-.81,3.81,3.81,0,0,1-2.82,1c-1.6,0-2.86-.79-2.86-2.52,0-1.9,1.43-2.35,2.86-2.54s2.72-.17,2.72-1.11-.68-1.14-1.49-1.14-1.45.36-1.53,1.27Zm5.32,1.71A4.6,4.6,0,0,1,91.94,8c-.72.15-1.37.39-1.37,1.24s.67,1.07,1.42,1.07a1.71,1.71,0,0,0,1.86-1.93Z" fill="#fff"/><path d="M100.55,3.2h1.69V4.74h-1.69V8.9c0,.78.19,1,1,1a3.5,3.5,0,0,0,.72-.06v1.8a8.31,8.31,0,0,1-1.35.08c-1.41,0-2.65-.32-2.65-2V4.74h-1.4V3.2h1.4V.68h2.31Z" fill="#fff"/></g></g></svg>