<?xml version="1.0" encoding="utf-8"?>
<!-- Generator: Adobe Illustrator 23.1.1, SVG Export Plug-In . SVG Version: 6.00 Build 0)  -->
<svg version="1.1" id="Layer_1" xmlns="http://www.w3.org/2000/svg" xmlns:xlink="http://www.w3.org/1999/xlink" x="0px" y="0px"
	 viewBox="0 0 970 250" style="enable-background:new 0 0 970 250;" xml:space="preserve">
<style type="text/css">
	.st0{fill:none;}
	.st1{fill:#FFFFFF;}
	.st2{fill:#19191D;}
	.st3{fill:#F48120;}
</style>
<title>footer</title>
<g>
	<g id="rect">
		<rect class="st0" width="970" height="250"/>
	</g>
	<g id="Layer_2-2">
		<g id="CTA">
			<g id="Rounded_Rectangle_1">
				<path class="st1" d="M763.5,184.7h187c2.2,0,4,1.8,4,4v23c0,2.2-1.8,4-4,4h-187c-2.2,0-4-1.8-4-4v-23
					C759.5,186.5,761.3,184.7,763.5,184.7z"/>
			</g>
			<g id="EXPLORE_THE_PALETTE_">
				<path class="st2" d="M773.4,203h4.3v1h-5.4v-8.2h5.3v1h-4.1v2.5h3.9v1h-3.9V203z"/>
				<path class="st2" d="M783.9,198.9l2-3.1h1.3l-2.6,3.9l3,4.3h-1.5l-2.2-3.5l-2.2,3.5h-1.4l2.9-4.3l-2.6-3.9h1.4L783.9,198.9z"/>
				<path class="st2" d="M790.4,195.8h2.5c0.4,0,0.8,0,1.2,0.1c0.3,0.1,0.6,0.2,0.9,0.4c0.2,0.2,0.5,0.4,0.6,0.7
					c0.1,0.3,0.2,0.7,0.2,1c0,0.4-0.1,0.7-0.2,1.1c-0.1,0.3-0.4,0.5-0.6,0.7c-0.3,0.2-0.6,0.3-1,0.4c-0.4,0.1-0.8,0.1-1.2,0.1h-1.2
					v3.6h-1.2L790.4,195.8z M791.6,199.4h1.2c0.3,0,0.5,0,0.8-0.1c0.2,0,0.4-0.1,0.6-0.2c0.2-0.1,0.3-0.2,0.4-0.4
					c0.1-0.2,0.1-0.4,0.1-0.6c0-0.2,0-0.4-0.2-0.6c-0.1-0.2-0.2-0.3-0.4-0.4c-0.2-0.1-0.4-0.2-0.6-0.2c-0.2,0-0.5-0.1-0.8-0.1h-1.2
					L791.6,199.4z"/>
				<path class="st2" d="M800,203h3.7v1h-4.8v-8.2h1.2V203z"/>
				<path class="st2" d="M814.3,199.9c0,0.6-0.1,1.2-0.3,1.8c-0.2,0.5-0.5,1-0.9,1.4c-0.4,0.4-0.9,0.7-1.4,0.9
					c-1.1,0.4-2.4,0.4-3.5,0c-1-0.4-1.9-1.2-2.3-2.3c-0.4-1.1-0.4-2.4,0-3.5c0.2-0.5,0.5-1,0.9-1.4c0.4-0.4,0.9-0.7,1.4-0.9
					c1.1-0.4,2.4-0.4,3.5,0c1,0.4,1.9,1.2,2.3,2.2C814.2,198.7,814.4,199.3,814.3,199.9z M813.1,199.9c0-0.4-0.1-0.9-0.2-1.3
					c-0.1-0.4-0.3-0.7-0.6-1.1c-0.3-0.3-0.6-0.5-1-0.7c-0.4-0.2-0.9-0.3-1.3-0.3c-0.4,0-0.9,0.1-1.3,0.3c-0.4,0.2-0.7,0.4-1,0.7
					c-0.3,0.3-0.5,0.7-0.6,1.1c-0.1,0.4-0.2,0.8-0.2,1.3c0,0.4,0.1,0.9,0.2,1.3c0.1,0.4,0.4,0.7,0.6,1c0.3,0.3,0.6,0.5,1,0.7
					c0.4,0.2,0.8,0.3,1.3,0.3c0.4,0,0.9-0.1,1.3-0.3c0.4-0.2,0.7-0.4,1-0.7c0.3-0.3,0.5-0.6,0.6-1
					C813,200.8,813.1,200.3,813.1,199.9z"/>
				<path class="st2" d="M818.8,204h-1.2v-8.2h2.6c0.4,0,0.8,0,1.1,0.1c0.3,0.1,0.6,0.2,0.9,0.4c0.3,0.2,0.5,0.4,0.6,0.7
					c0.2,0.3,0.3,0.7,0.2,1.1c0,0.5-0.2,1.1-0.6,1.5c-0.4,0.4-0.9,0.6-1.4,0.7l2.3,3.8h-1.4l-2.1-3.6h-1.2L818.8,204z M818.8,199.4
					h1.3c0.3,0,0.5,0,0.8-0.1c0.2,0,0.4-0.1,0.6-0.2c0.2-0.1,0.3-0.2,0.4-0.4c0.2-0.4,0.2-0.9,0-1.2c-0.1-0.2-0.2-0.3-0.4-0.4
					c-0.2-0.1-0.4-0.2-0.6-0.2c-0.2,0-0.5-0.1-0.7-0.1h-1.4L818.8,199.4z"/>
				<path class="st2" d="M827.5,203h4.3v1h-5.4v-8.2h5.3v1h-4.2v2.5h3.9v1h-3.9V203z"/>
				<path class="st2" d="M842.4,204h-1.1v-7.2h-2.6v-1h6.4v1h-2.6L842.4,204z"/>
				<path class="st2" d="M847.8,195.8h1.2v3.4h4.2v-3.4h1.2v8.2h-1.2v-3.8H849v3.8h-1.2V195.8z"/>
				<path class="st2" d="M859.1,203h4.3v1h-5.4v-8.2h5.3v1h-4.1v2.5h3.9v1h-3.9L859.1,203z"/>
				<path class="st2" d="M871,195.8h2.5c0.4,0,0.8,0,1.2,0.1c0.3,0.1,0.6,0.2,0.9,0.4c0.2,0.2,0.5,0.4,0.6,0.7
					c0.1,0.3,0.2,0.7,0.2,1c0,0.4-0.1,0.7-0.2,1.1c-0.1,0.3-0.4,0.5-0.6,0.7c-0.3,0.2-0.6,0.3-1,0.4c-0.4,0.1-0.8,0.1-1.2,0.1h-1.3
					v3.6H871L871,195.8z M872.2,199.4h1.2c0.3,0,0.5,0,0.8-0.1c0.2,0,0.4-0.1,0.6-0.2c0.2-0.1,0.3-0.2,0.4-0.4
					c0.1-0.2,0.1-0.4,0.1-0.6c0-0.2,0-0.4-0.2-0.6c-0.1-0.2-0.2-0.3-0.4-0.4c-0.2-0.1-0.4-0.2-0.6-0.2c-0.2,0-0.5-0.1-0.8-0.1h-1.2
					V199.4z"/>
				<path class="st2" d="M879.1,204h-1.3l3.6-8.2h1l3.6,8.2h-1.3l-0.8-2H880L879.1,204z M880.4,201h3.1l-1.5-3.9L880.4,201z"/>
				<path class="st2" d="M889.9,203h3.6v1h-4.8v-8.2h1.2L889.9,203z"/>
				<path class="st2" d="M897.5,203h4.3v1h-5.4v-8.2h5.3v1h-4.1v2.5h3.9v1h-3.9V203z"/>
				<path class="st2" d="M908,204h-1.2v-7.2h-2.6v-1h6.4v1H908V204z"/>
				<path class="st2" d="M916.7,204h-1.2v-7.2H913v-1h6.4v1h-2.6L916.7,204z"/>
				<path class="st2" d="M923.3,203h4.3v1h-5.4v-8.2h5.3v1h-4.1v2.5h3.9v1h-3.9V203z"/>
				<path class="st2" d="M935,195.2l4.9,3.6v0.9l-4.9,3.6V202l3.7-2.7l-3.7-2.7V195.2z"/>
			</g>
		</g>
		<g id="Layer_13">
			<rect x="12.2" y="186.7" class="st3" width="33.6" height="33.6"/>
			<!-- <path class="st1" d="M43.1,218.7c0-0.6,0.4-1,1-1s1,0.4,1,1s-0.4,1-1,1S43.1,219.2,43.1,218.7z M44.1,219.5
				c0.4,0,0.8-0.3,0.8-0.8c0-0.4-0.3-0.8-0.8-0.8c-0.4,0-0.8,0.3-0.8,0.8c0,0,0,0,0,0l0,0C43.3,219.1,43.6,219.4,44.1,219.5
				C44.1,219.5,44.1,219.5,44.1,219.5L44.1,219.5z M43.9,219.2h-0.2v-1.1h0.4c0.3,0,0.4,0.1,0.4,0.3c0,0.2-0.1,0.3-0.3,0.3l0,0
				l0.3,0.5h-0.2l-0.3-0.5h-0.2L43.9,219.2z M44.1,218.6c0.1,0,0.3,0,0.3-0.2s-0.1-0.2-0.2-0.2h-0.2v0.3H44.1z"/>
			<path class="st1" d="M19.6,213.3l-0.9,0.9l-0.6-0.6l0.9-0.9l-2.2-2.3c-0.4-0.4-0.4-0.4-0.9-0.2c-0.1,0.1-0.4,0.1-0.5,0
				c-0.3-0.3,0-0.6,0-0.7l2.8-2.8c0,0,0.4-0.4,0.7,0c0.1,0.1,0.1,0.3,0,0.5c-0.2,0.4-0.2,0.5,0.2,0.9l5.2,5.2
				c0.4,0.4,0.4,0.4,0.9,0.2c0.1-0.1,0.3-0.1,0.5,0c0.3,0.3,0,0.6,0,0.7l-2.8,2.8c0,0-0.4,0.3-0.7,0c-0.1-0.1-0.1-0.3,0-0.5
				c0.2-0.4,0.2-0.5-0.2-0.9L19.6,213.3z M12.1,212.9l2.4-2.4c0,0,0.4-0.4,0.7,0c0.1,0.1,0.1,0.3,0,0.5c-0.2,0.5-0.2,0.5,0.2,0.9
				l5.2,5.2c0.4,0.4,0.4,0.4,0.9,0.2c0.1-0.1,0.3-0.1,0.5,0c0.3,0.3,0,0.6,0,0.7l-2.3,2.4h-1.1c0.2-0.5,0.2-0.5-0.2-0.9l-5.2-5.2
				c-0.4-0.4-0.4-0.4-0.9-0.2l0,0L12.1,212.9z"/>
			<path class="st1" d="M22.3,203.6c-0.3,0.4-0.2,0.9,0.2,1.2l5.1,5.1c0.3,0.4,0.8,0.4,1.2,0.2l0.6,0.6c-2.3,1.9-5,1.2-6.9-0.8
				s-2.7-4.6-0.8-6.9L22.3,203.6z M29.3,209.8c0.2-0.4,0.1-0.9-0.2-1.2l-5.1-5.1c-0.3-0.4-0.8-0.5-1.2-0.2l-0.6-0.6
				c2.3-1.9,5-1.2,6.9,0.8s2.7,4.6,0.8,6.9L29.3,209.8z"/>
			<path class="st1" d="M40.2,199.1c-0.1-0.1-0.3-0.1-0.5,0c-0.5,0.2-0.5,0.2-0.9-0.2l-5.2-5.2c-0.4-0.4-0.4-0.4-0.2-0.9
				c0.1-0.1,0.1-0.3,0-0.5c-0.3-0.3-0.6,0-0.7,0l-2.6,2.6l2.2,3.9l0,0l-4.1-2l-2.5,2.5c-0.1,0.1-0.4,0.4-0.1,0.7s0.5,0,0.6-0.1
				s0.3-0.1,0.6,0c0.2,0.1,0.4,0.1,0.6,0.2l8.2,4.1L36,204l-4-7.5l4.6,4.6c0.4,0.4,0.4,0.4,0.2,0.9c-0.1,0.1-0.1,0.3,0,0.5
				c0.3,0.3,0.6,0,0.7,0l2.8-2.8C40.3,199.7,40.5,199.4,40.2,199.1z"/>
			<path class="st1" d="M32.5,204.3l-1.7-1.7l-2.2-1.1l0,0l3.4,3.4c1.1,1.4,0.1,1.6,0.5,2.1s0.7-0.1,0.8-0.2l1.1-1.1
				c0.1-0.1,0.5-0.5,0.2-0.8S33.9,205.4,32.5,204.3z"/>
			<path class="st1" d="M33.9,191.2l2.6-2.6l7.4,7.5l-2.6,2.6c0,0-0.4,0.3-0.7,0c-0.1-0.1-0.1-0.3,0-0.5c0.2-0.4,0.2-0.5-0.2-0.9
				l-5.2-5.2c-0.4-0.4-0.4-0.4-0.9-0.2c-0.1,0.1-0.3,0.1-0.5,0C33.5,191.7,33.8,191.3,33.9,191.2z M39.9,186.7l1.2,1.3
				c0.1,0.2,0.1,0.4,0,0.5c-0.2,0.3-0.3,0.1-0.5,0c-0.9-0.6-2.1-0.5-3,0.2l-0.6-0.6l1.3-1.5L39.9,186.7z M45.8,194.2l-1.4,1.4
				l-0.6-0.6c0.7-0.9,0.8-2.1,0.2-3.1c-0.1-0.2-0.2-0.4,0-0.6c0.1-0.1,0.4-0.2,0.5,0c0,0,0,0,0,0c0,0,0.1,0.1,0.1,0.1l1.2,1.1
				L45.8,194.2z M40.2,191.5c0.2-0.5,0.2-1.1-0.2-1.6c-0.1-0.2-0.2-0.4,0-0.6s0.6,0.1,0.7,0.2l2.2,2.1c0.1,0.1,0.5,0.4,0.2,0.7
				s-0.4,0.1-0.7,0c-0.4-0.4-1-0.4-1.5-0.2L40.2,191.5z"/>
			<path class="st1" d="M27.1,214.7c0.9-1,2.4-1.1,3.9,0.3c1.1,0.9,1.3,2.6,0.4,3.7c0,0,0,0,0,0l-0.1,0.2l-0.3-0.3
				c0.3-0.4,0-0.7-0.2-0.9l-2.4-2.4c-0.2-0.2-0.5-0.5-0.9-0.2L27.1,214.7z"/>
			<path class="st1" d="M29.2,220.3v-0.1c0.1-0.1-0.1-0.3-0.2-0.4l-2.9-2.9c-0.1-0.1-0.2-0.2-0.4-0.2s-0.3,0.2-0.4,0s0-0.3,0.1-0.4
				l1.4-1.4l4.2,4.2l-1.2,1.2H29.2z"/>
			<path class="st1" d="M29.2,212.6l1.5-1.5l4.2,4.2l-1.5,1.5c0,0-0.2,0.2-0.4,0c-0.1-0.1-0.1-0.2,0-0.3c0.1-0.3,0.1-0.3-0.1-0.5
				l-2.9-2.9c-0.2-0.2-0.2-0.2-0.5-0.1c-0.1,0.1-0.2,0.1-0.3,0C29,212.9,29.2,212.6,29.2,212.6z M30.9,210.9l1.2-1.2l1.1,1.1
				c0.1,0.1,0.1,0.2,0,0.3c-0.1,0.2-0.2,0.1-0.3,0c-0.5-0.3-1.2-0.3-1.7,0.1L30.9,210.9z M34.8,214.7c0.4-0.5,0.4-1.2,0.1-1.7
				c0-0.1-0.1-0.2,0-0.3c0.1-0.1,0.2-0.1,0.3,0l0,0l1.1,1.1l-1.2,1.2L34.8,214.7z M32.8,212.7c0.1-0.3,0.1-0.6-0.1-0.9
				c-0.1-0.1-0.1-0.2,0-0.4s0.3,0.1,0.4,0.1l1.2,1.2c0,0,0.3,0.2,0.1,0.4s-0.2,0.1-0.4,0c-0.3-0.2-0.6-0.2-0.9-0.1L32.8,212.7z"/>
			<path class="st1" d="M34.3,207.5c0.3-0.4,0.8-0.7,1.3-0.9c1-0.2,2,0.5,2.2,1.5c0,0,0,0,0,0c0,0.2,0,0.5,0,0.7
				c-0.2,0.5-0.5,0.9-0.9,1.2l-0.3-0.3c0.3-0.4,0-0.6-0.2-0.9l-0.8-0.8c-0.2-0.3-0.5-0.4-0.9-0.2L34.3,207.5z M33.3,209.7
				c-0.2-0.2-0.2-0.2-0.5-0.1c-0.1,0.1-0.2,0.1-0.3,0c-0.1-0.1-0.1-0.3,0-0.4l0,0l1.4-1.5l3.6,3.5c0.2,0.2,0.2,0.2,0.5,0.1
				c0.1-0.1,0.2-0.1,0.3,0c0.2,0.2,0,0.4,0,0.4l-1.6,1.6c-0.1,0.1-0.2,0.1-0.3,0c0,0,0,0,0,0l0,0c-0.1-0.1-0.1-0.2,0-0.3
				c0.1-0.3,0.1-0.3-0.2-0.5L33.3,209.7z"/>
			<path class="st1" d="M37.8,204.4c-0.1,0.2-0.1,0.5,0.1,0.7l2.9,2.9c0.2,0.2,0.5,0.2,0.7,0.1l0.3,0.3c-1.5,0.9-3.4,0.5-4.3-0.9
				c-0.7-1-0.7-2.4,0-3.4L37.8,204.4z M41.8,207.9c0.1-0.2,0.1-0.5-0.1-0.7l-2.9-2.9c-0.2-0.2-0.5-0.2-0.7-0.1l-0.3-0.3
				c1.5-0.9,3.4-0.5,4.3,0.9c0.7,1,0.7,2.4,0,3.4L41.8,207.9z"/>
			<path class="st1" d="M45.8,204.4l-1.3,1.3c0,0-0.2,0.2-0.4,0c-0.1-0.1-0.1-0.2,0-0.3c0.1-0.2,0.1-0.3-0.1-0.5l-3.6-3.6l1.4-1.4
				l3.6,3.5c0.2,0.2,0.2,0.2,0.5,0.1L45.8,204.4z M44.1,200.3c0.1,0.1,0.1,0.2,0,0.3l0,0c-0.2,0.2-0.3,0-0.5-0.1
				c-0.3-0.3-0.8-0.5-1.2-0.4l-0.3-0.3l0.8-0.8L44.1,200.3z M39.3,202.5l0.8-0.8l0.3,0.3c0,0.5,0.2,0.9,0.5,1.2
				c0.1,0.1,0.2,0.3,0.1,0.5c-0.1,0.1-0.2,0.1-0.3,0l0,0L39.3,202.5z"/>
			<path class="st1" d="M16.2,199.5l1.2-1.2l3.3,3.3c0.2,0.2,0.2,0.2,0.5,0.1c0.1-0.1,0.2-0.1,0.2,0c0.1,0.1,0,0.3,0,0.4l-1.5,1.5
				c0,0-0.2,0.2-0.4,0c-0.1-0.1-0.1-0.2,0-0.3c0.1-0.2,0.1-0.3-0.1-0.5L16.2,199.5z M19.7,198.4c0.1,0.1,0.1,0.2,0,0.3
				c-0.1,0.1-0.3,0-0.4-0.1c-0.3-0.3-0.8-0.5-1.2-0.4l-0.3-0.3l0.8-0.8L19.7,198.4z M15.2,200.4l0.8-0.8l0.3,0.3
				c0,0.5,0.1,0.9,0.4,1.2c0.1,0.1,0.2,0.3,0.1,0.4c-0.1,0.1-0.2,0.1-0.3,0l0,0L15.2,200.4z"/>
			<path class="st1" d="M23.5,198.8c0.2,0.2,0.2,0.2,0.5,0.1c0.1-0.1,0.2-0.1,0.3,0c0.1,0.1,0,0.3,0,0.4l-1.5,1.5
				c-0.1,0.1-0.2,0.1-0.3,0c0,0,0,0,0,0l0,0c-0.1-0.1-0.1-0.2,0-0.2c0.1-0.2,0.1-0.3-0.1-0.5l-2.8-2.8c-0.2-0.2-0.2-0.2-0.5-0.1
				c-0.1,0.1-0.2,0.1-0.3,0c-0.1-0.1,0-0.3,0-0.4l1.5-1.5c0.1-0.1,0.3-0.1,0.4,0c0,0,0,0,0,0c0,0.1,0,0.2,0,0.2
				c-0.1,0.2-0.1,0.3,0.1,0.5L23.5,198.8z M23,196.8l-0.5,0.5l-0.3-0.3l0.5-0.5l-1.2-1.2c-0.2-0.2-0.2-0.2-0.5-0.1
				c-0.1,0.1-0.2,0.1-0.3,0c-0.1-0.1,0-0.3,0-0.4l1.5-1.5c0,0,0.2-0.2,0.4,0c0,0.1,0,0.2,0,0.2c-0.1,0.2-0.1,0.3,0.1,0.5l2.7,2.8
				c0.2,0.2,0.2,0.2,0.5,0.1c0.1-0.1,0.2-0.1,0.3,0c0.1,0.1,0,0.3,0,0.4l-1.5,1.5c-0.1,0.1-0.2,0.1-0.3,0l0,0
				c-0.1-0.1-0.1-0.2,0-0.2c0.1-0.2,0.1-0.3-0.1-0.5L23,196.8z"/>
			<path class="st1" d="M23.1,192.6l1.4-1.4l3.9,3.9l-1.4,1.4c0,0-0.2,0.2-0.4,0c-0.1-0.1-0.1-0.2,0-0.3c0.1-0.2,0.1-0.3-0.1-0.5
				l-2.8-2.7c-0.2-0.2-0.2-0.2-0.5-0.1c-0.1,0.1-0.2,0.1-0.3,0C22.9,192.8,23,192.6,23.1,192.6z M24.7,191l1.2-1.2l1.1,1.1
				c0.1,0.1,0.1,0.2,0,0.3c-0.1,0.1-0.2,0-0.3,0c-0.5-0.3-1.2-0.2-1.6,0.1L24.7,191z M28.3,194.6c0.4-0.5,0.4-1.1,0.1-1.7
				c0-0.1-0.1-0.2,0-0.3c0.1-0.1,0.2-0.1,0.3,0l0,0l1,1l-1.2,1.2L28.3,194.6z M26.4,192.8c0.1-0.3,0.1-0.6-0.1-0.8
				c0-0.1-0.1-0.2,0-0.3s0.3,0,0.4,0.1l1.1,1.1c0,0,0.3,0.2,0.1,0.4s-0.2,0-0.3,0c-0.2-0.2-0.6-0.2-0.8-0.1L26.4,192.8z"/>
			<path class="st1" d="M13,180.3h2.9v0.7h-2v0.8h1.8v0.6h-1.8v0.9h2v0.7H13V180.3z"/>
			<path class="st1" d="M16.9,182.6l-0.9-1.2h0.9l0.5,0.7l0.5-0.7h0.8l-0.9,1.2l1,1.4h-0.8l-0.6-0.9l-0.6,0.9h-0.8L16.9,182.6z"/>
			<path class="st1" d="M20.8,182.3c0-0.3-0.3-0.5-0.5-0.5c0,0,0,0,0,0l0,0c-0.5,0-0.6,0.5-0.6,0.9s0.2,0.9,0.6,0.9
				c0.3,0,0.6-0.2,0.6-0.6h0.7c-0.1,0.6-0.6,1.1-1.2,1.1c-0.7,0-1.3-0.5-1.4-1.3c0,0,0,0,0,0v-0.1c-0.1-0.7,0.5-1.4,1.2-1.4
				c0,0,0,0,0,0h0.2c0.6-0.1,1.2,0.4,1.2,1L20.8,182.3z"/>
			<path class="st1" d="M21.9,180.3h0.8v3.7h-0.8V180.3z"/>
			<path class="st1" d="M25.6,184.1h-0.7v-0.4l0,0c-0.2,0.3-0.5,0.4-0.8,0.4c-0.8,0-1-0.4-1-1.1v-1.7h0.8v1.6c0,0.4,0.1,0.7,0.5,0.7
				s0.6-0.2,0.6-0.8v-1.4h0.7L25.6,184.1z"/>
			<path class="st1" d="M26.7,183.2c0,0.3,0.3,0.5,0.6,0.5s0.5-0.1,0.5-0.4s-0.3-0.3-0.8-0.4s-0.9-0.2-0.9-0.7
				c0-0.7,0.6-0.9,1.2-0.9s1.1,0.2,1.2,0.9h-0.7c0-0.3-0.2-0.4-0.5-0.4s-0.4,0-0.4,0.2s0.4,0.3,0.8,0.4s0.9,0.3,0.9,0.8
				c0,0.7-0.6,1-1.2,1s-1.2-0.2-1.2-1L26.7,183.2z"/>
			<path class="st1" d="M29.6,180.9h-0.7v-0.6h0.7V180.9z M28.9,181.4h0.7v2.7h-0.7V181.4z"/>
			<path class="st1" d="M31.5,184.1h-0.8l-0.9-2.7h0.8l0.6,1.8l0,0l0.6-1.8h0.7L31.5,184.1z"/>
			<path class="st1" d="M33.3,182.9c0,0.3,0.2,0.6,0.5,0.7c0.1,0,0.1,0,0.2,0c0.2,0,0.5-0.1,0.6-0.3h0.7c-0.2,0.6-0.7,0.9-1.2,0.9
				c-0.7,0-1.3-0.5-1.4-1.3c0,0,0,0,0,0c0-0.1,0-0.1,0-0.2c-0.1-0.7,0.4-1.4,1.2-1.5c0.7-0.1,1.4,0.4,1.5,1.2c0,0.1,0,0.1,0,0.2
				c0,0.1,0,0.2,0,0.3L33.3,182.9z M34.6,182.5c-0.1-0.4-0.2-0.6-0.6-0.6c-0.3,0-0.6,0.2-0.6,0.6l0,0L34.6,182.5z"/>
			<path class="st1" d="M35.6,180.3h0.8v3.7h-0.8V180.3z"/>
			<path class="st1" d="M38.2,184.4c-0.1,0.4-0.5,0.7-0.9,0.6c-0.2,0-0.3,0-0.5,0v-0.6c0.1,0,0.3,0,0.4,0c0.2,0,0.3-0.2,0.3-0.4
				c0,0,0,0,0,0c0,0,0-0.1,0-0.1l-1-2.5h0.8l0.6,1.9l0,0l0.6-1.9h0.8L38.2,184.4z"/>
			<path class="st1" d="M40.8,182.2c0-0.7,0.7-0.9,1.2-0.9s1.2,0.1,1.2,0.8v1.4c0,0.2,0,0.4,0.1,0.6h-0.8c0-0.1,0-0.2,0-0.3
				c-0.2,0.2-0.6,0.4-0.9,0.3c-0.4,0.1-0.8-0.2-0.9-0.7c0,0,0-0.1,0-0.1c0-0.6,0.5-0.8,0.9-0.8s0.9,0,0.9-0.4s-0.2-0.4-0.5-0.4
				c-0.2,0-0.5,0.1-0.5,0.4c0,0,0,0,0,0H40.8z M42.5,182.8c-0.2,0.1-0.4,0.1-0.6,0.1c-0.2,0-0.4,0.1-0.4,0.4c0,0,0,0,0,0
				c0,0.3,0.2,0.4,0.5,0.4c0.3,0,0.6-0.2,0.6-0.5c0,0,0-0.1,0-0.1V182.8z"/>
			<path class="st1" d="M44.6,181.4h0.5v0.5h-0.5v1.3c0,0.2,0.1,0.3,0.3,0.3h0.2v0.6h-0.4c-0.5,0-0.8-0.1-0.8-0.6v-1.6h-0.5v-0.5
				h0.5v-0.8h0.7L44.6,181.4z"/> -->
		</g>
	</g>
</g>
</svg>
