<svg xmlns="http://www.w3.org/2000/svg" viewBox="0 0 728 90"><title>overlay</title><g id="Layer_2" data-name="Layer 2"><g id="Layer_10" data-name="Layer 10"><rect width="728" height="90" fill="none"/></g><g id="Layer_8" data-name="Layer 8"><g id="CTA"><g id="Rounded_Rectangle_1" data-name="Rounded Rectangle 1"><rect x="550.09" y="32.64" width="162.03" height="25.76" rx="3.32" fill="#fff"/></g><g id="EXPLORE_THE_PALETTE_" data-name="EXPLORE THE PALETTE "><path d="M561.62,47.85h3.56v.84h-4.52V41.86H565v.83h-3.42v2.05h3.22v.83h-3.22Z" fill="#19191d"/><path d="M570.38,44.42,572,41.88h1.11l-2.18,3.22,2.5,3.6h-1.22l-1.87-2.87-1.83,2.87h-1.17l2.43-3.6-2.19-3.2h1.16Z" fill="#19191d"/><path d="M575.77,41.88h2.08a3.74,3.74,0,0,1,1,.11,2.26,2.26,0,0,1,.78.34,1.76,1.76,0,0,1,.49.59,2.12,2.12,0,0,1,.17.83,1.91,1.91,0,0,1-.19.88,1.67,1.67,0,0,1-.52.6,2.6,2.6,0,0,1-.83.34,4.17,4.17,0,0,1-1,.11h-1v3h-1Zm1,3h1a3.39,3.39,0,0,0,.64-.07,1.57,1.57,0,0,0,.51-.19.9.9,0,0,0,.33-.34,1.18,1.18,0,0,0,.12-.53,1,1,0,0,0-.13-.51.92.92,0,0,0-.32-.33,1.27,1.27,0,0,0-.5-.19,2.6,2.6,0,0,0-.62-.05h-1Z" fill="#19191d"/><path d="M583.7,47.85h3v.84h-4V41.86h1Z" fill="#19191d"/><path d="M595.65,45.28a3.59,3.59,0,0,1-.27,1.45,3.26,3.26,0,0,1-.76,1.14,3.21,3.21,0,0,1-1.14.74,4,4,0,0,1-2.89,0,3.55,3.55,0,0,1-1.14-.74,3.48,3.48,0,0,1-.75-1.14,4.16,4.16,0,0,1,0-2.91,3.38,3.38,0,0,1,.75-1.13,3.7,3.7,0,0,1,1.14-.73,4.22,4.22,0,0,1,2.89,0,3.37,3.37,0,0,1,1.9,1.86A3.67,3.67,0,0,1,595.65,45.28Zm-1,0a2.89,2.89,0,0,0-.69-1.93,2.61,2.61,0,0,0-.84-.59,2.71,2.71,0,0,0-2.14,0,2.22,2.22,0,0,0-.83.59,2.65,2.65,0,0,0-.52.87,3.19,3.19,0,0,0-.18,1.06,3.25,3.25,0,0,0,.18,1.07,2.65,2.65,0,0,0,.52.83,2.4,2.4,0,0,0,.83.58A2.55,2.55,0,0,0,592,48a2.66,2.66,0,0,0,1.07-.22,2.4,2.4,0,0,0,.83-.58,2.62,2.62,0,0,0,.51-.83A2.82,2.82,0,0,0,594.62,45.28Z" fill="#19191d"/><path d="M599.31,48.7h-1V41.88h2.19a4.23,4.23,0,0,1,.94.1,2.37,2.37,0,0,1,.77.32,1.56,1.56,0,0,1,.52.59,1.68,1.68,0,0,1,.2.88,1.66,1.66,0,0,1-.46,1.21,2.2,2.2,0,0,1-1.2.59l1.91,3.13h-1.15l-1.74-3h-1Zm0-3.84h1.1a2.18,2.18,0,0,0,.62-.06,1.36,1.36,0,0,0,.51-.18,1,1,0,0,0,.34-.34.9.9,0,0,0,.13-.51,1,1,0,0,0-.13-.52,1,1,0,0,0-.33-.33,1.45,1.45,0,0,0-.49-.18,2.32,2.32,0,0,0-.59-.05h-1.16Z" fill="#19191d"/><path d="M606.59,47.85h3.56v.84h-4.48V41.86h4.38v.83h-3.46v2.05h3.21v.83h-3.21Z" fill="#19191d"/><path d="M619,48.7H618v-6h-2.2v-.83h5.34v.83H619Z" fill="#19191d"/><path d="M623.45,41.88h.95v2.85h3.45V41.88h1V48.7h-1V45.58H624.4V48.7h-.95Z" fill="#19191d"/><path d="M632.82,47.85h3.57v.84h-4.53V41.86h4.38v.83h-3.42v2.05H636v.83h-3.22Z" fill="#19191d"/><path d="M642.77,41.88h2a3.82,3.82,0,0,1,1,.11,2.3,2.3,0,0,1,.77.34,1.56,1.56,0,0,1,.49.59,1.82,1.82,0,0,1,.17.83,1.8,1.8,0,0,1-.19.88,1.74,1.74,0,0,1-.51.6,2.6,2.6,0,0,1-.83.34,4.67,4.67,0,0,1-1,.11h-1.08v3h-1Zm1,3h1a3.59,3.59,0,0,0,.65-.07,1.47,1.47,0,0,0,.49-.19.92.92,0,0,0,.34-.34,1.05,1.05,0,0,0,.11-.53,1,1,0,0,0-.12-.51.87.87,0,0,0-.33-.33,1.28,1.28,0,0,0-.49-.19,2.68,2.68,0,0,0-.63-.05h-1Z" fill="#19191d"/><path d="M649.49,48.7h-1.07l3-6.82h.83l2.93,6.82h-1.07l-.7-1.66h-3.24Zm1-2.49h2.55L651.79,43Z" fill="#19191d"/><path d="M658.42,47.85h3v.84h-4V41.86h1Z" fill="#19191d"/><path d="M664.75,47.85h3.57v.84H663.8V41.86h4.38v.83h-3.43v2.05H668v.83h-3.23Z" fill="#19191d"/><path d="M673.47,48.7h-1v-6h-2.18v-.83h5.32v.83h-2.18Z" fill="#19191d"/><path d="M680.72,48.7h-1v-6h-2.19v-.83h5.33v.83h-2.19Z" fill="#19191d"/><path d="M686.16,47.85h3.57v.84h-4.52V41.86h4.37v.83h-3.42v2.05h3.22v.83h-3.22Z" fill="#19191d"/><path d="M695.91,41.41l4.06,3v.77l-4.06,3v-1.1L699,44.79l-3.07-2.27Z" fill="#19191d"/></g></g><g id="Layer_13" data-name="Layer 13"><rect x="16.24" y="50.06" width="26.96" height="26.96" fill="#f48120"/><path d="M41.06,75.7a.77.77,0,1,1,.77.77A.77.77,0,0,1,41.06,75.7Zm.77.64a.64.64,0,0,0,.66-.62.64.64,0,1,0-1.28,0v0a.6.6,0,0,0,.58.64Zm-.16-.2h-.13v-.87h.33c.21,0,.31.07.31.25a.23.23,0,0,1-.22.24h0l.25.38h-.15l-.23-.38h-.15Zm.16-.49c.11,0,.21,0,.21-.14s-.1-.13-.19-.13h-.18v.27Z" fill="#fff"/><path d="M22.2,71.4l-.7.7L21,71.64l.7-.7-1.81-1.81c-.29-.29-.33-.35-.7-.16a.29.29,0,0,1-.39,0c-.23-.23,0-.5,0-.54l2.25-2.24s.31-.28.54,0a.32.32,0,0,1,0,.39c-.19.36-.14.4.16.7L26,71.45c.29.29.33.35.7.16a.35.35,0,0,1,.39,0c.23.23,0,.51,0,.54L24.8,74.4s-.31.27-.54,0a.32.32,0,0,1,0-.39c.2-.36.14-.4-.15-.7Zm-6-.34,1.92-1.91s.31-.28.54,0a.32.32,0,0,1,0,.39c-.19.37-.14.41.16.7L23,74.41c.29.3.33.35.7.16a.35.35,0,0,1,.39,0c.23.23,0,.51,0,.54L22.2,77h-.91c.19-.37.14-.41-.16-.7L17,72.15c-.29-.3-.33-.36-.7-.16h0Z" fill="#fff"/><path d="M24.36,63.63a.75.75,0,0,0,.17,1l4.12,4.12a.74.74,0,0,0,1,.17l.46.46c-1.83,1.53-4,1-5.57-.63s-2.15-3.73-.62-5.56ZM30,68.54a.77.77,0,0,0-.17-1l-4.13-4.12a.75.75,0,0,0-1-.17l-.46-.46c1.83-1.53,4-1,5.56.63S32,67.15,30.42,69Z" fill="#fff"/><path d="M38.76,60a.32.32,0,0,0-.39,0c-.36.19-.4.13-.7-.16L33.5,55.63c-.29-.3-.35-.34-.16-.7a.32.32,0,0,0,0-.39c-.23-.23-.51,0-.54,0l-2.1,2.1,1.72,3.17h0l-3.29-1.59-2,2c-.09.1-.33.34-.08.58s.42,0,.52-.09.27-.06.46,0a3,3,0,0,1,.49.2l6.58,3.27.23-.23-3.22-6,3.7,3.69c.29.3.35.34.16.7a.29.29,0,0,0,0,.39c.23.23.5,0,.54,0l2.24-2.24S39,60.19,38.76,60Z" fill="#fff"/><path d="M32.54,64.15,31.2,62.79l-1.76-.87h0l2.68,2.69c.87,1.12.05,1.32.39,1.66s.56-.1.65-.19l.9-.9c.09-.09.43-.4.18-.64S33.66,65,32.54,64.15Z" fill="#fff"/><path d="M33.64,53.66l2.1-2.09,5.95,6-2.1,2.1s-.31.27-.54,0a.32.32,0,0,1,0-.39c.19-.36.14-.4-.16-.7l-4.17-4.17c-.29-.29-.33-.35-.7-.16a.29.29,0,0,1-.39,0C33.36,54,33.61,53.7,33.64,53.66Zm4.85-3.6,1,1a.33.33,0,0,1,0,.44c-.19.24-.26.1-.42,0a2.16,2.16,0,0,0-2.45.16l-.46-.46,1-1.18Zm4.71,6-1.15,1.15-.46-.46a2.3,2.3,0,0,0,.19-2.5c-.06-.18-.14-.35,0-.5a.31.31,0,0,1,.44,0l.06.07.92.91Zm-4.45-2.14a1.2,1.2,0,0,0-.14-1.26c-.1-.17-.18-.35,0-.52s.5.08.56.15L40.89,54c.06.06.39.31.14.55s-.34.09-.52,0a1.2,1.2,0,0,0-1.25-.15Z" fill="#fff"/><path d="M28.2,72.49c.75-.77,1.91-.88,3.12.22a2.14,2.14,0,0,1,.33,3l-.1.12-.26-.26c.23-.31,0-.58-.18-.75L29.2,72.92c-.17-.17-.44-.41-.75-.17Z" fill="#fff"/><path d="M29.86,77v-.1c.05-.11-.07-.22-.14-.29l-2.35-2.34c-.06-.07-.18-.2-.29-.14s-.22.13-.33,0,0-.25.07-.33L28,72.67,31.32,76l-1,1Z" fill="#fff"/><path d="M29.89,70.82l1.18-1.18L34.42,73,33.2,74.17s-.18.15-.31,0a.17.17,0,0,1,0-.21c.11-.21.08-.23-.09-.4l-2.35-2.34c-.16-.17-.18-.2-.39-.09a.18.18,0,0,1-.22,0C29.73,71,29.87,70.84,29.89,70.82Zm1.38-1.38,1-1,.91.91a.19.19,0,0,1,0,.24c-.1.13-.15.06-.24,0a1.24,1.24,0,0,0-1.38.1Zm3.09,3.09a1.31,1.31,0,0,0,.11-1.42c0-.09-.08-.19,0-.27a.18.18,0,0,1,.24,0l0,0,.9.9-1,1Zm-1.6-1.6a.66.66,0,0,0-.07-.7c-.06-.1-.1-.2,0-.3S33,70,33,70l1,1s.22.18.08.31-.19.05-.29,0a.68.68,0,0,0-.71-.08Z" fill="#fff"/><path d="M34,66.71a2.48,2.48,0,0,1,1-.72,1.49,1.49,0,0,1,1.73,1.18,1.32,1.32,0,0,1,0,.56,2.34,2.34,0,0,1-.72,1l-.26-.26c.22-.31,0-.51-.17-.73L35,67.07c-.2-.21-.42-.35-.7-.15Zm-.8,1.8c-.17-.16-.19-.19-.4-.09a.17.17,0,0,1-.21,0,.2.2,0,0,1,0-.29h0l1.18-1.18,2.85,2.84c.17.17.19.2.39.09a.18.18,0,0,1,.22,0c.13.13,0,.29,0,.31L36,71.44a.18.18,0,0,1-.27,0h0a.17.17,0,0,1,0-.21c.11-.21.05-.21-.12-.37Z" fill="#fff"/><path d="M36.83,64.26a.42.42,0,0,0,.1.55l2.31,2.32a.41.41,0,0,0,.55.09l.26.26A2.52,2.52,0,0,1,36.57,64ZM40,67a.43.43,0,0,0-.1-.55l-2.32-2.32a.43.43,0,0,0-.55-.09l-.26-.26a2.52,2.52,0,0,1,3.48,3.48Z" fill="#fff"/><path d="M43.2,64.2l-1.07,1.08s-.18.15-.31,0a.18.18,0,0,1,0-.22c.11-.2.08-.22-.09-.39l-2.85-2.85L40,60.73l2.85,2.84c.16.17.18.2.39.09Zm-1.35-3.26a.19.19,0,0,1,0,.27h0c-.12.13-.26,0-.37,0a1.47,1.47,0,0,0-1-.36l-.26-.26.65-.65ZM38,62.69l.64-.64.26.25a1.46,1.46,0,0,0,.37,1c.08.11.17.25.05.37a.19.19,0,0,1-.27,0v0Z" fill="#fff"/><path d="M19.47,60.27l1-1,2.68,2.67c.15.16.17.19.37.09a.15.15,0,0,1,.2,0c.12.12,0,.27,0,.28l-1.19,1.2s-.17.14-.29,0a.17.17,0,0,1,0-.21c.1-.19.07-.21-.08-.37Zm2.81-.85a.2.2,0,0,1,0,.27c-.12.11-.25,0-.35-.06a1.42,1.42,0,0,0-1-.34l-.25-.24.61-.61Zm-3.6,1.64.6-.6.25.24a1.27,1.27,0,0,0,.34,1c.08.11.17.24.05.36a.18.18,0,0,1-.26,0h0Z" fill="#fff"/><path d="M25.36,59.73c.16.15.18.18.37.08a.2.2,0,0,1,.21,0c.12.12,0,.27,0,.29l-1.19,1.19a.19.19,0,0,1-.27,0v0a.15.15,0,0,1,0-.2c.1-.2.07-.22-.09-.37l-2.2-2.21c-.16-.15-.18-.18-.37-.08a.17.17,0,0,1-.21,0c-.12-.12,0-.27,0-.29L22.79,57s.16-.15.29,0a.18.18,0,0,1,0,.2c-.11.2-.08.22.08.37Zm-.44-1.57-.37.37-.25-.24.37-.37-1-1c-.16-.15-.18-.18-.37-.08a.17.17,0,0,1-.21,0c-.12-.12,0-.27,0-.29l1.19-1.19s.16-.14.28,0a.18.18,0,0,1,0,.2c-.1.2-.08.22.08.37l2.2,2.21c.16.15.18.18.37.08a.2.2,0,0,1,.21,0c.12.12,0,.27,0,.29L26.23,59.7a.19.19,0,0,1-.27,0v0a.15.15,0,0,1,0-.2c.1-.2.07-.22-.09-.37Z" fill="#fff"/><path d="M25,54.76l1.11-1.11,3.14,3.15-1.11,1.11s-.16.15-.28,0a.17.17,0,0,1,0-.21c.1-.19.07-.22-.09-.37l-2.2-2.2c-.16-.16-.18-.19-.37-.09A.17.17,0,0,1,25,55C24.83,54.93,25,54.78,25,54.76Zm1.3-1.3.93-.93.86.85a.19.19,0,0,1,0,.23c-.09.12-.14,0-.22,0a1.16,1.16,0,0,0-1.3.09Zm2.9,2.91a1.2,1.2,0,0,0,.1-1.33c0-.09-.07-.18,0-.26a.17.17,0,0,1,.24,0l0,0,.84.84-1,1Zm-1.5-1.5a.65.65,0,0,0-.08-.67c0-.09-.09-.18,0-.27s.26,0,.3.08l.9.91s.21.16.08.29-.18,0-.27,0a.65.65,0,0,0-.67-.08Z" fill="#fff"/><path d="M16.9,44.93h2.3v.55H17.61v.65h1.46v.51H17.61v.74H19.2v.55H16.9Z" fill="#fff"/><path d="M20,46.79l-.71-1H20l.38.56.38-.56h.66l-.71,1,.8,1.16h-.68l-.45-.69-.46.69h-.67Z" fill="#fff"/><path d="M23.13,46.52a.41.41,0,0,0-.43-.37h0c-.38,0-.51.38-.51.7s.13.69.5.69a.47.47,0,0,0,.48-.44h.57a1,1,0,0,1-1,.89,1,1,0,0,1-1.09-1v-.12a1.06,1.06,0,0,1,1-1.16h.15a.94.94,0,0,1,1,.82Z" fill="#fff"/><path d="M24,44.93h.6v3H24Z" fill="#fff"/><path d="M27,47.93h-.56v-.3h0a.76.76,0,0,1-.66.36c-.64,0-.8-.36-.8-.9V45.76h.6V47c0,.36.11.54.38.54s.47-.18.47-.62V45.8H27Z" fill="#fff"/><path d="M27.86,47.22c0,.26.22.37.46.37s.39-.07.39-.28-.25-.24-.68-.33-.69-.2-.69-.58c0-.56.48-.7.95-.7s.91.16,1,.69h-.56c0-.23-.2-.29-.41-.29s-.33,0-.33.2.33.24.67.32.69.21.69.61c0,.57-.49.76-1,.76s-1-.19-1-.77Z" fill="#fff"/><path d="M30.2,45.42h-.59v-.49h.59Zm-.59.34h.59v2.17h-.59Z" fill="#fff"/><path d="M31.77,47.93h-.66l-.75-2.17H31l.46,1.48h0l.46-1.48h.59Z" fill="#fff"/><path d="M33.2,47a.49.49,0,0,0,.54.55.5.5,0,0,0,.47-.28h.52a1,1,0,0,1-1,.73,1.05,1.05,0,0,1-1.11-1,.66.66,0,0,1,0-.14,1.09,1.09,0,0,1,2.18-.12,2.11,2.11,0,0,1,0,.26Zm1-.38c-.06-.3-.19-.46-.48-.46a.48.48,0,0,0-.5.44v0Z" fill="#fff"/><path d="M35,44.93h.6v3H35Z" fill="#fff"/><path d="M37.08,48.2a.68.68,0,0,1-.75.5H36v-.49h.35a.27.27,0,0,0,.23-.31.29.29,0,0,0,0-.09l-.77-2h.64l.49,1.48h0l.48-1.48H38Z" fill="#fff"/><path d="M39.2,46.43c0-.56.54-.73,1-.73s1,.09,1,.62v1.13a1.1,1.1,0,0,0,.07.48h-.6a.74.74,0,0,1,0-.21,1,1,0,0,1-.74.27.63.63,0,0,1-.73-.55.31.31,0,0,1,0-.1c0-.49.37-.61.74-.66s.71,0,.71-.29-.18-.29-.39-.29a.34.34,0,0,0-.39.33Zm1.38.44a1.11,1.11,0,0,1-.5.12.32.32,0,0,0-.35.32c0,.22.17.28.37.28a.43.43,0,0,0,.48-.39v-.33Z" fill="#fff"/><path d="M42.27,45.76h.44v.4h-.44v1.07c0,.2,0,.25.26.25h.18v.46a2,2,0,0,1-.35,0c-.36,0-.68-.09-.68-.52V46.14h-.37v-.4h.37v-.66h.59Z" fill="#fff"/></g></g><g id="CTA-2" data-name="CTA"><g id="Rounded_Rectangle_1-2" data-name="Rounded Rectangle 1"><rect x="550.53" y="33.19" width="160.75" height="25.56" rx="4" fill="#fff"/></g><g id="EXPLORE_THE_PALETTE_2" data-name="EXPLORE THE PALETTE &gt;"><path d="M561.35,48.28h3.54v.84H560.4V42.36h4.34v.83h-3.39v2h3.19V46h-3.19Z" fill="#19191d"/><path d="M570.12,44.88l1.61-2.52h1.11l-2.16,3.2,2.46,3.56h-1.2l-1.85-2.84-1.82,2.84H567.1l2.42-3.58-2.18-3.18h1.16Z" fill="#19191d"/><path d="M575.56,42.36h2.06a3.88,3.88,0,0,1,1,.11,2,2,0,0,1,.76.34,1.45,1.45,0,0,1,.49.58,1.84,1.84,0,0,1,.17.85,1.93,1.93,0,0,1-.18.87,1.65,1.65,0,0,1-.52.59,2.13,2.13,0,0,1-.78.34,3.87,3.87,0,0,1-1,.11h-1.07v3h-1Zm1,3h1a3.24,3.24,0,0,0,.64-.06,1.74,1.74,0,0,0,.5-.19.87.87,0,0,0,.32-.34,1.05,1.05,0,0,0,.12-.52,1,1,0,0,0-.12-.51,1,1,0,0,0-.33-.34,1.56,1.56,0,0,0-.49-.18,4,4,0,0,0-.62-.05h-1Z" fill="#19191d"/><path d="M583.51,48.28h3v.84h-4V42.36h.94Z" fill="#19191d"/><path d="M595.48,45.73a3.77,3.77,0,0,1-.27,1.44A3.29,3.29,0,0,1,593.32,49a3.75,3.75,0,0,1-1.43.27,3.68,3.68,0,0,1-1.43-.27,3.23,3.23,0,0,1-1.88-1.86,4,4,0,0,1,0-2.89,3.32,3.32,0,0,1,.74-1.12,3.35,3.35,0,0,1,1.14-.72,3.87,3.87,0,0,1,1.43-.26,4,4,0,0,1,1.43.26,3.25,3.25,0,0,1,1.89,1.84A3.78,3.78,0,0,1,595.48,45.73Zm-1,0a3,3,0,0,0-.18-1,3,3,0,0,0-.52-.86,2.29,2.29,0,0,0-.81-.59,2.78,2.78,0,0,0-2.12,0,2.25,2.25,0,0,0-.8.59,3,3,0,0,0-.52.86,3.18,3.18,0,0,0,0,2.11,2.92,2.92,0,0,0,.52.87,2.46,2.46,0,0,0,.8.58,2.61,2.61,0,0,0,1.06.21,2.64,2.64,0,0,0,1.06-.21,2.4,2.4,0,0,0,.81-.58,2.92,2.92,0,0,0,.52-.87A3.06,3.06,0,0,0,594.46,45.73Z" fill="#19191d"/><path d="M599.19,49.12h-.94V42.36h2.17a3.93,3.93,0,0,1,.92.1,2.06,2.06,0,0,1,.77.32,1.5,1.5,0,0,1,.52.57,1.84,1.84,0,0,1,.19.88,1.62,1.62,0,0,1-.45,1.2,2.21,2.21,0,0,1-1.19.59l1.89,3.1h-1.14l-1.72-3h-1Zm0-3.8h1.09a3,3,0,0,0,.62-.06,1.92,1.92,0,0,0,.51-.18,1,1,0,0,0,.33-.34,1.07,1.07,0,0,0,0-1,.87.87,0,0,0-.33-.33,1.5,1.5,0,0,0-.48-.18,3.58,3.58,0,0,0-.58-.05h-1.16Z" fill="#19191d"/><path d="M606.53,48.28h3.54v.84h-4.48V42.36h4.34v.83h-3.4v2h3.2V46h-3.2Z" fill="#19191d"/><path d="M618.77,49.12h-.94V43.19h-2.17v-.83h5.28v.83h-2.17Z" fill="#19191d"/><path d="M623.31,42.36h1v2.83h3.42V42.36h1v6.76h-1V46h-3.42v3.09h-1Z" fill="#19191d"/><path d="M632.7,48.28h3.54v.84h-4.49V42.36h4.34v.83H632.7v2h3.19V46H632.7Z" fill="#19191d"/><path d="M642.57,42.36h2.06a3.88,3.88,0,0,1,1,.11,2,2,0,0,1,.76.34,1.54,1.54,0,0,1,.49.58,2,2,0,0,1,.17.85,1.8,1.8,0,0,1-.19.87,1.53,1.53,0,0,1-.51.59,2.1,2.1,0,0,1-.79.34,3.82,3.82,0,0,1-1,.11h-1.07v3h-.94Zm.94,3h1a3.06,3.06,0,0,0,.63-.06,1.63,1.63,0,0,0,.5-.19,1,1,0,0,0,.33-.34,1.05,1.05,0,0,0,.11-.52,1,1,0,0,0-.12-.51,1,1,0,0,0-.32-.34,1.66,1.66,0,0,0-.49-.18,4,4,0,0,0-.62-.05h-1Z" fill="#19191d"/><path d="M649.35,49.12H648.3l2.93-6.76h.86L655,49.12h-1.07l-.69-1.66H650Zm1-2.49h2.53l-1.26-3.17Z" fill="#19191d"/><path d="M658.29,48.28h3v.84h-4V42.36h.94Z" fill="#19191d"/><path d="M664.64,48.28h3.54v.84H663.7V42.36H668v.83h-3.4v2h3.2V46h-3.2Z" fill="#19191d"/><path d="M673.4,49.12h-.95V43.19h-2.17v-.83h5.29v.83H673.4Z" fill="#19191d"/><path d="M680.66,49.12h-.94V43.19h-2.17v-.83h5.28v.83h-2.17Z" fill="#19191d"/><path d="M686.15,48.28h3.54v.84H685.2V42.36h4.34v.83h-3.39v2h3.19V46h-3.19Z" fill="#19191d"/><path d="M695.82,41.9l4,3v.77l-4,3V47.5l3-2.26-3-2.25Z" fill="#19191d"/></g></g><g id="Layer_9" data-name="Layer 9"><g id="Layer_2_Image" data-name="Layer 2 Image"><path d="M395.71,26.56h.14v-.42H396l.28.42h.16l-.28-.43a.24.24,0,0,0,.21-.26c0-.18-.11-.28-.32-.28h-.37ZM396,26h-.16v-.29h.21c.08,0,.2,0,.2.15s-.09.14-.25.14Z"/><path d="M396.05,25.28H396a.78.78,0,1,0,.06,0Zm.62.79a.66.66,0,0,1-.65.66.67.67,0,0,1-.66-.66.66.66,0,0,1,.66-.65A.65.65,0,0,1,396.67,26.07Z"/><path d="M398.21,19.48a1.18,1.18,0,0,1,.08.67,2.27,2.27,0,0,1-1.16.54,16.73,16.73,0,0,0-3,1.07c-.63.4-1.66,1-1.93,1.21s-.44.32-.49.54a5.22,5.22,0,0,0,1,2.42c.27.09.85.22,1.12.35s.39.59.13.59h-2.36c-.36,0-.81-.9-2.36-1.8-.32-.13-.5.18-.59.32s-.27.35-.27.49.63.22.9.36a.53.53,0,0,1,.31.31.2.2,0,0,1-.05.28.2.2,0,0,1-.13,0h-1.92c-.18,0-.32,0-.5-.45a3.17,3.17,0,0,1-.17-.49,3.46,3.46,0,0,1,.13-1.8c-.18-.17-.36-.17-.67-.13a3.07,3.07,0,0,0-1.26.27c-.22.18,0,.63.14.85s.31.81.67.9a1.19,1.19,0,0,1,.85.44.19.19,0,0,1,.05.14c0,.22-.09.31-.32.27h-2.06c-.26,0-.94-1.08-2.06-1.7a1.67,1.67,0,0,0-1,.49c-.14.13-.27.27-.14.39s.27.09.45.14a.53.53,0,0,1,.45.35c0,.09.09.32-.09.32h-2.46a.23.23,0,0,1-.22-.14,3.85,3.85,0,0,1,.13-1.43c.13-.49.49-1.25.54-1.52a12.13,12.13,0,0,0-.58-1.93c-.14-.45-.45-1.52-.23-1.92a5,5,0,0,1,3-3,5.67,5.67,0,0,1,2.32,0,19.5,19.5,0,0,0,2.29.22,15.87,15.87,0,0,0,3.89-.27,21.21,21.21,0,0,1,3,.58c.26,0,.36-.36.58-.22s.49.49.85.31c0-.05.18-.09.22-.05a5.78,5.78,0,0,0,.49.5c.19.13,1,.22,1.26.67S397.76,19.25,398.21,19.48Z"/><path d="M378.73,26.87h-3.49a.86.86,0,0,1-.36-.32,4.85,4.85,0,0,1-1-3.18c0-1.18-.86-3-2.47-3h-1.25v6.54h-3.32V11h3.31v2.36a4.79,4.79,0,0,1,1-1.25,4.66,4.66,0,0,1,1.18-.94,6.49,6.49,0,0,1,2.15.18,4.83,4.83,0,0,1,3.18,4.52,5,5,0,0,1-2,3.8c-.09,0-.18.14-.09.27a6.81,6.81,0,0,1,.85,1.39c.53,1.3.26,2.91,1,4.08A6.14,6.14,0,0,0,378.73,26.87Zm-5.37-9.54a1.36,1.36,0,0,0,1.25-1.43,1.3,1.3,0,0,0-1.2-1.38h-3.18v2.82Z"/><path d="M366.24,11V26.87h-3.4v-6.5h-4.21c.05-.09-.09,0,0,0v6.5h-3.36V11h3.36v6.22h4.21V11Z"/><path d="M354.56,11v3.27h-6.05v3h5v3.09h-5v3.54h6.05v3h-9.27V11h3.22v2.55a4.1,4.1,0,0,1,.9-1.48A4.32,4.32,0,0,1,350.66,11Z"/><path d="M342.6,12a4.8,4.8,0,0,1,1.93,4.88,4.72,4.72,0,0,1-1,2V19a5.32,5.32,0,0,1,.86,1.52,4.81,4.81,0,0,1-3.11,6,4.76,4.76,0,0,1-1.54.23c-1.53,0-5.91.05-5.91.05V11h3.31v2.55a5.16,5.16,0,0,1,1.93-2.42A5.47,5.47,0,0,1,342.6,12ZM340,23.82a1.52,1.52,0,0,0,1.52-1.7A1.5,1.5,0,0,0,340,20.43h-2.82v3.4Zm1.44-8a1.41,1.41,0,0,0-1.53-1.44h-2.73v2.87h2.73a1.42,1.42,0,0,0,1.53-1.43Z"/></g><g id="Layer_10-2" data-name="Layer 10"><path d="M265.56,50.51a8.26,8.26,0,0,1,8.34-8.64,7.45,7.45,0,0,1,5.81,2.63l-.63.56a6.67,6.67,0,0,0-5.18-2.44c-4.18,0-7.47,3.18-7.47,7.89s3.29,7.9,7.47,7.9A6.66,6.66,0,0,0,279.08,56l.65.52a7.38,7.38,0,0,1-5.83,2.66A8.28,8.28,0,0,1,265.56,50.51Z"/><path d="M292.22,41.87c4.83,0,7.93,3.82,7.93,8.64s-3.1,8.65-7.93,8.65-7.93-3.81-7.93-8.65S287.36,41.87,292.22,41.87Zm0,.75c-4.34,0-7.07,3.31-7.07,7.89s2.73,7.9,7.07,7.9,7.06-3.36,7.06-7.9S296.5,42.62,292.22,42.62Z"/><path d="M306,42.15h.8v16h8.4v.76H306Z"/><path d="M326.87,41.87c4.83,0,7.93,3.82,7.93,8.64s-3.11,8.65-7.93,8.65-7.94-3.81-7.94-8.65S322,41.87,326.87,41.87Zm0,.75c-4.33,0-7.07,3.31-7.07,7.89s2.74,7.9,7.07,7.9,7.06-3.36,7.06-7.9S331.16,42.62,326.87,42.62Z"/><path d="M345.43,51.64h-4v7.22h-.8V42.15h5.76a4.76,4.76,0,1,1,0,9.51l5.16,7.22h-1Zm.95-8.72h-4.91v8h4.95a4,4,0,1,0,0-8Z"/><path d="M363.47,44.76h-5.06V42.17h13v2.59H366.4V58.88h-2.93Z"/><path d="M381.78,52.62h-2.9v6.24H376V42.15h7.34c3.31,0,5.46,2.16,5.46,5.23a4.7,4.7,0,0,1-4,4.92l4.09,6.56h-3.38Zm1.11-7.89h-4V50h4a2.66,2.66,0,0,0,.29-5.31Z"/><path d="M393.69,42.15h11.44v2.61h-8.52v4.33H405v2.57h-8.35V56.3h8.52v2.58H393.69Z"/><path d="M413.08,46.68V58.86h-2.94V42.15h3L421.7,54V42.15h2.93V58.86h-2.84Z"/><path d="M430.19,42.15h6.21c5.21,0,8.73,3.46,8.73,8.36s-3.54,8.35-8.73,8.35h-6.21Zm6.21,14.13A5.5,5.5,0,0,0,442.15,51c0-.17,0-.35,0-.53a5.41,5.41,0,0,0-5.74-5.78h-3.28V56.28Z"/><path d="M450.16,54.27a7.17,7.17,0,0,0,5.28,2.31c2.38,0,3.37-1.18,3.37-2.28,0-1.5-1.79-1.95-3.82-2.48-2.73-.68-5.93-1.48-5.93-5,0-2.76,2.43-4.88,6.08-4.88a8.7,8.7,0,0,1,6.27,2.32l-1.68,2.18a6.79,6.79,0,0,0-4.83-1.9c-1.73,0-2.83.79-2.83,2.08s1.7,1.72,3.68,2.22c2.76.71,6,1.59,6,5.19,0,2.78-1.95,5.16-6.46,5.16a9,9,0,0,1-6.79-2.65Z"/><path d="M333.19,74.67c3.11-2.29,4-3.08,4-4,0-.66-.61-1-1.24-1a2.7,2.7,0,0,0-2,.88L333,69.46A3.94,3.94,0,0,1,336,68.22c1.58,0,2.91.92,2.91,2.43,0,1.3-1.07,2.44-3.12,3.87h3.17V76h-5.72Z"/><path d="M355.36,68.22c2.16,0,3.17,2,3.17,4s-1,4-3.17,4-3.17-2-3.17-4S353.18,68.22,355.36,68.22Zm0,1.44c-1.09,0-1.51,1.09-1.51,2.49s.42,2.5,1.51,2.5,1.49-1.1,1.49-2.5S356.44,69.66,355.36,69.66Z"/><path d="M371.75,74.67c3.12-2.29,4-3.08,4-4,0-.66-.61-1-1.25-1a2.7,2.7,0,0,0-2,.88l-.91-1.08a3.94,3.94,0,0,1,2.94-1.24c1.58,0,2.91.92,2.91,2.43,0,1.3-1.08,2.44-3.12,3.87h3.17V76h-5.73Z"/><path d="M392.71,70.42l-1.28,1.3-.93-1,2.38-2.38h1.42V76h-1.59Z"/></g></g></g></svg>